G04*
G04 #@! TF.GenerationSoftware,Altium Limited,Altium Designer,25.1.2 (22)*
G04*
G04 Layer_Color=128*
%FSLAX25Y25*%
%MOIN*%
G70*
G04*
G04 #@! TF.SameCoordinates,B79DADAE-6871-4A3D-A662-253F8C0C8E9A*
G04*
G04*
G04 #@! TF.FilePolarity,Positive*
G04*
G01*
G75*
%ADD10C,0.00394*%
%ADD14R,0.09843X0.19685*%
G04:AMPARAMS|DCode=56|XSize=98.43mil|YSize=196.85mil|CornerRadius=0mil|HoleSize=0mil|Usage=FLASHONLY|Rotation=30.000|XOffset=0mil|YOffset=0mil|HoleType=Round|Shape=Rectangle|*
%AMROTATEDRECTD56*
4,1,4,0.00659,-0.10985,-0.09183,0.06063,-0.00659,0.10985,0.09183,-0.06063,0.00659,-0.10985,0.0*
%
%ADD56ROTATEDRECTD56*%

G04:AMPARAMS|DCode=57|XSize=98.43mil|YSize=196.85mil|CornerRadius=0mil|HoleSize=0mil|Usage=FLASHONLY|Rotation=35.000|XOffset=0mil|YOffset=0mil|HoleType=Round|Shape=Rectangle|*
%AMROTATEDRECTD57*
4,1,4,0.01614,-0.10885,-0.09677,0.05240,-0.01614,0.10885,0.09677,-0.05240,0.01614,-0.10885,0.0*
%
%ADD57ROTATEDRECTD57*%

D10*
X691640Y140033D02*
X686186Y136883D01*
X378731Y25947D02*
X373276Y29096D01*
X482413Y19760D02*
X476390Y17919D01*
X565429Y154517D02*
X560208Y150993D01*
X373276Y29096D02*
X368047Y20038D01*
X378731Y25947D02*
X373344Y16617D01*
X481460Y1334D02*
X476390Y17919D01*
X487606Y2773D02*
X482413Y19760D01*
X253658Y185813D02*
Y211054D01*
X259958Y185813D02*
X259958Y211054D01*
X560208Y150993D02*
X542903Y176645D01*
X565429Y154517D02*
X546948Y181913D01*
X696986Y118177D02*
X686186Y136883D01*
X702442Y121322D02*
X691640Y140033D01*
X610303Y187648D02*
X561260Y236689D01*
X559610Y238791D01*
X668233Y100555D02*
X600818Y165087D01*
X618168Y179784D02*
X600818Y165087D01*
X687807Y110145D02*
X618168Y179784D01*
X610303Y187648D02*
X593078Y172496D01*
X576060Y188786D01*
X318230Y20882D02*
X288186Y145975D01*
X300649Y146821D02*
X288186Y145975D01*
X298619Y156839D02*
X285851Y155698D01*
X271923Y213688D01*
X348478Y152486D02*
X347324Y158528D01*
X348478Y152486D02*
X337975Y150247D01*
X332078Y161173D01*
X510382Y166140D02*
X509926Y161007D01*
X518519Y156299D02*
X509926Y161007D01*
X522062Y154331D02*
X518519Y156299D01*
X524031Y153937D02*
X522062Y154331D01*
X525248Y154734D02*
X524031Y153937D01*
X576060Y188786D02*
X574247Y190893D01*
X207171Y2096D02*
X204174Y3301D01*
X585514Y57225D02*
X574282Y65459D01*
X563651Y74434D01*
X588924Y56007D02*
X585514Y57225D01*
X670005Y88737D02*
X667346Y85266D01*
X670947Y91165D02*
X670005Y88737D01*
X671187Y93981D02*
X670947Y91165D01*
X593034Y55107D02*
X588924Y56007D01*
X671187Y93981D02*
X670393Y97129D01*
X668233Y100555D01*
X667346Y85266D02*
X665870Y84010D01*
X598612Y54567D02*
X593034Y55107D01*
X637252Y289978D02*
X637250D01*
X583530Y258961D02*
Y258962D01*
Y258961D02*
X581426Y260610D01*
X579030Y261708D02*
X573685Y262280D01*
X581426Y260610D02*
X579030Y261708D01*
X668267Y174226D02*
X583530Y258962D01*
X668267Y174226D02*
X637250Y289978D01*
X637122Y295248D02*
X636874Y292623D01*
X649057Y306768D02*
X643405Y304184D01*
X639300Y300163D01*
X637122Y295248D01*
X637252Y289978D02*
X636874Y292623D01*
X666681Y300608D02*
X665155Y302758D01*
X655246Y307355D02*
X649057Y306768D01*
X696986Y118177D02*
X694258Y116600D01*
X665155Y302758D02*
X660812Y305926D01*
X655246Y307355D01*
X667676Y298128D02*
X666681Y300608D01*
X667685Y298080D02*
X667676Y298128D01*
X665870Y84010D02*
X660650Y80366D01*
X633571Y64316D01*
X623137Y59262D01*
X613765Y56229D01*
X605556Y54803D01*
X598612Y54567D01*
X705169Y122900D02*
X702442Y121323D01*
X694258Y116600D02*
X687807Y110145D01*
X713992Y125263D02*
X705169Y122900D01*
X713992Y125263D02*
X667685Y298080D01*
X204174Y3301D02*
X201518Y4982D01*
X197412Y9468D01*
X574247Y190893D02*
X572028Y192641D01*
X350773Y42820D02*
X348310Y50719D01*
X345031Y67051D02*
X341695Y83273D01*
X348310Y50719D02*
X345031Y67051D01*
X354235Y35265D02*
X350773Y42820D01*
X298619Y156839D02*
X298473Y165413D01*
X308153Y187792D02*
X305705Y186047D01*
X303353Y182824D01*
X301109Y177977D01*
X299388Y172093D01*
X259958Y185813D02*
X253658D01*
X299388Y172093D02*
X298473Y165413D01*
X263108Y211054D02*
X259958D01*
X347583Y163025D02*
X347324Y158528D01*
X348511Y167252D02*
X347583Y163025D01*
X351498Y174886D02*
X348511Y167252D01*
X354619Y180688D02*
X351498Y174886D01*
X387934Y176102D02*
X385525Y176652D01*
X380854Y178928D01*
X365772Y187571D02*
X363281Y187305D01*
X358452Y185079D02*
X356379Y183225D01*
X363281Y187305D02*
X358452Y185079D01*
X374645Y183330D02*
X368251Y186935D01*
X380854Y178928D02*
X374645Y183330D01*
X356379Y183225D02*
X354619Y180688D01*
X368251Y186935D02*
X365772Y187571D01*
X359034Y28176D02*
X354235Y35265D01*
X376463Y14603D02*
X373344Y16617D01*
X365508Y21678D02*
X359034Y28176D01*
X368047Y20038D02*
X365508Y21678D01*
X287822Y11732D02*
X287820D01*
X288818Y8966D02*
X287822Y11732D01*
X290345Y6568D02*
X288818Y8966D01*
X318622Y17880D02*
X318375Y14952D01*
X316198Y9468D01*
X318622Y17880D02*
X318244Y20831D01*
X318230Y20882D01*
X387018Y10180D02*
X376463Y14603D01*
X302629Y141410D02*
X300649Y146821D01*
X305388Y135807D02*
X302629Y141410D01*
X309031Y130067D02*
X305388Y135807D01*
X313660Y124246D02*
X309031Y130067D01*
X321309Y179481D02*
X315920Y185627D01*
X310681Y188206D02*
X308153Y187792D01*
X319377Y118401D02*
X313660Y124246D01*
X315920Y185627D02*
X313274Y187436D01*
X287820Y11732D02*
X256805Y140874D01*
X271923Y213688D02*
X263108Y211054D01*
X313274Y187436D02*
X310681Y188206D01*
X335959Y100219D02*
X333353Y105429D01*
X326287Y112588D02*
X319377Y118401D01*
X332078Y161173D02*
X326733Y170939D01*
X327585Y112129D02*
X326287Y112588D01*
X326733Y170939D02*
X321309Y179481D01*
X333353Y105429D02*
X331032Y108922D01*
X327585Y112129D01*
X341695Y83273D02*
X338768Y92948D01*
X335959Y100219D01*
X253658Y211054D02*
X250509D01*
X241687Y213688D01*
X195380Y20882D01*
X256805Y140874D02*
X225790Y11732D01*
X197412Y9468D02*
X195235Y14952D01*
X225789Y11732D02*
X224792Y8966D01*
X195367Y20831D02*
X194988Y17880D01*
X195380Y20882D02*
X195367Y20831D01*
X225790Y11732D02*
X225789D01*
X224792Y8966D02*
X223266Y6568D01*
X195235Y14952D02*
X194988Y17880D01*
X551556Y224604D02*
X549594Y226438D01*
X559625Y218589D02*
X551556Y224604D01*
X544602Y229874D02*
X541077Y231564D01*
X536923Y232901D01*
X541134Y212201D02*
X534685Y214018D01*
X546717Y209143D02*
X541134Y212201D01*
X549594Y226438D02*
X544602Y229874D01*
X492649Y245624D02*
X491963Y248880D01*
X490577Y252049D01*
X492649Y245624D02*
X492224Y238986D01*
X489895Y232396D01*
X486257Y226118D02*
X481905Y220416D01*
X490577Y252049D02*
X481747Y269214D01*
X489895Y232396D02*
X486257Y226118D01*
X395124Y249175D02*
X392363Y246662D01*
X396667Y249491D02*
X395124Y249175D01*
X396951Y224232D02*
X396092Y217752D01*
X399820Y236751D02*
X396951Y224232D01*
X398181Y248776D02*
X396667Y249491D01*
X399578Y246379D02*
X398181Y248776D01*
X396094Y211085D02*
X396092Y217752D01*
X400267Y243298D02*
X399820Y236751D01*
X400267Y243298D02*
X399578Y246379D01*
X506494Y258142D02*
X505341Y260140D01*
X519816Y272779D02*
X511370Y260269D01*
X509741Y258198D01*
X507919Y256725D01*
X506494Y258142D01*
X505341Y260140D02*
X499887Y273317D01*
X372089Y235253D02*
X366780Y244328D01*
X381078Y226152D02*
X378215Y227718D01*
X389913Y242312D02*
X387957Y237339D01*
X378215Y227718D02*
X375006Y231179D01*
X392363Y246662D02*
X389913Y242312D01*
X387957Y237339D02*
X386068Y232276D01*
X383820Y227656D01*
X382537Y226358D01*
X381078Y226152D01*
X375006Y231179D02*
X372089Y235253D01*
X366780Y244328D02*
X364840Y250084D01*
X540776Y299326D02*
X537936Y299616D01*
X535135Y298591D01*
X532616Y296418D01*
X544789Y276090D02*
X541399Y267707D01*
X545954Y280711D02*
X544789Y276090D01*
X546559Y285621D02*
X545954Y280711D01*
X529905Y291701D02*
X527555Y286440D01*
X519816Y272779D01*
X526271Y246550D02*
X525843Y245960D01*
X534366Y256144D02*
X526271Y246550D01*
X541399Y267707D02*
X534366Y256144D01*
X546005Y292340D02*
X544976Y295284D01*
X543414Y297558D01*
X546559Y285621D02*
X546005Y292340D01*
X532616Y296418D02*
X529905Y291701D01*
X543414Y297558D02*
X540776Y299326D01*
X524831Y243879D02*
X523231Y239372D01*
X515997Y215268D02*
X512454Y213610D01*
X505944Y209319D01*
X527139Y215115D02*
X523394Y216285D01*
X525843Y245960D02*
X524831Y243879D01*
X536923Y232901D02*
X532183Y233632D01*
X526900Y233507D01*
X524450Y233766D01*
X523202Y235047D01*
X522886Y237024D01*
X523231Y239372D02*
X522886Y237024D01*
X523394Y216285D02*
X519662Y216248D01*
X534685Y214018D02*
X527139Y215115D01*
X519662Y216248D02*
X515997Y215268D01*
X559484Y252067D02*
X557939Y246532D01*
X564559Y213637D02*
X559625Y218589D01*
X558511Y241187D02*
X557939Y246532D01*
X559610Y238791D02*
X558511Y241187D01*
X566153Y210029D02*
X564559Y213637D01*
X563088Y257132D02*
X559484Y252067D01*
X348489Y233977D02*
X347342Y235657D01*
X348847Y231640D02*
X348418Y229871D01*
X347543Y228685D01*
X361903Y212563D02*
X359320Y212488D01*
X364473Y212028D02*
X361903Y212563D01*
X368514Y209645D02*
X364473Y212028D01*
X347543Y228685D02*
X345266Y227732D01*
X348847Y231640D02*
X348489Y233977D01*
X359320Y212488D02*
X354204Y211174D01*
X476794Y287758D02*
X476772Y284776D01*
X481747Y269214D02*
X477503Y280777D01*
X476772Y284776D01*
X477438Y289850D02*
X476794Y287758D01*
X480062Y291874D02*
X478571Y291179D01*
X489512Y289694D02*
X485376Y291428D01*
X481781Y292062D01*
X480062Y291874D01*
X497064Y279771D02*
X493639Y285429D01*
X478571Y291179D02*
X477438Y289850D01*
X499887Y273317D02*
X497064Y279771D01*
X493639Y285429D02*
X489512Y289694D01*
X360307Y286101D02*
X357827Y279650D01*
X370202Y296160D02*
X368371Y295835D01*
X366647Y294839D01*
X357827Y279650D02*
X356059Y273043D01*
X373812Y280828D02*
X371437Y275153D01*
X374102Y293480D02*
X372305Y295466D01*
X375440Y287103D02*
X373812Y280828D01*
X375257Y290570D02*
X374102Y293480D01*
X375440Y287103D02*
X375257Y290570D01*
X363556Y291589D02*
X360307Y286101D01*
X372305Y295466D02*
X370202Y296160D01*
X366647Y294839D02*
X363556Y291589D01*
X352115Y263557D02*
X350828Y262833D01*
X354101Y266589D02*
X352115Y263557D01*
X349440Y262839D02*
X346811Y263888D01*
X364840Y250084D02*
X364816Y256611D01*
X365973Y261659D02*
X364816Y256611D01*
X367611Y266330D02*
X365973Y261659D01*
X371437Y275153D02*
X367611Y266330D01*
X350828Y262833D02*
X349440Y262839D01*
X356059Y273043D02*
X354101Y266589D01*
X454760Y219472D02*
X453091Y224815D01*
X464616Y226325D02*
X462625Y230212D01*
X460203Y233414D01*
X458256Y234623D01*
X456152Y234609D01*
X454274Y233302D01*
X453003Y230631D01*
X452713Y227677D01*
X477434Y215553D02*
X470513Y209397D01*
X470939Y210825D02*
X470513Y209397D01*
X470939Y210825D02*
X470062Y212878D01*
X467641Y217449D01*
X457597Y208757D02*
X454760Y219472D01*
X467641Y217449D02*
X464616Y226325D01*
X481905Y220416D02*
X477434Y215553D01*
X453091Y224815D02*
X452713Y227677D01*
X213359Y1441D02*
X210305Y1468D01*
X221285Y4578D02*
X218923Y3035D01*
X223266Y6568D02*
X221285Y4578D01*
X294688Y3035D02*
X292326Y4578D01*
X210305Y1468D02*
X207171Y2096D01*
X218923Y3035D02*
X213359Y1441D01*
X306440Y2096D02*
X303306Y1468D01*
X300253Y1441D02*
X294688Y3035D01*
X292326Y4578D02*
X290345Y6568D01*
X312093Y4982D02*
X309436Y3301D01*
X316198Y9468D02*
X312093Y4982D01*
X309436Y3301D02*
X306440Y2096D01*
X572028Y192641D02*
X568979Y194066D01*
X565130Y194577D01*
X560513Y193584D01*
X555162Y190498D01*
X549109Y184727D01*
X566153Y210029D02*
X565928Y208687D01*
X565143Y207631D01*
X549738Y207483D02*
X546717Y209143D01*
X553826Y206369D02*
X549738Y207483D01*
X558245Y205933D02*
X553826Y206369D01*
X562262Y206310D02*
X558245Y205933D01*
X568152Y260735D02*
X563088Y257132D01*
X565143Y207631D02*
X562262Y206310D01*
X573685Y262280D02*
X568152Y260735D01*
X399948Y6605D02*
X387018Y10180D01*
X420585Y2626D02*
X399948Y6605D01*
X460492Y-809D02*
X440960Y0D01*
X420585Y2626D01*
X490896Y3544D02*
X487606Y2773D01*
X478603Y663D02*
X469762Y-387D01*
X481460Y1334D02*
X478603Y663D01*
X544719Y93117D02*
X536226Y85168D01*
X530979Y81395D01*
X553752Y83778D02*
X544719Y93117D01*
X527349Y53582D02*
X527147Y67011D01*
X525331Y78414D01*
X530979Y81395D02*
X525331Y78414D01*
X563651Y74434D02*
X553752Y83778D01*
X498382Y6437D02*
X490896Y3544D01*
X542903Y176645D02*
X541016Y174188D01*
X549109Y184727D02*
X546948Y181913D01*
X469762Y-387D02*
X460492Y-809D01*
X516411Y20399D02*
X511213Y14804D01*
X526241Y43546D02*
X523999Y34710D01*
X520697Y27014D01*
X516411Y20399D01*
X511213Y14804D02*
X505179Y10170D01*
X498382Y6437D01*
X527349Y53582D02*
X526241Y43546D01*
X321854Y306089D02*
X319278Y307094D01*
X316605Y306640D01*
X326291Y301250D02*
X324227Y304012D01*
X321854Y306089D01*
X316605Y306640D02*
X314609Y305206D01*
X312825Y303104D01*
X330072Y294120D02*
X326291Y301250D01*
X333223Y286211D02*
X330072Y294120D01*
X312825Y303104D02*
X311432Y300385D01*
X303306Y1468D02*
X300253Y1441D01*
X310609Y297103D02*
X310512Y291670D01*
X311438Y286403D02*
X310512Y291670D01*
X311432Y300385D02*
X310609Y297103D01*
X413392Y197871D02*
X413233Y196564D01*
X415696Y198156D02*
X414039Y198475D01*
X413392Y197871D01*
X417866Y180089D02*
X415771Y181345D01*
X415597Y188362D02*
X413233Y196564D01*
X407793Y189575D02*
X400413Y199121D01*
X415771Y181345D02*
X407793Y189575D01*
X417866Y180089D02*
X415597Y188362D01*
X509356Y175041D02*
X508035Y179049D01*
X446669Y173025D02*
X444413Y173093D01*
X452067Y179032D02*
X446669Y173025D01*
X447829Y179994D02*
X444413Y173093D01*
X508035Y179049D02*
X506220Y182525D01*
X502825Y186710D01*
X483455Y186275D02*
X477323Y179017D01*
X486855Y188971D02*
X483455Y186275D01*
X477323Y179017D02*
X474909Y175707D01*
X468380Y175293D02*
X463963Y169525D01*
X474909Y175707D02*
X472183Y173207D01*
X463963Y169525D01*
X476887Y185204D02*
X468380Y175293D01*
X498942Y189610D02*
X494768Y190997D01*
X502825Y186710D02*
X498942Y189610D01*
X485777Y194185D02*
X476887Y185204D01*
X487271Y195103D02*
X485777Y194185D01*
X494768Y190997D02*
X490505Y190647D01*
X486855Y188971D01*
X510382Y166140D02*
X509356Y175041D01*
X534340Y166718D02*
X525248Y154734D01*
X541016Y174188D02*
X534340Y166718D01*
X448969Y191718D02*
X445756Y189931D01*
X441334Y185692D01*
X437416Y180332D01*
X458957Y197331D02*
X458530Y191485D01*
X451795Y186089D02*
X447829Y179994D01*
X437416Y180332D02*
X436087Y188401D01*
X458957Y197331D02*
X457597Y208757D01*
X452928Y190045D02*
X452911Y188626D01*
X452928Y190045D02*
X452276Y191195D01*
X450644Y191884D01*
X448969Y191718D01*
X452911Y188626D02*
X451795Y186089D01*
X458530Y191485D02*
X456806Y186317D01*
X452067Y179032D01*
X500560Y205488D02*
X493653Y200598D01*
X487271Y195103D01*
X424598Y201946D02*
X423966Y199607D01*
X426128Y202618D02*
X424598Y201946D01*
X428233Y201774D02*
X426128Y202618D01*
X433366Y195438D02*
X430126Y200115D01*
X428233Y201774D01*
X505944Y209319D02*
X500560Y205488D01*
X418562Y195993D02*
X415696Y198156D01*
X336349Y278267D02*
X333223Y286211D01*
X332611Y206256D02*
X324787Y207906D01*
X345266Y227732D02*
X325909Y233171D01*
X340050Y271032D02*
X336349Y278267D01*
X341137Y240799D02*
X333997Y246793D01*
X344336Y265680D02*
X340050Y271032D01*
X338097Y205908D02*
X332611Y206256D01*
X333997Y246793D02*
X327376Y254161D01*
X400428Y178422D02*
X395412Y177160D01*
X390376Y176158D01*
X400428Y178422D02*
X372265Y206185D01*
X397583Y204504D02*
X396094Y211085D01*
X400413Y199121D02*
X397583Y204504D01*
X390376Y176158D02*
X387934Y176102D01*
X372265Y206185D02*
X368514Y209645D01*
X425653Y185878D02*
X424845Y192757D01*
X434939Y192129D02*
X433366Y195438D01*
X436087Y188401D02*
X434939Y192129D01*
X425653Y185878D02*
X421199Y193148D01*
X424845Y192757D02*
X423966Y199607D01*
X421199Y193148D02*
X418562Y195993D01*
X343517Y207063D02*
X338097Y205908D01*
X354204Y211174D02*
X343517Y207063D01*
X347342Y235657D02*
X341137Y240799D01*
X346811Y263888D02*
X344336Y265680D01*
X322615Y261375D02*
X318320Y269343D01*
X319243Y211812D02*
X317348Y213880D01*
X323372Y208496D02*
X319243Y211812D01*
X314907Y224258D02*
X314858Y220301D01*
X325909Y233171D02*
X321616Y232919D01*
X319530Y232188D01*
X317586Y230729D01*
X315849Y227930D01*
X314907Y224258D01*
X315801Y216643D02*
X314858Y220301D01*
X317348Y213880D02*
X315801Y216643D01*
X327376Y254161D02*
X322615Y261375D01*
X318320Y269343D02*
X314507Y277488D01*
X324787Y207906D02*
X323372Y208496D01*
X314507Y277488D02*
X311438Y286403D01*
D14*
X442141Y153543D02*
D03*
X423440D02*
D03*
D56*
X696953Y143101D02*
D03*
D57*
X555245Y147643D02*
D03*
M02*
