M48
;Layer_Color=9474304
;FILE_FORMAT=2:5
INCH,LZ
;TYPE=PLATED
T01F00S00C0.01181
T02F00S00C0.02756
T04F00S00C0.03150
T05F00S00C0.03543
T06F00S00C0.15748
%
T01
X010321Y0181462
X0104781Y0183033
X010637Y0184622
X0107931Y0186183
X0120353Y0166495
X0122029Y0168099
X0123705Y0169704
X0125342Y0171271
X019598Y0152233
X0197166Y015029
X0198303Y0148427
X0199318Y0146418
X0200246Y0144431
X020122Y0142346
X0213203Y0148863
X0212359Y0150941
X0211504Y0153045
X0210937Y0155211
X0210423Y0157369
X0209903Y0159555
X0224803Y0079134
X0232677Y0080709
X0234252Y006811
X022559Y0067716
X0368066Y0144479
X0369034Y0146627
X0369949Y0148659
X0370892Y0150752
X0380852Y0148628
X0379809Y0146696
X0378703Y0144647
X0377627Y0142653
X041933Y0148195
X0419765Y0150344
X0420212Y0152547
X042067Y0154807
X0433517Y0154312
X0432963Y0152006
X0432399Y0149661
X0431874Y0147474
T02
X0372283Y010081
X037561Y0107946
X0378938Y0115082
T04
X0387039Y0143371
X0395699Y0138372
X040436Y0133371
T05
X0287008Y0025591
X0119342Y0090603
X01405Y011176
X0060244Y0097236
X0067315Y0090165
X0287008Y0104331
T06
X0131473Y0154493
M30
