G04*
G04 #@! TF.GenerationSoftware,Altium Limited,Altium Designer,25.1.2 (22)*
G04*
G04 Layer_Physical_Order=1*
G04 Layer_Color=3394611*
%FSLAX25Y25*%
%MOIN*%
G70*
G04*
G04 #@! TF.SameCoordinates,B79DADAE-6871-4A3D-A662-253F8C0C8E9A*
G04*
G04*
G04 #@! TF.FilePolarity,Positive*
G04*
G01*
G75*
%ADD10C,0.00394*%
%ADD11C,0.00787*%
%ADD14R,0.09843X0.19685*%
G04:AMPARAMS|DCode=15|XSize=98.43mil|YSize=196.85mil|CornerRadius=0mil|HoleSize=0mil|Usage=FLASHONLY|Rotation=164.000|XOffset=0mil|YOffset=0mil|HoleType=Round|Shape=Rectangle|*
%AMROTATEDRECTD15*
4,1,4,0.07444,0.08105,0.02018,-0.10818,-0.07444,-0.08105,-0.02018,0.10818,0.07444,0.08105,0.0*
%
%ADD15ROTATEDRECTD15*%

G04:AMPARAMS|DCode=16|XSize=98.43mil|YSize=157.48mil|CornerRadius=0mil|HoleSize=0mil|Usage=FLASHONLY|Rotation=210.000|XOffset=0mil|YOffset=0mil|HoleType=Round|Shape=Rectangle|*
%AMROTATEDRECTD16*
4,1,4,0.00325,0.09280,0.08199,-0.04359,-0.00325,-0.09280,-0.08199,0.04359,0.00325,0.09280,0.0*
%
%ADD16ROTATEDRECTD16*%

G04:AMPARAMS|DCode=17|XSize=98.43mil|YSize=196.85mil|CornerRadius=0mil|HoleSize=0mil|Usage=FLASHONLY|Rotation=150.000|XOffset=0mil|YOffset=0mil|HoleType=Round|Shape=Rectangle|*
%AMROTATEDRECTD17*
4,1,4,0.09183,0.06063,-0.00659,-0.10985,-0.09183,-0.06063,0.00659,0.10985,0.09183,0.06063,0.0*
%
%ADD17ROTATEDRECTD17*%

G04:AMPARAMS|DCode=18|XSize=98.43mil|YSize=196.85mil|CornerRadius=0mil|HoleSize=0mil|Usage=FLASHONLY|Rotation=145.000|XOffset=0mil|YOffset=0mil|HoleType=Round|Shape=Rectangle|*
%AMROTATEDRECTD18*
4,1,4,0.09677,0.05240,-0.01614,-0.10885,-0.09677,-0.05240,0.01614,0.10885,0.09677,0.05240,0.0*
%
%ADD18ROTATEDRECTD18*%

G04:AMPARAMS|DCode=19|XSize=118.11mil|YSize=236.22mil|CornerRadius=0mil|HoleSize=0mil|Usage=FLASHONLY|Rotation=45.000|XOffset=0mil|YOffset=0mil|HoleType=Round|Shape=Rectangle|*
%AMROTATEDRECTD19*
4,1,4,0.04176,-0.12528,-0.12528,0.04176,-0.04176,0.12528,0.12528,-0.04176,0.04176,-0.12528,0.0*
%
%ADD19ROTATEDRECTD19*%

G04:AMPARAMS|DCode=20|XSize=157.48mil|YSize=196.85mil|CornerRadius=0mil|HoleSize=0mil|Usage=FLASHONLY|Rotation=5.000|XOffset=0mil|YOffset=0mil|HoleType=Round|Shape=Rectangle|*
%AMROTATEDRECTD20*
4,1,4,-0.06986,-0.10491,-0.08702,0.09119,0.06986,0.10491,0.08702,-0.09119,-0.06986,-0.10491,0.0*
%
%ADD20ROTATEDRECTD20*%

%ADD40C,0.03937*%
%ADD41C,0.01968*%
%ADD42C,0.01000*%
%ADD43C,0.05906*%
G04:AMPARAMS|DCode=44|XSize=51.18mil|YSize=51.18mil|CornerRadius=12.8mil|HoleSize=0mil|Usage=FLASHONLY|Rotation=65.000|XOffset=0mil|YOffset=0mil|HoleType=Round|Shape=RoundedRectangle|*
%AMROUNDEDRECTD44*
21,1,0.05118,0.02559,0,0,65.0*
21,1,0.02559,0.05118,0,0,65.0*
1,1,0.02559,0.01700,0.00619*
1,1,0.02559,0.00619,-0.01700*
1,1,0.02559,-0.01700,-0.00619*
1,1,0.02559,-0.00619,0.01700*
%
%ADD44ROUNDEDRECTD44*%
%ADD45C,0.05118*%
G04:AMPARAMS|DCode=46|XSize=86.61mil|YSize=47.24mil|CornerRadius=11.81mil|HoleSize=0mil|Usage=FLASHONLY|Rotation=155.000|XOffset=0mil|YOffset=0mil|HoleType=Round|Shape=RoundedRectangle|*
%AMROUNDEDRECTD46*
21,1,0.08661,0.02362,0,0,155.0*
21,1,0.06299,0.04724,0,0,155.0*
1,1,0.02362,-0.02355,0.02402*
1,1,0.02362,0.03354,-0.00261*
1,1,0.02362,0.02355,-0.02402*
1,1,0.02362,-0.03354,0.00261*
%
%ADD46ROUNDEDRECTD46*%
%ADD47C,0.05906*%
%ADD48P,0.08352X4X360.0*%
%ADD49C,0.06299*%
%ADD50C,0.01181*%
%ADD51C,0.15748*%
G04:AMPARAMS|DCode=52|XSize=78.74mil|YSize=55.12mil|CornerRadius=0mil|HoleSize=0mil|Usage=FLASHONLY|Rotation=60.000|XOffset=0mil|YOffset=0mil|HoleType=Round|Shape=Round|*
%AMOVALD52*
21,1,0.02362,0.05512,0.00000,0.00000,60.0*
1,1,0.05512,-0.00591,-0.01023*
1,1,0.05512,0.00591,0.01023*
%
%ADD52OVALD52*%

G04:AMPARAMS|DCode=53|XSize=60mil|YSize=60mil|CornerRadius=15mil|HoleSize=0mil|Usage=FLASHONLY|Rotation=135.000|XOffset=0mil|YOffset=0mil|HoleType=Round|Shape=RoundedRectangle|*
%AMROUNDEDRECTD53*
21,1,0.06000,0.03000,0,0,135.0*
21,1,0.03000,0.06000,0,0,135.0*
1,1,0.03000,0.00000,0.02121*
1,1,0.03000,0.02121,0.00000*
1,1,0.03000,0.00000,-0.02121*
1,1,0.03000,-0.02121,0.00000*
%
%ADD53ROUNDEDRECTD53*%
%ADD54C,0.06000*%
%ADD55C,0.02362*%
G36*
X147498Y115619D02*
X147445Y115665D01*
X147381Y115707D01*
X147305Y115746D01*
X147218Y115781D01*
X147120Y115814D01*
X147011Y115842D01*
X146759Y115889D01*
X146616Y115908D01*
X146462Y115923D01*
X148586Y118047D01*
X148601Y117893D01*
X148667Y117498D01*
X148695Y117389D01*
X148728Y117291D01*
X148763Y117204D01*
X148802Y117128D01*
X148844Y117064D01*
X148890Y117011D01*
X147498Y115619D01*
D02*
G37*
G36*
X159797Y112402D02*
X159263Y112392D01*
X158354Y112314D01*
X157978Y112246D01*
X157656Y112158D01*
X157386Y112050D01*
X157169Y111924D01*
X157005Y111777D01*
X156894Y111611D01*
X156835Y111426D01*
X157481Y115346D01*
X160442Y114370D01*
X159797Y112402D01*
D02*
G37*
G36*
X291475Y27273D02*
X291224Y27019D01*
X290367Y26045D01*
X290275Y25910D01*
X290209Y25794D01*
X290170Y25698D01*
X290157Y25622D01*
X287039Y28740D01*
X287115Y28753D01*
X287211Y28792D01*
X287327Y28857D01*
X287462Y28949D01*
X287618Y29068D01*
X287987Y29384D01*
X288691Y30057D01*
X291475Y27273D01*
D02*
G37*
G36*
X382618Y139806D02*
X383719Y142548D01*
X386360Y139613D01*
X386218Y139733D01*
X386055Y139798D01*
X385870Y139810D01*
X385665Y139767D01*
X385438Y139671D01*
X385190Y139521D01*
X384922Y139317D01*
X384632Y139059D01*
X384320Y138747D01*
X383988Y138382D01*
X382618Y139806D01*
D02*
G37*
D10*
X28060Y140033D02*
X33514Y136883D01*
X340969Y25947D02*
X346425Y29096D01*
X237287Y19760D02*
X243311Y17919D01*
X154271Y154517D02*
X159492Y150993D01*
X346425Y29096D02*
X351654Y20038D01*
X340969Y25947D02*
X346356Y16617D01*
X238240Y1334D02*
X243311Y17919D01*
X232094Y2773D02*
X237287Y19760D01*
X466042Y185813D02*
Y211054D01*
X459742Y185813D02*
X459742Y211054D01*
X159492Y150993D02*
X176797Y176645D01*
X154271Y154517D02*
X172752Y181913D01*
X22714Y118177D02*
X33514Y136883D01*
X17258Y121322D02*
X28060Y140033D01*
X109397Y187648D02*
X158440Y236689D01*
X160090Y238791D01*
X51467Y100555D02*
X118882Y165087D01*
X101532Y179784D02*
X118882Y165087D01*
X31893Y110145D02*
X101532Y179784D01*
X109397Y187648D02*
X126622Y172496D01*
X143640Y188786D01*
X401470Y20882D02*
X431514Y145975D01*
X419051Y146821D02*
X431514Y145975D01*
X421082Y156839D02*
X433849Y155698D01*
X447777Y213688D01*
X371223Y152486D02*
X372376Y158528D01*
X371223Y152486D02*
X381725Y150247D01*
X387622Y161173D01*
X209318Y166140D02*
X209774Y161007D01*
X201181Y156299D02*
X209774Y161007D01*
X197638Y154331D02*
X201181Y156299D01*
X195669Y153937D02*
X197638Y154331D01*
X194453Y154734D02*
X195669Y153937D01*
X143640Y188786D02*
X145453Y190893D01*
X512530Y2096D02*
X515526Y3301D01*
X134186Y57225D02*
X145418Y65459D01*
X156050Y74434D01*
X130776Y56007D02*
X134186Y57225D01*
X49695Y88737D02*
X52354Y85266D01*
X48753Y91165D02*
X49695Y88737D01*
X48513Y93981D02*
X48753Y91165D01*
X126666Y55107D02*
X130776Y56007D01*
X48513Y93981D02*
X49307Y97129D01*
X51467Y100555D01*
X52354Y85266D02*
X53831Y84010D01*
X121088Y54567D02*
X126666Y55107D01*
X82449Y289978D02*
X82450D01*
X136171Y258961D02*
Y258962D01*
Y258961D02*
X138274Y260610D01*
X140671Y261708D02*
X146016Y262280D01*
X138274Y260610D02*
X140671Y261708D01*
X51433Y174226D02*
X136171Y258962D01*
X51433Y174226D02*
X82450Y289978D01*
X82578Y295248D02*
X82826Y292623D01*
X70643Y306768D02*
X76295Y304184D01*
X80401Y300163D01*
X82578Y295248D01*
X82449Y289978D02*
X82826Y292623D01*
X53019Y300608D02*
X54545Y302758D01*
X64455Y307355D02*
X70643Y306768D01*
X22714Y118177D02*
X25442Y116600D01*
X54545Y302758D02*
X58889Y305926D01*
X64455Y307355D01*
X52024Y298128D02*
X53019Y300608D01*
X52015Y298080D02*
X52024Y298128D01*
X53831Y84010D02*
X59050Y80366D01*
X86129Y64316D01*
X96563Y59262D01*
X105935Y56229D01*
X114144Y54803D01*
X121088Y54567D01*
X14531Y122900D02*
X17258Y121323D01*
X25442Y116600D02*
X31893Y110145D01*
X5708Y125263D02*
X14531Y122900D01*
X5708Y125263D02*
X52015Y298080D01*
X515526Y3301D02*
X518183Y4982D01*
X522288Y9468D01*
X145453Y190893D02*
X147672Y192641D01*
X368928Y42820D02*
X371390Y50719D01*
X374669Y67051D02*
X378005Y83273D01*
X371390Y50719D02*
X374669Y67051D01*
X365465Y35265D02*
X368928Y42820D01*
X421082Y156839D02*
X421227Y165413D01*
X411547Y187792D02*
X413995Y186047D01*
X416347Y182824D01*
X418591Y177977D01*
X420312Y172093D01*
X459742Y185813D02*
X466042D01*
X420312Y172093D02*
X421227Y165413D01*
X456592Y211054D02*
X459742D01*
X372117Y163025D02*
X372376Y158528D01*
X371189Y167252D02*
X372117Y163025D01*
X368202Y174886D02*
X371189Y167252D01*
X365081Y180688D02*
X368202Y174886D01*
X331766Y176102D02*
X334176Y176652D01*
X338847Y178928D01*
X353929Y187571D02*
X356419Y187305D01*
X361248Y185079D02*
X363321Y183225D01*
X356419Y187305D02*
X361248Y185079D01*
X345055Y183330D02*
X351449Y186935D01*
X338847Y178928D02*
X345055Y183330D01*
X363321Y183225D02*
X365081Y180688D01*
X351449Y186935D02*
X353929Y187571D01*
X360666Y28176D02*
X365465Y35265D01*
X343237Y14603D02*
X346356Y16617D01*
X354192Y21678D02*
X360666Y28176D01*
X351654Y20038D02*
X354192Y21678D01*
X431878Y11732D02*
X431880D01*
X430882Y8966D02*
X431878Y11732D01*
X429355Y6568D02*
X430882Y8966D01*
X401078Y17880D02*
X401325Y14952D01*
X403502Y9468D01*
X401078Y17880D02*
X401456Y20831D01*
X401470Y20882D01*
X332682Y10180D02*
X343237Y14603D01*
X417071Y141410D02*
X419051Y146821D01*
X414312Y135807D02*
X417071Y141410D01*
X410669Y130067D02*
X414312Y135807D01*
X406040Y124246D02*
X410669Y130067D01*
X398391Y179481D02*
X403780Y185627D01*
X409020Y188206D02*
X411547Y187792D01*
X400323Y118401D02*
X406040Y124246D01*
X403780Y185627D02*
X406426Y187436D01*
X431880Y11732D02*
X462895Y140874D01*
X447777Y213688D02*
X456592Y211054D01*
X406426Y187436D02*
X409020Y188206D01*
X383741Y100219D02*
X386348Y105429D01*
X393413Y112588D02*
X400323Y118401D01*
X387622Y161173D02*
X392967Y170939D01*
X392115Y112129D02*
X393413Y112588D01*
X392967Y170939D02*
X398391Y179481D01*
X386348Y105429D02*
X388668Y108922D01*
X392115Y112129D01*
X378005Y83273D02*
X380932Y92948D01*
X383741Y100219D01*
X466042Y211054D02*
X469191D01*
X478013Y213688D01*
X524320Y20882D01*
X462895Y140874D02*
X493910Y11732D01*
X522288Y9468D02*
X524465Y14952D01*
X493912Y11732D02*
X494908Y8966D01*
X524334Y20831D02*
X524712Y17880D01*
X524320Y20882D02*
X524334Y20831D01*
X493910Y11732D02*
X493912D01*
X494908Y8966D02*
X496434Y6568D01*
X524465Y14952D02*
X524712Y17880D01*
X168144Y224604D02*
X170106Y226438D01*
X160075Y218589D02*
X168144Y224604D01*
X175098Y229874D02*
X178623Y231564D01*
X182777Y232901D01*
X178566Y212201D02*
X185015Y214018D01*
X172983Y209143D02*
X178566Y212201D01*
X170106Y226438D02*
X175098Y229874D01*
X227051Y245624D02*
X227738Y248880D01*
X229123Y252049D01*
X227051Y245624D02*
X227476Y238986D01*
X229805Y232396D01*
X233443Y226118D02*
X237795Y220416D01*
X229123Y252049D02*
X237953Y269214D01*
X229805Y232396D02*
X233443Y226118D01*
X324576Y249175D02*
X327337Y246662D01*
X323034Y249491D02*
X324576Y249175D01*
X322749Y224232D02*
X323608Y217752D01*
X319880Y236751D02*
X322749Y224232D01*
X321519Y248776D02*
X323034Y249491D01*
X320123Y246379D02*
X321519Y248776D01*
X323606Y211085D02*
X323608Y217752D01*
X319433Y243298D02*
X319880Y236751D01*
X319433Y243298D02*
X320123Y246379D01*
X213206Y258142D02*
X214359Y260140D01*
X199884Y272779D02*
X208330Y260269D01*
X209960Y258198D01*
X211782Y256725D01*
X213206Y258142D01*
X214359Y260140D02*
X219813Y273317D01*
X347612Y235253D02*
X352920Y244328D01*
X338622Y226152D02*
X341486Y227718D01*
X329787Y242312D02*
X331743Y237339D01*
X341486Y227718D02*
X344695Y231179D01*
X327337Y246662D02*
X329787Y242312D01*
X331743Y237339D02*
X333632Y232276D01*
X335880Y227656D01*
X337163Y226358D01*
X338622Y226152D01*
X344695Y231179D02*
X347612Y235253D01*
X352920Y244328D02*
X354860Y250084D01*
X178924Y299326D02*
X181764Y299616D01*
X184565Y298591D01*
X187084Y296418D01*
X174911Y276090D02*
X178301Y267707D01*
X173746Y280711D02*
X174911Y276090D01*
X173141Y285621D02*
X173746Y280711D01*
X189795Y291701D02*
X192146Y286440D01*
X199884Y272779D01*
X193429Y246550D02*
X193857Y245960D01*
X185334Y256144D02*
X193429Y246550D01*
X178301Y267707D02*
X185334Y256144D01*
X173695Y292340D02*
X174724Y295284D01*
X176286Y297558D01*
X173141Y285621D02*
X173695Y292340D01*
X187084Y296418D02*
X189795Y291701D01*
X176286Y297558D02*
X178924Y299326D01*
X194869Y243879D02*
X196469Y239372D01*
X203703Y215268D02*
X207246Y213610D01*
X213756Y209319D01*
X192561Y215115D02*
X196307Y216285D01*
X193857Y245960D02*
X194869Y243879D01*
X182777Y232901D02*
X187517Y233632D01*
X192800Y233507D01*
X195250Y233766D01*
X196498Y235047D01*
X196815Y237024D01*
X196469Y239372D02*
X196815Y237024D01*
X196307Y216285D02*
X200038Y216248D01*
X185015Y214018D02*
X192561Y215115D01*
X200038Y216248D02*
X203703Y215268D01*
X160216Y252067D02*
X161761Y246532D01*
X155141Y213637D02*
X160075Y218589D01*
X161189Y241187D02*
X161761Y246532D01*
X160090Y238791D02*
X161189Y241187D01*
X153547Y210029D02*
X155141Y213637D01*
X156612Y257132D02*
X160216Y252067D01*
X371211Y233977D02*
X372358Y235657D01*
X370853Y231640D02*
X371282Y229871D01*
X372157Y228685D01*
X357797Y212563D02*
X360380Y212488D01*
X355227Y212028D02*
X357797Y212563D01*
X351186Y209645D02*
X355227Y212028D01*
X372157Y228685D02*
X374434Y227732D01*
X370853Y231640D02*
X371211Y233977D01*
X360380Y212488D02*
X365497Y211174D01*
X242906Y287758D02*
X242928Y284776D01*
X237953Y269214D02*
X242197Y280777D01*
X242928Y284776D01*
X242262Y289850D02*
X242906Y287758D01*
X239638Y291874D02*
X241129Y291179D01*
X230188Y289694D02*
X234325Y291428D01*
X237919Y292062D01*
X239638Y291874D01*
X222636Y279771D02*
X226061Y285429D01*
X241129Y291179D02*
X242262Y289850D01*
X219813Y273317D02*
X222636Y279771D01*
X226061Y285429D02*
X230188Y289694D01*
X359393Y286101D02*
X361873Y279650D01*
X349498Y296160D02*
X351330Y295835D01*
X353054Y294839D01*
X361873Y279650D02*
X363641Y273043D01*
X345888Y280828D02*
X348263Y275153D01*
X345599Y293480D02*
X347395Y295466D01*
X344261Y287103D02*
X345888Y280828D01*
X344443Y290570D02*
X345599Y293480D01*
X344261Y287103D02*
X344443Y290570D01*
X356144Y291589D02*
X359393Y286101D01*
X347395Y295466D02*
X349498Y296160D01*
X353054Y294839D02*
X356144Y291589D01*
X367585Y263557D02*
X368872Y262833D01*
X365599Y266589D02*
X367585Y263557D01*
X370260Y262839D02*
X372889Y263888D01*
X354860Y250084D02*
X354884Y256611D01*
X353727Y261659D02*
X354884Y256611D01*
X352089Y266330D02*
X353727Y261659D01*
X348263Y275153D02*
X352089Y266330D01*
X368872Y262833D02*
X370260Y262839D01*
X363641Y273043D02*
X365599Y266589D01*
X264940Y219472D02*
X266609Y224815D01*
X255084Y226325D02*
X257076Y230212D01*
X259497Y233414D01*
X261444Y234623D01*
X263548Y234609D01*
X265426Y233302D01*
X266697Y230631D01*
X266987Y227677D01*
X242266Y215553D02*
X249187Y209397D01*
X248761Y210825D02*
X249187Y209397D01*
X248761Y210825D02*
X249638Y212878D01*
X252059Y217449D01*
X262103Y208757D02*
X264940Y219472D01*
X252059Y217449D02*
X255084Y226325D01*
X237795Y220416D02*
X242266Y215553D01*
X266609Y224815D02*
X266987Y227677D01*
X506342Y1441D02*
X509395Y1468D01*
X498415Y4578D02*
X500777Y3035D01*
X496434Y6568D02*
X498415Y4578D01*
X425012Y3035D02*
X427374Y4578D01*
X509395Y1468D02*
X512530Y2096D01*
X500777Y3035D02*
X506342Y1441D01*
X413260Y2096D02*
X416394Y1468D01*
X419448Y1441D02*
X425012Y3035D01*
X427374Y4578D02*
X429355Y6568D01*
X407607Y4982D02*
X410264Y3301D01*
X403502Y9468D02*
X407607Y4982D01*
X410264Y3301D02*
X413260Y2096D01*
X147672Y192641D02*
X150722Y194066D01*
X154571Y194577D01*
X159187Y193584D01*
X164538Y190498D01*
X170591Y184727D01*
X153547Y210029D02*
X153772Y208687D01*
X154557Y207631D01*
X169962Y207483D02*
X172983Y209143D01*
X165875Y206369D02*
X169962Y207483D01*
X161455Y205933D02*
X165875Y206369D01*
X157438Y206310D02*
X161455Y205933D01*
X151548Y260735D02*
X156612Y257132D01*
X154557Y207631D02*
X157438Y206310D01*
X146016Y262280D02*
X151548Y260735D01*
X319752Y6605D02*
X332682Y10180D01*
X299115Y2626D02*
X319752Y6605D01*
X259208Y-809D02*
X278740Y0D01*
X299115Y2626D01*
X228804Y3544D02*
X232094Y2773D01*
X241097Y663D02*
X249939Y-387D01*
X238240Y1334D02*
X241097Y663D01*
X174982Y93117D02*
X183474Y85168D01*
X188722Y81395D01*
X165948Y83778D02*
X174982Y93117D01*
X192351Y53582D02*
X192553Y67011D01*
X194369Y78414D01*
X188722Y81395D02*
X194369Y78414D01*
X156050Y74434D02*
X165948Y83778D01*
X221319Y6437D02*
X228804Y3544D01*
X176797Y176645D02*
X178684Y174188D01*
X170591Y184727D02*
X172752Y181913D01*
X249939Y-387D02*
X259208Y-809D01*
X203290Y20399D02*
X208487Y14804D01*
X193459Y43546D02*
X195701Y34710D01*
X199003Y27014D01*
X203290Y20399D01*
X208487Y14804D02*
X214522Y10170D01*
X221319Y6437D01*
X192351Y53582D02*
X193459Y43546D01*
X397846Y306089D02*
X400422Y307094D01*
X403095Y306640D01*
X393409Y301250D02*
X395473Y304012D01*
X397846Y306089D01*
X403095Y306640D02*
X405091Y305206D01*
X406875Y303104D01*
X389628Y294120D02*
X393409Y301250D01*
X386477Y286211D02*
X389628Y294120D01*
X406875Y303104D02*
X408268Y300385D01*
X416394Y1468D02*
X419448Y1441D01*
X409091Y297103D02*
X409188Y291670D01*
X408262Y286403D02*
X409188Y291670D01*
X408268Y300385D02*
X409091Y297103D01*
X306308Y197871D02*
X306468Y196564D01*
X304004Y198156D02*
X305661Y198475D01*
X306308Y197871D01*
X301834Y180089D02*
X303929Y181345D01*
X304103Y188362D02*
X306468Y196564D01*
X311907Y189575D02*
X319287Y199121D01*
X303929Y181345D02*
X311907Y189575D01*
X301834Y180089D02*
X304103Y188362D01*
X210344Y175041D02*
X211665Y179049D01*
X273031Y173025D02*
X275287Y173093D01*
X267634Y179032D02*
X273031Y173025D01*
X271871Y179994D02*
X275287Y173093D01*
X211665Y179049D02*
X213480Y182525D01*
X216875Y186710D01*
X236245Y186275D02*
X242377Y179017D01*
X232845Y188971D02*
X236245Y186275D01*
X242377Y179017D02*
X244791Y175707D01*
X251320Y175293D02*
X255737Y169525D01*
X244791Y175707D02*
X247518Y173207D01*
X255737Y169525D01*
X242813Y185204D02*
X251320Y175293D01*
X220759Y189610D02*
X224932Y190997D01*
X216875Y186710D02*
X220759Y189610D01*
X233923Y194185D02*
X242813Y185204D01*
X232429Y195103D02*
X233923Y194185D01*
X224932Y190997D02*
X229195Y190647D01*
X232845Y188971D01*
X209318Y166140D02*
X210344Y175041D01*
X185361Y166718D02*
X194453Y154734D01*
X178684Y174188D02*
X185361Y166718D01*
X270732Y191718D02*
X273944Y189931D01*
X278366Y185692D01*
X282284Y180332D01*
X260743Y197331D02*
X261170Y191485D01*
X267905Y186089D02*
X271871Y179994D01*
X282284Y180332D02*
X283613Y188401D01*
X260743Y197331D02*
X262103Y208757D01*
X266773Y190045D02*
X266789Y188626D01*
X266773Y190045D02*
X267425Y191195D01*
X269056Y191884D01*
X270732Y191718D01*
X266789Y188626D02*
X267905Y186089D01*
X261170Y191485D02*
X262894Y186317D01*
X267634Y179032D01*
X219140Y205488D02*
X226047Y200598D01*
X232429Y195103D01*
X295102Y201946D02*
X295734Y199607D01*
X293572Y202618D02*
X295102Y201946D01*
X291467Y201774D02*
X293572Y202618D01*
X286334Y195438D02*
X289574Y200115D01*
X291467Y201774D01*
X213756Y209319D02*
X219140Y205488D01*
X301138Y195993D02*
X304004Y198156D01*
X383352Y278267D02*
X386477Y286211D01*
X387090Y206256D02*
X394913Y207906D01*
X374434Y227732D02*
X393791Y233171D01*
X379651Y271032D02*
X383352Y278267D01*
X378563Y240799D02*
X385704Y246793D01*
X375364Y265680D02*
X379651Y271032D01*
X381603Y205908D02*
X387090Y206256D01*
X385704Y246793D02*
X392324Y254161D01*
X319272Y178422D02*
X324288Y177160D01*
X329324Y176158D01*
X319272Y178422D02*
X347435Y206185D01*
X322117Y204504D02*
X323606Y211085D01*
X319287Y199121D02*
X322117Y204504D01*
X329324Y176158D02*
X331766Y176102D01*
X347435Y206185D02*
X351186Y209645D01*
X294047Y185878D02*
X294855Y192757D01*
X284761Y192129D02*
X286334Y195438D01*
X283613Y188401D02*
X284761Y192129D01*
X294047Y185878D02*
X298501Y193148D01*
X294855Y192757D02*
X295734Y199607D01*
X298501Y193148D02*
X301138Y195993D01*
X376183Y207063D02*
X381603Y205908D01*
X365497Y211174D02*
X376183Y207063D01*
X372358Y235657D02*
X378563Y240799D01*
X372889Y263888D02*
X375364Y265680D01*
X397085Y261375D02*
X401380Y269343D01*
X400458Y211812D02*
X402352Y213880D01*
X396328Y208496D02*
X400458Y211812D01*
X404793Y224258D02*
X404843Y220301D01*
X393791Y233171D02*
X398084Y232919D01*
X400170Y232188D01*
X402114Y230729D01*
X403851Y227930D01*
X404793Y224258D01*
X403899Y216643D02*
X404843Y220301D01*
X402352Y213880D02*
X403899Y216643D01*
X392324Y254161D02*
X397085Y261375D01*
X401380Y269343D02*
X405194Y277488D01*
X394913Y207906D02*
X396328Y208496D01*
X405194Y277488D02*
X408262Y286403D01*
D11*
X434247Y152917D02*
G03*
X435091Y154312I-731J1395D01*
G01*
X431942Y154356D02*
G03*
X432232Y153401I1574J-44D01*
G01*
X433666Y150597D02*
G03*
X434537Y152006I-703J1409D01*
G01*
D02*
G03*
X434247Y152917I-1575J0D01*
G01*
X433974Y149661D02*
G03*
X433666Y150597I-1575J0D01*
G01*
X432232Y153401D02*
G03*
X431696Y151070I731J-1395D01*
G01*
Y151070D02*
G03*
X431065Y148825I703J-1409D01*
G01*
X422127Y154210D02*
G03*
X422245Y154807I-1457J597D01*
G01*
X421786Y152529D02*
G03*
X422146Y153890I-2396J1361D01*
G01*
X421786Y152529D02*
G03*
X422146Y153890I-2396J1361D01*
G01*
X421652Y151910D02*
G03*
X421786Y152529I-1440J636D01*
G01*
X421340Y150369D02*
G03*
X421663Y151664I-2433J1295D01*
G01*
X421340Y150369D02*
G03*
X421663Y151664I-2433J1295D01*
G01*
X421189Y149672D02*
G03*
X421340Y150344I-1424J672D01*
G01*
X371403Y149263D02*
G03*
X372465Y150680I-511J1489D01*
G01*
X433209Y148310D02*
G03*
X433974Y149661I-809J1351D01*
G01*
X431065Y148825D02*
G03*
X430302Y147568I809J-1351D01*
G01*
X433449Y147474D02*
G03*
X433209Y148310I-1575J0D01*
G01*
X420903Y148260D02*
G03*
X421195Y149494I-2464J1234D01*
G01*
X420903Y148260D02*
G03*
X421195Y149494I-2464J1234D01*
G01*
X379328Y149027D02*
G03*
X378640Y147751I1995J-1901D01*
G01*
X371523Y148659D02*
G03*
X371403Y149263I-1575J0D01*
G01*
X369851Y151934D02*
G03*
X369437Y150148I1041J-1182D01*
G01*
X370506Y147186D02*
G03*
X371523Y148659I-557J1473D01*
G01*
X369437Y150148D02*
G03*
X368476Y148100I511J-1489D01*
G01*
X432958Y146332D02*
G03*
X433449Y147474I-1084J1142D01*
G01*
X378640Y147751D02*
G03*
X378312Y147186I1169J-1055D01*
G01*
X378312Y147186D02*
G03*
X377472Y145629I1877J-2018D01*
G01*
X377472D02*
G03*
X377192Y145092I1231J-982D01*
G01*
X369502Y145124D02*
G03*
X370608Y146627I-469J1503D01*
G01*
X377192Y145092D02*
G03*
X376426Y143671I1935J-1962D01*
G01*
X376171Y143254D02*
G03*
X375665Y142725I1720J-2153D01*
G01*
X368476Y148100D02*
G03*
X367597Y145983I557J-1473D01*
G01*
D02*
G03*
X366492Y144531I469J-1503D01*
G01*
X369640Y144479D02*
G03*
X369502Y145124I-1575J0D01*
G01*
X212512Y155211D02*
G03*
X211768Y156549I-1575J0D01*
G01*
X211998Y157369D02*
G03*
X211237Y158718I-1575J0D01*
G01*
X211768Y156549D02*
G03*
X211998Y157369I-1344J820D01*
G01*
X213933Y150941D02*
G03*
X212942Y152404I-1575J0D01*
G01*
Y152404D02*
G03*
X213078Y153045I-1438J641D01*
G01*
X213805Y150318D02*
G03*
X213933Y150941I-1446J623D01*
G01*
X212292Y154408D02*
G03*
X212512Y155211I-1355J802D01*
G01*
X213078Y153045D02*
G03*
X212292Y154408I-1575J0D01*
G01*
X211478Y159555D02*
G03*
X211173Y160486I-1575J0D01*
G01*
X211237Y158718D02*
G03*
X211478Y159555I-1334J837D01*
G01*
X209090Y158207D02*
G03*
X209593Y156031I1334J-837D01*
G01*
X210149Y153848D02*
G03*
X210920Y151583I1355J-802D01*
G01*
Y151582D02*
G03*
X211757Y149486I1438J-641D01*
G01*
X209593Y156031D02*
G03*
X210149Y153848I1344J-820D01*
G01*
X214778Y148863D02*
G03*
X213805Y150318I-1575J0D01*
G01*
X211757Y149486D02*
G03*
X211733Y148298I1446J-623D01*
G01*
X107912Y187758D02*
G03*
X106356Y186197I20J-1575D01*
G01*
X107945Y184608D02*
G03*
X109407Y185633I-14J1575D01*
G01*
X106356Y183047D02*
G03*
X107945Y184608I15J1575D01*
G01*
X106356Y186197D02*
G03*
X104796Y184607I14J-1575D01*
G01*
X104785Y181458D02*
G03*
X106356Y183033I-4J1575D01*
G01*
X103663Y179954D02*
G03*
X104785Y181458I-452J1508D01*
G01*
X104796Y184607D02*
G03*
X103206Y183037I-15J-1575D01*
G01*
X103206Y183037D02*
G03*
X101647Y181267I4J-1575D01*
G01*
X208612Y158653D02*
G03*
X209090Y158207I1290J903D01*
G01*
X199408Y149550D02*
G03*
X198669Y150760I-2642J-783D01*
G01*
X199408Y149550D02*
G03*
X198669Y150760I-2642J-783D01*
G01*
X199828Y148821D02*
G03*
X199408Y149550I-1525J-394D01*
G01*
X198317Y151365D02*
G03*
X197468Y152760I-2673J-671D01*
G01*
X198669Y150760D02*
G03*
X198317Y151365I-1503J-470D01*
G01*
X124042Y172160D02*
G03*
X122874Y171041I1238J-2462D01*
G01*
X124042Y172160D02*
G03*
X122874Y171041I1238J-2462D01*
G01*
X122874Y171041D02*
G03*
X122428Y170625I831J-1338D01*
G01*
Y170625D02*
G03*
X121165Y169416I1176J-2493D01*
G01*
X198317Y151365D02*
G03*
X197468Y152760I-2673J-671D01*
G01*
X120751Y169020D02*
G03*
X119489Y167812I1176J-2492D01*
G01*
X119489D02*
G03*
X119016Y167327I864J-1316D01*
G01*
X201474Y145417D02*
G03*
X200862Y146726I-2715J-471D01*
G01*
X202494Y143272D02*
G03*
X201774Y144813I-2735J-339D01*
G01*
X202494Y143272D02*
G03*
X201774Y144813I-2735J-339D01*
G01*
X201474Y145417D02*
G03*
X200862Y146726I-2715J-471D01*
G01*
X201774Y144813D02*
G03*
X201474Y145417I-1528J-383D01*
G01*
X200540Y147411D02*
G03*
X199828Y148821I-2713J-485D01*
G01*
X200540Y147411D02*
G03*
X199828Y148821I-2713J-485D01*
G01*
X200862Y146726D02*
G03*
X200540Y147411I-1544J-308D01*
G01*
X419791Y156114D02*
G03*
X419390Y153890I879J-1307D01*
G01*
D02*
G03*
X418907Y151664I822J-1343D01*
G01*
Y151664D02*
G03*
X418439Y149494I858J-1321D01*
G01*
Y149494D02*
G03*
X417842Y147678I891J-1299D01*
G01*
X400440Y139394D02*
G03*
X392696Y141469I-4150J0D01*
G01*
X391210Y142327D02*
G03*
X391764Y144394I-3580J2067D01*
G01*
D02*
G03*
X384050Y146461I-4134J0D01*
G01*
X409084Y134394D02*
G03*
X401370Y136461I-4134J0D01*
G01*
X408530Y132327D02*
G03*
X409084Y134394I-3580J2067D01*
G01*
X399884Y137320D02*
G03*
X400440Y139394I-3594J2075D01*
G01*
X400189Y134416D02*
G03*
X407349Y130282I3580J-2067D01*
G01*
X391515Y139424D02*
G03*
X398703Y135274I3594J-2075D01*
G01*
X385727Y138278D02*
G03*
X390029Y140282I721J4070D01*
G01*
X388678Y123028D02*
G03*
X387200Y125348I-2559J0D01*
G01*
X388438Y121947D02*
G03*
X388678Y123028I-2319J1082D01*
G01*
X384039Y118568D02*
G03*
X387439Y119806I1082J2319D01*
G01*
X382869Y144416D02*
G03*
X382348Y141826I3580J-2067D01*
G01*
X381324Y147126D02*
G03*
X382427Y148628I-472J1502D01*
G01*
X380189Y145168D02*
G03*
X381384Y146696I-380J1528D01*
G01*
X379128Y143130D02*
G03*
X380278Y144647I-425J1516D01*
G01*
X377891Y141101D02*
G03*
X379202Y142653I-264J1553D01*
G01*
X381491Y128010D02*
G03*
X378090Y126772I-1082J-2319D01*
G01*
X377092Y124631D02*
G03*
X378330Y121230I2319J-1082D01*
G01*
X327762Y116219D02*
G03*
X378527Y137216I5J71856D01*
G01*
X327759Y111495D02*
G03*
X381924Y133932I8J76581D01*
G01*
X382875Y115082D02*
G03*
X375370Y116746I-3937J0D01*
G01*
X382506Y113418D02*
G03*
X382875Y115082I-3568J1664D01*
G01*
X375370Y116746D02*
G03*
X377274Y111514I3568J-1664D01*
G01*
Y111514D02*
G03*
X373426Y111222I-1664J-3568D01*
G01*
X377274Y111514D02*
G03*
X382506Y113418I1664J3568D01*
G01*
X379547Y107946D02*
G03*
X377274Y111514I-3937J0D01*
G01*
X379178Y106282D02*
G03*
X379547Y107946I-3568J1664D01*
G01*
X374272Y104244D02*
G03*
X379178Y106282I1338J3703D01*
G01*
X376656Y101429D02*
G03*
X375113Y103851I-2673J0D01*
G01*
X376406Y100299D02*
G03*
X376656Y101429I-2423J1130D01*
G01*
X371772Y96687D02*
G03*
X375324Y97980I1130J2423D01*
G01*
X373426Y111222D02*
G03*
X351826Y101441I2184J-33564D01*
G01*
X368159Y101321D02*
G03*
X369452Y97768I2423J-1130D01*
G01*
X369359Y103864D02*
G03*
X356564Y96714I6251J-26207D01*
G01*
X367182Y97324D02*
G03*
X363781Y96086I-1082J-2319D01*
G01*
X374129Y91261D02*
G03*
X374368Y92342I-2319J1082D01*
G01*
D02*
G03*
X372891Y94662I-2559J0D01*
G01*
X362783Y93945D02*
G03*
X364020Y90544I2319J-1082D01*
G01*
X369729Y87882D02*
G03*
X373130Y89120I1082J2319D01*
G01*
X257992Y111495D02*
G03*
X242118Y104919I0J-22449D01*
G01*
X291535Y104331D02*
G03*
X291535Y104331I-4528J0D01*
G01*
X286798Y30113D02*
G03*
X291531Y25381I210J-4523D01*
G01*
X194542Y152874D02*
G03*
X195644Y150694I1438J-642D01*
G01*
D02*
G03*
X196766Y148767I1522J-404D01*
G01*
X197827Y146926D02*
G03*
X198758Y144946I1491J-508D01*
G01*
X198758Y144946D02*
G03*
X199759Y142933I1488J-516D01*
G01*
X196766Y148767D02*
G03*
X197827Y146926I1538J-340D01*
G01*
X199759Y142933D02*
G03*
X200486Y140953I1461J-587D01*
G01*
X257992Y116219D02*
G03*
X238772Y108254I0J-27173D01*
G01*
X222158Y100394D02*
G03*
X237104Y106586I-4J21141D01*
G01*
X222154Y95669D02*
G03*
X240450Y103251I0J25866D01*
G01*
X184127Y112127D02*
G03*
X175385Y115748I-8741J-8741D01*
G01*
X180786Y108787D02*
G03*
X175385Y111024I-5401J-5401D01*
G01*
X187723Y108531D02*
G03*
X207369Y100394I19650J19658D01*
G01*
X184384Y105189D02*
G03*
X207373Y95669I22989J22999D01*
G01*
X125280Y169697D02*
G03*
X126900Y171041I62J1574D01*
G01*
X140331Y154493D02*
G03*
X140331Y154493I-8858J0D01*
G01*
X123603Y168132D02*
G03*
X125280Y169697I102J1571D01*
G01*
X121927Y166528D02*
G03*
X123604Y168099I102J1571D01*
G01*
X120359Y164920D02*
G03*
X121928Y166495I-6J1575D01*
G01*
X122405Y93665D02*
G03*
X116280Y93665I-3062J-3062D01*
G01*
X62290Y101404D02*
G03*
X58198Y101404I-2046J-2046D01*
G01*
X65259Y97236D02*
G03*
X64411Y99282I-2894J0D01*
G01*
Y95190D02*
G03*
X65259Y97236I-2046J2046D01*
G01*
X56077Y99282D02*
G03*
X56077Y95190I2046J-2046D01*
G01*
X123673Y90603D02*
G03*
X116280Y93665I-4331J0D01*
G01*
X123673Y90603D02*
G03*
X122405Y93665I-4331J0D01*
G01*
X70411Y93261D02*
G03*
X64219Y87070I-3096J-3096D01*
G01*
X122405Y87540D02*
G03*
X123673Y90603I-3062J3062D01*
G01*
X122405Y87540D02*
G03*
X123673Y90603I-3062J3062D01*
G01*
X71693Y90165D02*
G03*
X70411Y93261I-4378J0D01*
G01*
X64219Y87070D02*
G03*
X71693Y90165I3096J3096D01*
G01*
X58198Y93069D02*
G03*
X62290Y93069I2046J2046D01*
G01*
X401902Y305314D02*
X406305Y300912D01*
X404061Y304090D02*
X405613Y302261D01*
X398437Y304604D02*
X407614Y295427D01*
X396285Y302580D02*
X407589Y291276D01*
X387581Y284901D02*
X405305Y302625D01*
X407587Y296903D02*
X407679Y291789D01*
X406848Y299852D02*
X407587Y296903D01*
X406798Y286781D02*
X407679Y291789D01*
X405613Y302261D02*
X406848Y299852D01*
X394534Y300155D02*
X406964Y287725D01*
X400581Y305539D02*
X402499Y305213D01*
X398640Y304781D02*
X400581Y305539D01*
X402499Y305213D02*
X404061Y304090D01*
X396585Y302983D02*
X398640Y304781D01*
X394592Y300264D02*
X399409Y305082D01*
X394686Y300441D02*
X396585Y302983D01*
X390998Y293486D02*
X394686Y300441D01*
X390341Y291837D02*
X403207Y304704D01*
X387878Y285656D02*
X390998Y293486D01*
X393087Y297426D02*
X406013Y284500D01*
X391640Y294697D02*
X404944Y281394D01*
X403795Y278055D02*
X406798Y286781D01*
X390336Y291826D02*
X403875Y278287D01*
X389146Y288840D02*
X402563Y275423D01*
X400033Y270021D02*
X403795Y278055D01*
X400983Y229694D02*
X402449Y227331D01*
X396365Y231511D02*
X403106Y224770D01*
X392467Y231234D02*
X403309Y220391D01*
X395790Y262150D02*
X400033Y270021D01*
X391128Y255085D02*
X395790Y262150D01*
X393955Y231652D02*
X397785Y231427D01*
X387956Y285854D02*
X401231Y272579D01*
X386777Y282858D02*
X399886Y269748D01*
X397785Y231427D02*
X399452Y230843D01*
X400983Y229694D01*
X389207Y230318D02*
X402427Y217098D01*
X385947Y229402D02*
X400863Y214485D01*
X384873Y278017D02*
X406800Y299945D01*
X385598Y279861D02*
X398424Y267035D01*
X384358Y276925D02*
X396961Y264321D01*
X379643Y268612D02*
X407593Y296562D01*
X382944Y274162D02*
X395459Y261648D01*
X381531Y271400D02*
X393799Y259132D01*
X384654Y247879D02*
X391128Y255085D01*
X380363Y244277D02*
X390753Y254667D01*
X379866Y268890D02*
X392139Y256616D01*
X378008Y266571D02*
X390355Y254224D01*
X384754Y277716D02*
X387878Y285656D01*
X380992Y270346D02*
X384693Y277581D01*
X376540Y264738D02*
X380827Y270090D01*
X347862Y280014D02*
X382122Y245754D01*
X350946Y272755D02*
X379852Y243848D01*
X373773Y262668D02*
X376248Y264460D01*
X376071Y264332D02*
X388379Y252025D01*
X373627Y262601D02*
X386403Y249825D01*
X370645Y261407D02*
X384392Y247659D01*
X346956Y231750D02*
X407667Y292460D01*
X374842Y226281D02*
X393955Y231652D01*
X354462Y244183D02*
X390195Y208451D01*
X323596Y204213D02*
X406934Y287551D01*
X316121Y192563D02*
X404940Y281381D01*
X382687Y228486D02*
X398778Y212395D01*
X377760Y208268D02*
X399957Y230464D01*
X371587Y210446D02*
X392339Y231198D01*
X374603Y209286D02*
X396802Y231485D01*
X377598Y241956D02*
X384654Y247879D01*
X355744Y259605D02*
X375298Y240050D01*
X371396Y236817D02*
X377598Y241956D01*
X353689Y242658D02*
X373636Y262604D01*
X353952Y265573D02*
X377582Y241942D01*
X368571Y211606D02*
X386531Y229566D01*
X352996Y241473D02*
X386727Y207743D01*
X349914Y236204D02*
X377874Y208243D01*
X351455Y238839D02*
X382800Y207494D01*
X475094Y211244D02*
X477669Y208669D01*
X469622Y209610D02*
X476919Y211789D01*
X471878Y210284D02*
X478989Y203173D01*
X467549Y206188D02*
X471546Y210185D01*
X467549Y202012D02*
X476998Y211461D01*
X467549Y197836D02*
X477807Y208094D01*
X467549Y209547D02*
X469191D01*
X468439D02*
X480308Y197677D01*
X456592Y209547D02*
X458235Y209547D01*
X458235Y197244D02*
X458235Y209547D01*
X455715Y209744D02*
X458235Y207223D01*
X448871Y211788D02*
X456161Y209610D01*
X449760Y211522D02*
X458235Y203047D01*
X447796Y207314D02*
X451488Y211006D01*
X448183Y208924D02*
X458235Y198872D01*
X450253Y197244D02*
X458235Y205226D01*
X454429Y197244D02*
X458235Y201050D01*
X447374Y205557D02*
X455687Y197244D01*
X447441D02*
X458235D01*
X467549Y202085D02*
X482948Y186686D01*
X467549Y189485D02*
X479424Y201360D01*
X467549Y197909D02*
X484268Y181190D01*
X467549Y206261D02*
X481628Y192182D01*
X467348Y185108D02*
X480233Y197993D01*
X467549Y193734D02*
X485588Y175694D01*
X467549Y189558D02*
X486908Y170199D01*
X467477Y185454D02*
X488228Y164703D01*
X464448Y184307D02*
X489548Y159207D01*
X467549Y193661D02*
X478615Y204727D01*
X467549Y185813D02*
Y209547D01*
X466747Y184507D02*
X467348Y185108D01*
X460039Y177799D02*
X466747Y184507D01*
X447441Y174803D02*
Y197244D01*
X460039Y184307D02*
X466042D01*
X460039Y181975D02*
X462371Y184307D01*
X447441Y174803D02*
X460039D01*
Y184307D01*
X403289Y224059D02*
X403333Y220483D01*
X402449Y227331D02*
X403289Y224059D01*
X390545Y208524D02*
X403323Y221303D01*
X385510Y207665D02*
X403006Y225161D01*
X381203Y207534D02*
X401894Y228226D01*
X402489Y217209D02*
X403333Y220483D01*
X401123Y214769D02*
X402489Y217209D01*
X399424Y212914D02*
X401123Y214769D01*
X397831Y211635D02*
X401324Y215128D01*
X395551Y209805D02*
X399424Y212914D01*
X379427Y227570D02*
X396462Y210535D01*
X371575Y227295D02*
X373852Y226342D01*
X376167Y226654D02*
X393643Y209178D01*
X362192Y213579D02*
X374916Y226302D01*
X365514Y212725D02*
X380723Y227934D01*
X394464Y209351D02*
X395551Y209805D01*
X386885Y207753D02*
X394464Y209351D01*
X366038Y212580D02*
X376613Y208512D01*
X381715Y207425D01*
X446476Y201818D02*
X454703Y210046D01*
X446565Y202190D02*
X451511Y197244D01*
X445156Y196323D02*
X458235Y209402D01*
X441713Y181987D02*
X447441Y176259D01*
X435315Y155346D02*
X448871Y211788D01*
X439876Y174339D02*
X447441Y181904D01*
X438556Y168844D02*
X447441Y177728D01*
X437236Y163348D02*
X448692Y174803D01*
X435916Y157852D02*
X452868Y174803D01*
X444948Y195456D02*
X447441Y192963D01*
X445756Y198823D02*
X447441Y197138D01*
X444139Y192089D02*
X447441Y188787D01*
X381715Y207425D02*
X386885Y207753D01*
X443836Y190827D02*
X447441Y194432D01*
X443330Y188721D02*
X447441Y184611D01*
X442522Y185354D02*
X447441Y180435D01*
X442516Y185331D02*
X447441Y190256D01*
X441196Y179835D02*
X447441Y186080D01*
X360438Y279184D02*
X362185Y272653D01*
X358032Y285442D02*
X360438Y279184D01*
X352037Y270237D02*
X360553Y278753D01*
X349515Y276066D02*
X358271Y284822D01*
X350774Y273150D02*
X359430Y281806D01*
X364339Y265763D02*
X366324Y262731D01*
X362199Y272605D02*
X364157Y266151D01*
X366847Y262243D02*
X368133Y261520D01*
X353300Y267324D02*
X361435Y275459D01*
X354412Y264260D02*
X362329Y272177D01*
X352112Y293643D02*
X354934Y290674D01*
X350805Y294398D02*
X352112Y293643D01*
X350047Y294532D02*
X356428Y288151D01*
X349609Y294610D02*
X350805Y294398D01*
X348245Y294160D02*
X349609Y294610D01*
X354934Y290674D02*
X358032Y285442D01*
X353511Y266828D02*
X355149Y262158D01*
X348283Y279010D02*
X356799Y287526D01*
X349649Y275744D02*
X353472Y266929D01*
X370819Y261439D02*
X373448Y262489D01*
X368878Y261326D02*
X370267Y261332D01*
X369966Y234827D02*
X371113Y236507D01*
X356384Y254788D02*
X373015Y238158D01*
X356369Y250628D02*
X370860Y236136D01*
X369364Y231868D02*
X369721Y234205D01*
X369389Y231285D02*
X369818Y229517D01*
X352331Y212069D02*
X369810Y229548D01*
X348307Y233635D02*
X371440Y210502D01*
X356380Y253701D02*
X365963Y263283D01*
X356185Y257681D02*
X364318Y265814D01*
X356201Y249346D02*
X368297Y261441D01*
X355406Y261078D02*
X363301Y268973D01*
X355196Y261996D02*
X356353Y256948D01*
X356367Y250079D02*
X356391Y256606D01*
X355514Y247307D02*
X369575Y233246D01*
X354348Y243847D02*
X356288Y249603D01*
X348912Y234492D02*
X354221Y243567D01*
X346272Y285350D02*
X353307Y292386D01*
X346899Y292671D02*
X348245Y294160D01*
X347295Y293109D02*
X359950Y280454D01*
X345935Y290244D02*
X346899Y292671D01*
X345876Y289131D02*
X351019Y294274D01*
X347132Y282035D02*
X355245Y290148D01*
X347320Y281311D02*
X349649Y275744D01*
X346121Y285931D02*
X363398Y268654D01*
X345778Y287256D02*
X347320Y281311D01*
X345949Y290279D02*
X361678Y274550D01*
X345778Y287256D02*
X345935Y290244D01*
X323223Y247914D02*
X323868Y247781D01*
X326143Y245711D01*
X322585Y247613D02*
X323223Y247914D01*
X321542Y245822D02*
X322585Y247613D01*
X326143Y245711D02*
X328423Y241664D01*
X322297Y247118D02*
X328859Y240555D01*
X320993Y243368D02*
X324673Y247049D01*
X320951Y243182D02*
X321542Y245822D01*
X345920Y230302D02*
X348837Y234375D01*
X330336Y236800D02*
X332220Y231750D01*
X332277Y231617D02*
X334525Y226996D01*
X321176Y239886D02*
X350255Y210808D01*
X321810Y235077D02*
X348068Y208819D01*
X342590Y226694D02*
X345800Y230155D01*
X346564Y231202D02*
X364878Y212889D01*
X324578Y221899D02*
X332938Y230258D01*
X323051Y229660D02*
X345912Y206799D01*
X328423Y241664D02*
X330336Y236800D01*
X321209Y239409D02*
X326636Y244836D01*
X321669Y235693D02*
X328141Y242165D01*
X320951Y243182D02*
X321375Y236972D01*
X321153Y244085D02*
X331465Y233773D01*
X323226Y228898D02*
X330551Y236224D01*
X324005Y225501D02*
X331686Y233182D01*
X322447Y232295D02*
X329381Y239229D01*
X321375Y236972D02*
X324218Y224568D01*
X358488Y214051D02*
X371686Y227249D01*
X370070Y228977D02*
X370945Y227790D01*
X344662Y228928D02*
X359571Y214019D01*
X342653Y226761D02*
X355740Y213674D01*
X340033Y225206D02*
X352858Y212380D01*
X357841Y214069D02*
X360424Y213995D01*
X354920Y213503D02*
X357490Y214038D01*
X360755Y213948D02*
X365872Y212633D01*
X350421Y210943D02*
X354462Y213326D01*
X354039Y186044D02*
X356013Y185833D01*
X339346Y224830D02*
X342209Y226396D01*
X334808Y226596D02*
X336091Y225299D01*
X336952Y224866D02*
X338411Y224660D01*
X325067Y218212D02*
X334305Y227449D01*
X325114Y214083D02*
X336234Y225202D01*
X346414Y207292D02*
X350165Y210752D01*
X325114Y215070D02*
X339603Y200580D01*
X325113Y211085D02*
X325115Y217752D01*
X325082Y210926D02*
X337501Y198507D01*
X354152Y186031D02*
X367411Y172772D01*
X362185Y182220D02*
X363794Y179899D01*
X351036Y184972D02*
X369897Y166111D01*
X348365Y183466D02*
X370718Y161115D01*
X345709Y181947D02*
X370567Y157089D01*
X369743Y166814D02*
X370619Y162819D01*
X370861Y158627D01*
X363794Y179899D02*
X366832Y174252D01*
X369743Y166814D01*
X360412Y183805D02*
X362185Y182220D01*
X356013Y185833D02*
X360412Y183805D01*
X361756Y182603D02*
X362287Y182072D01*
X352016Y185525D02*
X354039Y186044D01*
X345863Y182055D02*
X352016Y185525D01*
X339718Y177699D02*
X345863Y182055D01*
X334836Y175297D02*
X339507Y177573D01*
X332101Y174633D02*
X334510Y175182D01*
X329290Y174652D02*
X331732Y174596D01*
X324264Y224271D02*
X343809Y204726D01*
X324818Y209611D02*
X340872Y225665D01*
X324902Y219458D02*
X341706Y202653D01*
X324243Y224429D02*
X325101Y217950D01*
X323587Y204171D02*
X325076Y210752D01*
X324339Y207493D02*
X335398Y196434D01*
X323555Y204101D02*
X333295Y194361D01*
X322151Y201330D02*
X331192Y192288D01*
X322150Y201329D02*
X331192Y192288D01*
X320711Y198592D02*
X329089Y190215D01*
X320621Y198420D02*
X323451Y203803D01*
X293835Y200856D02*
X294202Y199502D01*
X293360Y192949D02*
X294202Y199502D01*
X292267Y200471D02*
X293545Y200984D01*
X293345Y200904D02*
X294000Y200249D01*
X302152Y194871D02*
X304632Y196742D01*
X302951Y195474D02*
X304219Y194205D01*
X299708Y192233D02*
X302152Y194871D01*
X300818Y193431D02*
X303285Y190964D01*
X318931Y196197D02*
X326986Y188142D01*
X317110Y193842D02*
X324883Y186070D01*
X318214Y179496D02*
X346378Y207258D01*
X313099Y188653D02*
X320479Y198199D01*
X315290Y191487D02*
X322780Y183996D01*
X318904Y176961D02*
X323920Y175699D01*
X323994Y175682D02*
X329030Y174681D01*
X313469Y189132D02*
X320677Y181924D01*
X311468Y186957D02*
X318574Y179851D01*
X302655Y188779D02*
X304935Y196686D01*
X298998Y191075D02*
X302362Y187711D01*
X300381Y180488D02*
X302650Y188760D01*
X292550Y186054D02*
X293358Y192933D01*
X295332Y185091D02*
X299708Y192233D01*
X305011Y180296D02*
X312989Y188526D01*
X302609Y178797D02*
X304703Y180052D01*
X297412Y188486D02*
X301463Y184434D01*
X295825Y185896D02*
X300565Y181157D01*
X457249Y174803D02*
X494828Y137224D01*
X460039Y176188D02*
X493508Y142720D01*
X453073Y174803D02*
X496148Y131728D01*
X440904Y178620D02*
X498788Y120737D01*
X440096Y175253D02*
X500108Y115241D01*
X470997Y113592D02*
X494789Y137384D01*
X470188Y116959D02*
X493981Y140751D01*
X471806Y110225D02*
X495598Y134017D01*
X448897Y174803D02*
X497468Y126232D01*
X439287Y171886D02*
X501428Y109745D01*
X465336Y137162D02*
X489128Y160954D01*
X464528Y140529D02*
X488320Y164321D01*
X466145Y133795D02*
X489937Y157587D01*
X460273Y184307D02*
X490868Y153711D01*
X460039Y180364D02*
X492188Y148215D01*
X468571Y123693D02*
X492363Y147486D01*
X469380Y120326D02*
X493172Y144119D01*
X466954Y130428D02*
X490746Y154220D01*
X467762Y127060D02*
X491555Y150853D01*
X469194Y121100D02*
X508027Y82266D01*
X467874Y126595D02*
X506707Y87762D01*
X476919Y211789D02*
X522851Y20545D01*
X465234Y137587D02*
X504068Y98753D01*
X466554Y132091D02*
X505387Y93258D01*
X479084Y79921D02*
X502876Y103713D01*
X473154Y104612D02*
X511987Y65779D01*
X470514Y115604D02*
X509347Y76770D01*
X471834Y110108D02*
X510667Y71275D01*
X474232Y100124D02*
X498024Y123916D01*
X473423Y103491D02*
X497216Y127283D01*
X475041Y96756D02*
X498833Y120549D01*
X472614Y106858D02*
X496407Y130650D01*
X464360Y141226D02*
X495357Y12165D01*
X477467Y86655D02*
X501259Y110447D01*
X478275Y83288D02*
X502068Y107080D01*
X475849Y93389D02*
X499642Y117182D01*
X476658Y90022D02*
X500450Y113814D01*
X431957Y141365D02*
X481850Y191258D01*
X433356Y146940D02*
X481041Y194625D01*
X430637Y135869D02*
X482659Y187891D01*
X429317Y130373D02*
X483468Y184524D01*
X427997Y124878D02*
X484276Y181157D01*
X437670Y165152D02*
X461482Y141339D01*
X436861Y161784D02*
X460653Y137992D01*
X426677Y119382D02*
X485085Y177790D01*
X425357Y113886D02*
X485894Y174423D01*
X424037Y108390D02*
X486702Y171056D01*
X436052Y158417D02*
X459844Y134625D01*
X434514Y152274D02*
X457043Y174803D01*
X435209Y155084D02*
X459036Y131258D01*
X434491Y151627D02*
X458227Y127891D01*
X433452Y148490D02*
X457418Y124523D01*
X432817Y144949D02*
X456610Y121156D01*
X432009Y141582D02*
X455801Y117789D01*
X431200Y138214D02*
X454992Y114422D01*
X430391Y134847D02*
X454184Y111055D01*
X438478Y168519D02*
X502747Y104249D01*
X422717Y102894D02*
X487511Y167689D01*
X430434Y12165D02*
X461430Y141226D01*
X421397Y97399D02*
X460230Y136232D01*
X420077Y91903D02*
X458911Y130736D01*
X418757Y86407D02*
X457591Y125241D01*
X417437Y80911D02*
X456271Y119745D01*
X416117Y75415D02*
X454951Y114249D01*
X414797Y69920D02*
X453631Y108754D01*
X429583Y131480D02*
X453375Y107688D01*
X428774Y128113D02*
X452566Y104321D01*
X427965Y124746D02*
X451758Y100953D01*
X427156Y121379D02*
X450949Y97586D01*
X426348Y118012D02*
X450140Y94219D01*
X425539Y114645D02*
X449332Y90852D01*
X424730Y111277D02*
X448523Y87485D01*
X423922Y107910D02*
X447714Y84118D01*
X423113Y104543D02*
X446906Y80750D01*
X494449Y15945D02*
X518242Y39737D01*
X493641Y19312D02*
X517433Y43105D01*
X495258Y12578D02*
X519050Y36370D01*
X487673Y44159D02*
X521149Y10683D01*
X488993Y38663D02*
X519262Y8394D01*
X522982Y15301D02*
X523197Y17847D01*
X522851Y20545D02*
X523197Y17847D01*
X520990Y10281D02*
X522982Y15301D01*
X496355Y9499D02*
X519859Y33003D01*
X498081Y7050D02*
X520668Y29636D01*
X490406Y32781D02*
X514198Y56573D01*
X489597Y36148D02*
X513389Y59940D01*
X491215Y29414D02*
X515007Y53206D01*
X487980Y42882D02*
X511772Y66675D01*
X488789Y39515D02*
X512581Y63307D01*
X495357Y12165D02*
X496269Y9634D01*
X497617Y7516D01*
X492023Y26047D02*
X515815Y49839D01*
X492832Y22680D02*
X516624Y46472D01*
X503271Y3888D02*
X522285Y22902D01*
X500333Y5125D02*
X521476Y26269D01*
X506517Y2958D02*
X522994Y19434D01*
X490313Y33167D02*
X517267Y6213D01*
X490313Y33167D02*
X517267Y6213D01*
X517207Y6148D02*
X520990Y10281D01*
X514836Y4648D02*
X517207Y6148D01*
X512097Y3546D02*
X514836Y4648D01*
X511077Y3342D02*
X522947Y15212D01*
X495777Y10999D02*
X502735Y4041D01*
X497617Y7516D02*
X499372Y5753D01*
X494273Y16679D02*
X507990Y2963D01*
X491633Y27671D02*
X514708Y4597D01*
X492953Y22175D02*
X511668Y3460D01*
X509239Y2974D02*
X512097Y3546D01*
X506547Y2950D02*
X509239Y2974D01*
X499372Y5753D02*
X501411Y4421D01*
X506547Y2950D01*
X480701Y73186D02*
X504494Y96979D01*
X479893Y76554D02*
X503685Y100346D01*
X475794Y93621D02*
X514627Y54787D01*
X413477Y64424D02*
X452311Y103258D01*
X474474Y99116D02*
X513307Y60283D01*
X483936Y59718D02*
X507728Y83510D01*
X483128Y63085D02*
X506920Y86877D01*
X484745Y56351D02*
X508537Y80143D01*
X481510Y69819D02*
X505302Y93612D01*
X482319Y66452D02*
X506111Y90245D01*
X422304Y101176D02*
X446097Y77383D01*
X422304Y101176D02*
X446097Y77383D01*
X421495Y97808D02*
X445288Y74016D01*
X420687Y94441D02*
X444480Y70649D01*
X412157Y58928D02*
X450991Y97762D01*
X419878Y91074D02*
X443671Y67281D01*
X419069Y87707D02*
X442862Y63914D01*
X418261Y84340D02*
X442054Y60547D01*
X417452Y80973D02*
X441245Y57180D01*
X479754Y77133D02*
X518587Y38300D01*
X487171Y46249D02*
X510963Y70042D01*
X481074Y71637D02*
X519907Y32804D01*
X477114Y88125D02*
X515947Y49292D01*
X478434Y82629D02*
X517267Y43796D01*
X485033Y55150D02*
X523130Y17054D01*
X486353Y49654D02*
X522336Y13672D01*
X482394Y66142D02*
X521227Y27308D01*
X483713Y60646D02*
X522547Y21813D01*
X485554Y52984D02*
X509346Y76776D01*
X410838Y53432D02*
X449672Y92266D01*
X409517Y47937D02*
X448352Y86771D01*
X408198Y42441D02*
X447032Y81275D01*
X406878Y36945D02*
X445712Y75779D01*
X486362Y49617D02*
X510155Y73409D01*
X405558Y31449D02*
X444392Y70284D01*
X404238Y25954D02*
X443072Y64788D01*
X402929Y20469D02*
X441752Y59292D01*
X427158Y154783D02*
X431228Y150714D01*
X422394Y155209D02*
X431942Y154356D01*
X421673Y151961D02*
X424715Y155002D01*
X372465Y150680D02*
X379386Y149205D01*
X425929Y147865D02*
X431990Y153926D01*
X422573Y155193D02*
X430191Y147575D01*
X422018Y148130D02*
X428548Y154659D01*
X421661Y151930D02*
X425711Y147879D01*
X429839Y147599D02*
X430523Y148283D01*
X420904Y148205D02*
X430302Y147568D01*
X372891Y150590D02*
X377543Y145937D01*
X372890Y150590D02*
X377543Y145937D01*
X370597Y146818D02*
X374109Y150330D01*
X371601Y143647D02*
X377551Y149596D01*
X378198Y149458D02*
X379019Y148637D01*
X343266Y180214D02*
X369898Y153582D01*
X343266Y180214D02*
X369898Y153582D01*
X340822Y178482D02*
X369239Y150065D01*
X338194Y176934D02*
X367686Y147442D01*
X331696Y141324D02*
X366060Y175688D01*
X369742Y152768D02*
X370861Y158627D01*
X335387Y175566D02*
X366448Y144504D01*
X326143Y144123D02*
X363026Y181006D01*
X323080Y145235D02*
X361065Y183221D01*
X328834Y142638D02*
X364599Y178403D01*
X291417Y151155D02*
X317961Y177699D01*
X314741Y141072D02*
X358401Y184732D01*
X332135Y174641D02*
X364324Y142453D01*
X327644Y174956D02*
X362003Y140598D01*
X291417Y146979D02*
X320897Y176460D01*
X291417Y142803D02*
X324246Y175632D01*
X337822Y139099D02*
X368560Y169837D01*
X334746Y140199D02*
X367386Y172838D01*
X340898Y137998D02*
X369735Y166835D01*
X322324Y176101D02*
X359343Y139082D01*
X309412Y184837D02*
X356369Y137880D01*
X358193Y138590D02*
X368378Y148775D01*
X352397Y136970D02*
X370107Y154681D01*
X344309Y137233D02*
X370489Y163414D01*
X348216Y136965D02*
X370807Y159556D01*
X308650Y139157D02*
X355392Y185899D01*
X307357Y182716D02*
X353009Y137064D01*
X305301Y180596D02*
X348985Y136912D01*
X303101Y137784D02*
X349323Y184006D01*
X302806Y178915D02*
X344501Y137220D01*
X297573Y136432D02*
X337961Y176820D01*
X292276Y135311D02*
X331565Y174600D01*
X291417Y152722D02*
X305715Y138424D01*
X291417Y148546D02*
X302360Y137603D01*
X416643Y77606D02*
X440436Y53813D01*
X415835Y74239D02*
X439628Y50446D01*
X415026Y70872D02*
X438819Y47078D01*
X414217Y67504D02*
X438010Y43711D01*
X413409Y64137D02*
X437202Y40344D01*
X412600Y60770D02*
X436393Y36977D01*
X411791Y57403D02*
X435584Y33610D01*
X407020Y7856D02*
X436473Y37309D01*
X403747Y12935D02*
X439113Y48301D01*
X405024Y10037D02*
X437793Y42805D01*
X410982Y54036D02*
X434776Y30243D01*
X410174Y50669D02*
X433967Y26875D01*
X409365Y47302D02*
X433158Y23508D01*
X408556Y43934D02*
X432349Y20141D01*
X407748Y40567D02*
X431541Y16774D01*
X429521Y9634D02*
X430434Y12165D01*
X406939Y37200D02*
X430732Y13407D01*
X406130Y33833D02*
X429735Y10228D01*
X411816Y4301D02*
X433833Y26318D01*
X414979Y3289D02*
X432513Y20822D01*
X418820Y2953D02*
X431193Y15326D01*
X405322Y30466D02*
X428211Y7577D01*
X409137Y5798D02*
X435153Y31814D01*
X428172Y7516D02*
X429521Y9634D01*
X426417Y5753D02*
X428172Y7516D01*
X424623Y4581D02*
X429248Y9205D01*
X424378Y4421D02*
X426417Y5753D01*
X406669Y8239D02*
X409066Y5842D01*
X404801Y10281D02*
X408583Y6148D01*
X410954Y4648D01*
X404513Y27099D02*
X426079Y5532D01*
X403704Y23732D02*
X423319Y4117D01*
X416551Y2974D02*
X419243Y2950D01*
X424378Y4421D01*
X410954Y4648D02*
X413693Y3546D01*
X416551Y2974D01*
X371355Y147949D02*
X376105Y143199D01*
X375005Y142875D02*
X376953Y144823D01*
X369848Y145280D02*
X371446Y143682D01*
X369595Y144102D02*
X375665Y142725D01*
X321811Y143766D02*
X322658Y144871D01*
X324553Y145184D02*
X327343Y143323D01*
X363174Y141265D02*
X366034Y144218D01*
X327343Y143323D02*
X332029Y141171D01*
X321430Y143586D02*
X322471Y144627D01*
X318860Y142367D02*
X321811Y143766D01*
X402939Y20545D02*
X432979Y145623D01*
X402593Y17847D02*
X402939Y20545D01*
X402740Y16104D02*
X440432Y53796D01*
X359104Y138945D02*
X363174Y141265D01*
X355110Y137389D02*
X359104Y138945D01*
X402808Y15301D02*
X404801Y10281D01*
X402913Y20347D02*
X420073Y3187D01*
X402593Y17847D02*
X402808Y15301D01*
X402718Y16366D02*
X416000Y3084D01*
X332029Y141171D02*
X342735Y137341D01*
X308430Y139088D02*
X318860Y142367D01*
X351089Y136768D02*
X355110Y137389D01*
X291417Y144370D02*
X299005Y136782D01*
X292991Y135311D02*
X308430Y139088D01*
X342735Y137341D02*
X351089Y136768D01*
X342531Y15942D02*
X344334Y17105D01*
X341106Y15344D02*
X344290Y17182D01*
X341106Y15344D02*
X342531Y15942D01*
X239227Y290403D02*
X240195Y289952D01*
X237969Y290541D02*
X239227Y290403D01*
X240195Y289952D02*
X240914Y289109D01*
X237244Y290413D02*
X241410Y286246D01*
X233875Y289605D02*
X240980Y282500D01*
X241401Y287526D02*
X241420Y284907D01*
X240914Y289109D02*
X241401Y287526D01*
X240738Y281175D02*
X241420Y284907D01*
X233875Y289605D02*
X240980Y282500D01*
X230970Y288334D02*
X240038Y279266D01*
X234752Y289973D02*
X237969Y290541D01*
X231056Y288424D02*
X234752Y289973D01*
X227262Y284503D02*
X231056Y288424D01*
X225362Y281364D02*
X233407Y289409D01*
X221432Y273259D02*
X238641Y290467D01*
X228916Y286212D02*
X238916Y276212D01*
X226955Y283997D02*
X237795Y273157D01*
X223977Y279076D02*
X227262Y284503D01*
X221200Y272727D02*
X223977Y279076D01*
X236571Y269821D02*
X240738Y281175D01*
X225381Y281396D02*
X236674Y270102D01*
X223839Y278761D02*
X235283Y267318D01*
X218462Y266113D02*
X241042Y288692D01*
X215326Y258801D02*
X241417Y284892D01*
X222569Y275856D02*
X233865Y264560D01*
X227783Y252738D02*
X236571Y269821D01*
X221298Y272951D02*
X232446Y261803D01*
X220072Y270001D02*
X231028Y259045D01*
X218849Y267048D02*
X229609Y256288D01*
X217627Y264095D02*
X228191Y253531D01*
X216405Y261141D02*
X226876Y250670D01*
X215752Y259564D02*
X221200Y272727D01*
X215049Y258321D02*
X225900Y247470D01*
X226357Y249483D02*
X227743Y252652D01*
X226056Y238484D02*
X228385Y231894D01*
X225576Y245936D02*
X226263Y249191D01*
X225547Y245528D02*
X225973Y238889D01*
X198635Y271936D02*
X207081Y259426D01*
X191269Y251447D02*
X203924Y264102D01*
X193180Y249182D02*
X205607Y261610D01*
X175696Y293498D02*
X201498Y267696D01*
X189358Y253712D02*
X202241Y266595D01*
X214511Y257389D02*
X215664Y259387D01*
X212844Y255657D02*
X214269Y257074D01*
X209012Y257026D02*
X210834Y255553D01*
X207146Y259338D02*
X208775Y257266D01*
X195052Y246878D02*
X207307Y259133D01*
X190834Y285697D02*
X198573Y272037D01*
X180976Y266209D02*
X194317Y279550D01*
X182555Y263612D02*
X195827Y276884D01*
X177176Y296193D02*
X194966Y278403D01*
X179458Y268866D02*
X192807Y282216D01*
X187447Y255977D02*
X200558Y269088D01*
X186561Y257027D02*
X194581Y247522D01*
X184135Y261016D02*
X197337Y274218D01*
X185714Y258419D02*
X198875Y271581D01*
X198259Y237558D02*
X240078Y279377D01*
X175167Y281500D02*
X234769Y221898D01*
X176629Y275861D02*
X259553Y192938D01*
X175014Y290004D02*
X225962Y239056D01*
X174697Y286146D02*
X228077Y232766D01*
X194796Y217392D02*
X226174Y248770D01*
X189408Y216180D02*
X229708Y256479D01*
X184488Y215435D02*
X234131Y265078D01*
X178675Y213798D02*
X237657Y272780D01*
X213192Y256002D02*
X225676Y243518D01*
X196405Y244056D02*
X209213Y256863D01*
X197499Y240974D02*
X211749Y255224D01*
X194649Y247434D02*
X195077Y246844D01*
X195212Y246619D02*
X196224Y244538D01*
X199342Y217761D02*
X225641Y244061D01*
X202820Y217064D02*
X225893Y240137D01*
X196289Y244383D02*
X197889Y239877D01*
X197960Y239592D02*
X198305Y237244D01*
X264237Y232294D02*
X265223Y230221D01*
X263071Y233105D02*
X264237Y232294D01*
X261417Y232832D02*
X265353Y228896D01*
X259351Y230723D02*
X265085Y224989D01*
X255983Y224293D02*
X264088Y232398D01*
X265132Y225141D02*
X265470Y227703D01*
X265223Y230221D02*
X265470Y227703D01*
X263502Y219922D02*
X265132Y225141D01*
X257724Y228173D02*
X264090Y221807D01*
X253825Y217959D02*
X265300Y229434D01*
X261869Y233113D02*
X263071Y233105D01*
X260530Y232281D02*
X261869Y233113D01*
X258357Y229408D02*
X260530Y232281D01*
X256475Y225735D02*
X258357Y229408D01*
X253486Y216963D02*
X256475Y225735D01*
X256351Y225371D02*
X263144Y218577D01*
X255289Y222256D02*
X262270Y215276D01*
X250999Y212228D02*
X253391Y216743D01*
X254228Y219142D02*
X261396Y211974D01*
X290707Y199104D02*
X292267Y200471D01*
X260646Y209142D02*
X263483Y219858D01*
X286405Y192077D02*
X294123Y199795D01*
X250456Y210414D02*
X265109Y225067D01*
X237217Y192999D02*
X263270Y219052D01*
X290847Y199227D02*
X293789Y196285D01*
X289105Y196792D02*
X293317Y192580D01*
X287643Y194680D02*
X290707Y199104D01*
X286169Y191581D02*
X287643Y194680D01*
X253065Y216129D02*
X260570Y208625D01*
X250361Y210734D02*
X250631Y209828D01*
X251620Y213399D02*
X260125Y204893D01*
X250361Y210734D02*
X250999Y212228D01*
X241265Y214427D02*
X248185Y208272D01*
X259246Y197509D02*
X260606Y208935D01*
X259240Y197221D02*
X259668Y191375D01*
X250468Y210374D02*
X259681Y201161D01*
X248692Y207974D02*
X259254Y197413D01*
X228502Y231640D02*
X232139Y225363D01*
X205856Y215924D02*
X226672Y236740D01*
X208618Y214510D02*
X227762Y233655D01*
X187049Y232035D02*
X201729Y217355D01*
X191223Y232037D02*
X209003Y214257D01*
X236686Y219396D02*
X241157Y214533D01*
X232245Y225204D02*
X236597Y219502D01*
X211135Y212851D02*
X229024Y230740D01*
X200428Y217703D02*
X204092Y216724D01*
X204341Y216633D02*
X207885Y214975D01*
X197986Y234808D02*
X198302Y236786D01*
X196329Y232714D02*
X197577Y233995D01*
X192958Y232008D02*
X195408Y232267D01*
X187615Y232122D02*
X192764Y232000D01*
X183431Y231477D02*
X197125Y217783D01*
X196322Y217792D02*
X200054Y217754D01*
X192226Y216589D02*
X195858Y217723D01*
X180233Y230499D02*
X193687Y217045D01*
X184798Y215510D02*
X192226Y216589D01*
X225893Y202554D02*
X239583Y216245D01*
X223447Y204285D02*
X237583Y218420D01*
X228226Y200711D02*
X241623Y214108D01*
X218561Y207749D02*
X233877Y223066D01*
X221002Y206015D02*
X235685Y220698D01*
X233320Y196324D02*
X234712Y195469D01*
X235140Y195098D02*
X248266Y208224D01*
X230469Y198779D02*
X243833Y212143D01*
X232713Y196847D02*
X246043Y210177D01*
X213652Y211192D02*
X230556Y228096D01*
X211135Y212851D02*
X229024Y230740D01*
X216121Y209485D02*
X232088Y225452D01*
X169832Y209131D02*
X192703Y232002D01*
X195191Y232244D02*
X222433Y205003D01*
X220013Y206716D02*
X226918Y201828D01*
X227031Y201740D02*
X233320Y196324D01*
X208076Y214868D02*
X214585Y210577D01*
X214630Y210546D02*
X220013Y206716D01*
X181572Y298081D02*
X183789Y297271D01*
X179451Y297865D02*
X181572Y298081D01*
X179659Y297887D02*
X190002Y287543D01*
X177365Y296467D02*
X179451Y297865D01*
X174967Y289431D02*
X183070Y297534D01*
X185906Y295445D02*
X188451Y291016D01*
X183789Y297271D02*
X185906Y295445D01*
X188451Y291016D02*
X190770Y285825D01*
X176349Y294988D02*
X178769Y297408D01*
X176080Y294597D02*
X177365Y296467D01*
X73539Y303787D02*
X80017Y297308D01*
X75429Y302923D02*
X79140Y299289D01*
X81101Y294862D01*
X70248Y305292D02*
X75429Y302923D01*
X67608Y305542D02*
X81207Y291943D01*
X175181Y292024D02*
X176080Y294597D01*
X174656Y285651D02*
X175181Y292024D01*
X81101Y294862D02*
X81309Y292660D01*
X80970Y290280D02*
X81309Y292660D01*
X176000Y277936D02*
X188645Y290581D01*
X175191Y281303D02*
X187156Y293268D01*
X177053Y274814D02*
X189935Y287695D01*
X174733Y285021D02*
X185504Y295792D01*
X174656Y285651D02*
X175230Y280988D01*
X178255Y271840D02*
X191297Y284881D01*
X179652Y268385D02*
X186561Y257027D01*
X175230Y280988D02*
X176347Y276559D01*
X179652Y268385D01*
X145814Y260743D02*
X160224Y246332D01*
X145888Y260751D02*
X150889Y259354D01*
X142042Y260339D02*
X159821Y242560D01*
X141075Y260236D02*
X145888Y260751D01*
X139063Y259314D02*
X141075Y260236D01*
X150889Y259354D02*
X155532Y256051D01*
X152583Y258149D02*
X157629Y253104D01*
X137172Y257833D02*
X139063Y259314D01*
X138967Y259239D02*
X158720Y239485D01*
X63436Y305538D02*
X80489Y288485D01*
X60114Y304685D02*
X79606Y285192D01*
X57543Y303079D02*
X78724Y281899D01*
X55270Y301176D02*
X77841Y278605D01*
X47245Y274456D02*
X75572Y302783D01*
X53794Y298477D02*
X76959Y275312D01*
X52823Y295272D02*
X76077Y272019D01*
X51940Y291979D02*
X75194Y268725D01*
X45717Y268752D02*
X77682Y300717D01*
X51058Y288685D02*
X74312Y265432D01*
X64574Y305830D02*
X70248Y305292D01*
X59543Y304538D02*
X64574Y305830D01*
X53359Y297274D02*
X60997Y304911D01*
X51831Y291569D02*
X65960Y305698D01*
X50302Y285865D02*
X69774Y305337D01*
X55632Y301685D02*
X59543Y304538D01*
X54353Y299884D02*
X55632Y301685D01*
X53448Y297606D02*
X54353Y299884D01*
X48774Y280161D02*
X72757Y304144D01*
X44188Y263048D02*
X79536Y298395D01*
X50175Y285392D02*
X73429Y262138D01*
X42660Y257343D02*
X80818Y295501D01*
X41131Y251639D02*
X81169Y291676D01*
X39603Y245935D02*
X79879Y286211D01*
X38074Y240230D02*
X78351Y280507D01*
X36546Y234526D02*
X76823Y274803D01*
X35017Y228822D02*
X75294Y269099D01*
X33489Y223117D02*
X73766Y263394D01*
X49293Y282099D02*
X72547Y258845D01*
X48410Y278805D02*
X71664Y255552D01*
X47528Y275512D02*
X70782Y252258D01*
X46646Y272219D02*
X69899Y248965D01*
X45763Y268925D02*
X69017Y245672D01*
X44881Y265632D02*
X68134Y242378D01*
X43998Y262338D02*
X67252Y239085D01*
X43116Y259045D02*
X66369Y235791D01*
X31960Y217413D02*
X72237Y257690D01*
X183125Y231430D02*
X187615Y232122D01*
X179182Y230161D02*
X183125Y231430D01*
X177299Y229258D02*
X190254Y216303D01*
X175855Y228566D02*
X179182Y230161D01*
X171053Y225260D02*
X175855Y228566D01*
X174647Y227734D02*
X186608Y215773D01*
X172173Y226032D02*
X183147Y215058D01*
X178157Y213652D02*
X184607Y215469D01*
X169872Y224157D02*
X179889Y214140D01*
X167562Y222291D02*
X176865Y212988D01*
X158835Y251408D02*
X160232Y246405D01*
X155532Y256051D02*
X158835Y251408D01*
X159717Y241592D02*
X160232Y246405D01*
X136684Y257345D02*
X156825Y237205D01*
X134596Y255257D02*
X154737Y235117D01*
X169173Y223503D02*
X171053Y225260D01*
X161064Y217447D02*
X169045Y223396D01*
X158795Y239581D02*
X159717Y241592D01*
X157311Y237690D02*
X158795Y239581D01*
X165170Y220508D02*
X174167Y211510D01*
X162777Y218724D02*
X171470Y210031D01*
X164248Y207723D02*
X188624Y232099D01*
X156549Y208375D02*
X177554Y229380D01*
X159939Y207589D02*
X183898Y231549D01*
X172259Y210465D02*
X177842Y213523D01*
X169393Y208890D02*
X172257Y210464D01*
X160473Y216853D02*
X168641Y208685D01*
X165601Y207856D02*
X169393Y208890D01*
X158388Y214762D02*
X165322Y207828D01*
X156406Y212772D02*
X161064Y217447D01*
X156344Y212631D02*
X161520Y207454D01*
X156118Y212120D02*
X162560Y218562D01*
X155107Y209833D02*
X156406Y212772D01*
X157833Y207786D02*
X161452Y207447D01*
X165601Y207856D01*
X155136Y209662D02*
X156317Y208482D01*
X155536Y208840D02*
X157833Y207786D01*
X132508Y253169D02*
X152649Y233029D01*
X130420Y251081D02*
X150561Y230941D01*
X128332Y248993D02*
X148473Y228853D01*
X126244Y246905D02*
X146385Y226765D01*
X124157Y244818D02*
X144297Y224677D01*
X122069Y242730D02*
X142209Y222589D01*
X119981Y240642D02*
X140121Y220502D01*
X117893Y238554D02*
X138033Y218414D01*
X115805Y236466D02*
X135945Y216326D01*
X113717Y234378D02*
X133857Y214238D01*
X42233Y255752D02*
X65487Y232498D01*
X41351Y252458D02*
X64605Y229205D01*
X40468Y249165D02*
X63722Y225911D01*
X39586Y245872D02*
X62840Y222618D01*
X30432Y211709D02*
X70709Y251986D01*
X38703Y242578D02*
X61957Y219324D01*
X111629Y232290D02*
X131769Y212150D01*
X37821Y239285D02*
X61075Y216031D01*
X36939Y235992D02*
X60192Y212738D01*
X109541Y230202D02*
X129681Y210062D01*
X107453Y228114D02*
X127593Y207975D01*
X105365Y226027D02*
X125505Y205887D01*
X103277Y223939D02*
X123417Y203799D01*
X101189Y221851D02*
X121329Y201711D01*
X99101Y219763D02*
X119241Y199623D01*
X97013Y217675D02*
X117153Y197535D01*
X94925Y215587D02*
X115065Y195447D01*
X92838Y213499D02*
X112977Y193359D01*
X36056Y232698D02*
X59310Y209444D01*
X35174Y229405D02*
X58427Y206151D01*
X28903Y206005D02*
X69180Y246282D01*
X27375Y200300D02*
X67652Y240577D01*
X25846Y194596D02*
X66123Y234873D01*
X34291Y226112D02*
X57545Y202858D01*
X33409Y222818D02*
X56662Y199564D01*
X32526Y219525D02*
X55780Y196271D01*
X31644Y216231D02*
X54898Y192977D01*
X287449Y194273D02*
X292878Y188844D01*
X285084Y188056D02*
X286169Y191581D01*
X284793Y186289D02*
X293641Y195138D01*
X283969Y181290D02*
X293058Y190379D01*
X270995Y189847D02*
X280166Y180676D01*
X283771Y180087D02*
X285084Y188056D01*
X273807Y179479D02*
X277986Y183658D01*
X277227Y184696D02*
X281068Y179443D01*
X273042Y188708D02*
X277227Y184696D01*
X272280Y182128D02*
X276012Y185861D01*
X269289Y190346D02*
X270272Y190250D01*
X268483Y190006D02*
X269289Y190346D01*
X270272Y190250D02*
X273042Y188708D01*
X268284Y189655D02*
X268292Y188951D01*
X259741Y191008D02*
X261465Y185840D01*
X270634Y184658D02*
X273880Y187904D01*
X269235Y186808D02*
X273134Y180815D01*
X269044Y187243D02*
X271414Y189614D01*
X268292Y188951D02*
X269235Y186808D01*
X286423Y154513D02*
X397814Y265904D01*
X290501Y154415D02*
X369618Y233532D01*
X286121Y191425D02*
X338795Y138751D01*
X285138Y188232D02*
X332294Y141076D01*
X263045Y135311D02*
X402039Y274305D01*
X284526Y184668D02*
X323799Y145395D01*
X283935Y181083D02*
X321432Y143587D01*
X268745Y187921D02*
X315390Y141276D01*
X250643Y135436D02*
X302152Y186945D01*
X275190Y176686D02*
X279750Y181246D01*
X261631Y185495D02*
X266371Y178211D01*
X254899Y173099D02*
X263864Y182063D01*
X251198Y177749D02*
X260920Y187472D01*
X253088Y175463D02*
X262218Y184593D01*
X276572Y173893D02*
X281665Y178985D01*
X273221Y180662D02*
X276637Y173762D01*
X256710Y170733D02*
X265510Y179534D01*
X254694Y135311D02*
X300574Y181191D01*
X241372Y188802D02*
X260485Y207916D01*
X243449Y186704D02*
X259921Y203176D01*
X245411Y184490D02*
X259357Y198435D01*
X239294Y190901D02*
X261766Y213372D01*
X179464Y268851D02*
X260959Y187356D01*
X249269Y179996D02*
X259876Y190603D01*
X247340Y182243D02*
X259450Y194353D01*
X243957Y186185D02*
X252464Y176275D01*
X234994Y195245D02*
X243884Y186264D01*
X230859Y188225D02*
X241711Y177373D01*
X225115Y189470D02*
X228808Y189167D01*
X221465Y188257D02*
X225115Y189470D01*
X228808Y189167D02*
X232051Y187678D01*
X217927Y185615D02*
X221465Y188257D01*
X212434Y176568D02*
X225320Y189453D01*
X232051Y187678D02*
X235191Y185188D01*
X241192Y178085D01*
X214746Y181693D02*
X217927Y185615D01*
X213058Y178461D02*
X214746Y181693D01*
X198264Y237523D02*
X282370Y153417D01*
X197593Y234019D02*
X282309Y149303D01*
X247017Y135986D02*
X303807Y192776D01*
X185705Y258434D02*
X270047Y174092D01*
X196679Y243284D02*
X285451Y154513D01*
X243162Y136306D02*
X292574Y185719D01*
X225467Y189441D02*
X279597Y135311D01*
X219653Y186904D02*
X271246Y135311D01*
X222224Y188509D02*
X275422Y135311D01*
X211268Y158698D02*
X236366Y183797D01*
X211441Y171399D02*
X229083Y189041D01*
X217407Y184974D02*
X267070Y135311D01*
X210897Y166679D02*
X231945Y187727D01*
X211133Y162739D02*
X234293Y185900D01*
X213919Y180110D02*
X258718Y135311D01*
X215537Y182668D02*
X262894Y135311D01*
X212437Y155692D02*
X238279Y181533D01*
X213196Y152275D02*
X240191Y179270D01*
X281972Y178871D02*
X318567Y142275D01*
X276308Y172006D02*
X309036Y139279D01*
X291417Y138628D02*
X327729Y174940D01*
X266513Y178025D02*
X271911Y172018D01*
X274587Y177904D02*
X312213Y140278D01*
X272528Y171611D02*
X289627Y154513D01*
X273077Y171519D02*
X275332Y171587D01*
X283713Y154513D02*
X290012D01*
X256734Y170702D02*
X282309Y145127D01*
X255101Y168159D02*
X282309Y140951D01*
X252517Y176209D02*
X256933Y170441D01*
X243772Y174597D02*
X246499Y172096D01*
X246902Y171832D02*
X255121Y168150D01*
X241192Y178085D02*
X243573Y174819D01*
X227804Y137653D02*
X267301Y177149D01*
X224758Y138781D02*
X254434Y168458D01*
X227359Y137756D02*
X230855Y136946D01*
X222070Y140270D02*
X251550Y169750D01*
X223926Y139110D02*
X227359Y137756D01*
X282309Y135311D02*
Y153108D01*
X275573Y135311D02*
X282309Y142047D01*
X291417Y135311D02*
Y153108D01*
X258869Y135311D02*
X302214Y178655D01*
X271397Y135311D02*
X282309Y146222D01*
X291417Y136019D02*
X292125Y135311D01*
X291417D02*
X292991D01*
X291417Y140195D02*
X295650Y135961D01*
X279749Y135311D02*
X282309Y137871D01*
X247537Y171547D02*
X282309Y136776D01*
X239112Y136433D02*
X274233Y171554D01*
X267221Y135311D02*
X282309Y150398D01*
X231247Y136920D02*
X269277Y174949D01*
X235161Y136657D02*
X271253Y172750D01*
X245437Y136225D02*
X251471Y135311D01*
X282309D01*
X230855Y136946D02*
X238001Y136467D01*
X245270Y136241D01*
X211823Y174715D02*
X213058Y178461D01*
X214629Y149532D02*
X242031Y176934D01*
X210832Y166121D02*
X211275Y161141D01*
X210832Y166121D02*
X211823Y174715D01*
X204321Y156301D02*
X211633Y148989D01*
X217594Y144145D02*
X246002Y172553D01*
X215980Y146707D02*
X243823Y174550D01*
X219700Y142076D02*
X248666Y171042D01*
X211734Y173943D02*
X250169Y135508D01*
X212645Y177208D02*
X254542Y135311D01*
X211958Y157016D02*
X232113Y136862D01*
X211302Y170199D02*
X245261Y136241D01*
X211203Y161947D02*
X236588Y136562D01*
X210871Y166455D02*
X240950Y136375D01*
X213932Y150867D02*
X226836Y137962D01*
X201723Y144978D02*
X209936Y153190D01*
X205760Y144839D02*
X211025Y150104D01*
X217676Y144016D02*
X220669Y141147D01*
X223926Y139110D01*
X214832Y148530D02*
X217676Y144016D01*
X202638Y143031D02*
X211733Y148298D01*
X108331Y188714D02*
X157311Y237690D01*
X90750Y211411D02*
X110889Y191272D01*
X88662Y209323D02*
X108801Y189184D01*
X86574Y207235D02*
X106676Y187134D01*
X107864Y176394D02*
X113501Y182031D01*
X105604Y178309D02*
X111280Y183985D01*
X84486Y205148D02*
X104809Y184825D01*
X82398Y203060D02*
X102561Y182897D01*
X80310Y200972D02*
X100450Y180832D01*
X78222Y198884D02*
X98362Y178744D01*
X76134Y196796D02*
X96274Y176656D01*
X109407Y185633D02*
X124347Y172491D01*
X110125Y174479D02*
X115723Y180077D01*
X108882Y184927D02*
X122810Y170999D01*
X104645Y180813D02*
X115706Y169752D01*
X106573Y183060D02*
X120659Y168974D01*
X114647Y170649D02*
X120166Y176169D01*
X116908Y168734D02*
X122388Y174214D01*
X112386Y172564D02*
X117945Y178123D01*
X103663Y179954D02*
X118760Y167165D01*
X74046Y194708D02*
X94186Y174568D01*
X71958Y192620D02*
X92098Y172480D01*
X69870Y190532D02*
X90010Y170393D01*
X67782Y188444D02*
X87922Y168305D01*
X65694Y186356D02*
X85834Y166217D01*
X63607Y184268D02*
X83746Y164129D01*
X61519Y182181D02*
X81658Y162041D01*
X59431Y180093D02*
X79570Y159953D01*
X57343Y178005D02*
X77482Y157865D01*
X52499Y173161D02*
X137172Y257833D01*
X49978Y174617D02*
X80970Y290280D01*
X32048Y150688D02*
X141659Y260298D01*
X24318Y188892D02*
X64595Y229169D01*
X22790Y183187D02*
X63067Y223464D01*
X55255Y175917D02*
X75395Y155777D01*
X21261Y177483D02*
X61538Y217760D01*
X26349Y196471D02*
X71219Y151601D01*
X19733Y171779D02*
X60010Y212056D01*
X18204Y166074D02*
X58481Y206351D01*
X30761Y212938D02*
X54015Y189684D01*
X29879Y209645D02*
X53133Y186391D01*
X28996Y206351D02*
X52250Y183097D01*
X28114Y203058D02*
X51368Y179804D01*
X16676Y160370D02*
X56953Y200647D01*
X27231Y199765D02*
X50485Y176511D01*
X26753Y153744D02*
X50839Y177830D01*
X24106Y155273D02*
X52367Y183534D01*
X15147Y154666D02*
X55424Y194943D01*
X32878Y138990D02*
X152264Y258376D01*
X31911Y146374D02*
X146200Y260664D01*
X34992Y136928D02*
X154704Y256640D01*
X30231Y140519D02*
X149464Y259752D01*
X29969Y127730D02*
X156679Y254439D01*
X29469Y114702D02*
X160119Y245352D01*
X31556Y112613D02*
X159025Y240082D01*
X25007Y118592D02*
X158414Y251999D01*
X27382Y116791D02*
X159526Y248935D01*
X25466Y193178D02*
X69131Y149513D01*
X24584Y189884D02*
X67043Y147425D01*
X23701Y186591D02*
X64955Y145338D01*
X13619Y148961D02*
X53896Y189239D01*
X7554Y126329D02*
X53448Y297606D01*
X22819Y183298D02*
X62867Y143250D01*
X31894Y112276D02*
X100466Y180849D01*
X21937Y180004D02*
X60779Y141162D01*
X21054Y176711D02*
X58691Y139074D01*
X207019Y157780D02*
X209377Y155422D01*
X201909Y154980D02*
X208612Y158653D01*
X198370Y153014D02*
X201909Y154980D01*
X198902Y150508D02*
X205148Y156755D01*
X53167Y173829D02*
X73307Y153689D01*
X29401Y152216D02*
X50359Y173174D01*
X201625Y154822D02*
X209463Y146984D01*
X200501Y147594D02*
X204174Y143921D01*
X200423Y147853D02*
X209094Y156525D01*
X198940Y153331D02*
X206819Y145452D01*
X32927Y148135D02*
X50340Y130722D01*
X31399Y145487D02*
X48252Y128634D01*
X33935Y134599D02*
X44076Y124458D01*
X32407Y131952D02*
X41988Y122371D01*
X29870Y142840D02*
X46164Y126546D01*
X30878Y129304D02*
X39900Y120283D01*
X20172Y173418D02*
X56603Y136986D01*
X19289Y170124D02*
X54515Y134898D01*
X18407Y166831D02*
X52428Y132810D01*
X16642Y160244D02*
X22176Y154710D01*
X17524Y163538D02*
X28088Y152974D01*
X28956Y141256D02*
X33813Y149669D01*
X28956Y141256D02*
X34267Y138188D01*
X22902Y155968D02*
X33813Y149669D01*
X11682Y136533D02*
X22902Y155968D01*
X15759Y156951D02*
X20647Y152063D01*
X14877Y153657D02*
X19119Y149415D01*
X13994Y150364D02*
X17591Y146768D01*
X13112Y147071D02*
X16062Y144121D01*
X12090Y143257D02*
X20308Y151475D01*
X12229Y143777D02*
X14534Y141473D01*
X11347Y140484D02*
X13005Y138826D01*
X10562Y137553D02*
X14604Y141595D01*
X9033Y131849D02*
X12973Y135788D01*
X24772Y118728D02*
X34819Y136129D01*
X20237Y131594D02*
X21005Y130826D01*
X29350Y126657D02*
X37812Y118195D01*
X11682Y136533D02*
X21145Y131070D01*
X16707Y123382D02*
X21145Y131070D01*
X27821Y124010D02*
X35724Y116107D01*
X26508Y117665D02*
X31894Y112276D01*
X24772Y118728D02*
X26196Y117905D01*
X26293Y121362D02*
X33636Y114019D01*
X10465Y137191D02*
X19477Y128179D01*
X10954Y125418D02*
X18268Y132731D01*
X14248Y124536D02*
X20915Y131203D01*
X7660Y126300D02*
X15620Y134260D01*
X9582Y133897D02*
X17948Y125531D01*
X8700Y130604D02*
X14974Y124329D01*
X15285Y124205D02*
X16707Y123382D01*
X7817Y127311D02*
X9255Y125873D01*
X7554Y126329D02*
X14920Y124356D01*
X408106Y186363D02*
X417239Y177230D01*
X405391Y184903D02*
X418885Y171409D01*
X403311Y182807D02*
X419548Y166570D01*
X401360Y180582D02*
X419667Y162275D01*
X417176Y177445D02*
X418834Y171778D01*
X419719Y165323D01*
X399442Y178324D02*
X419597Y158169D01*
X409117Y186663D02*
X410958Y186362D01*
X412921Y184961D01*
X407081Y186059D02*
X409117Y186663D01*
X404788Y184491D02*
X407081Y186059D01*
X412921Y184961D02*
X415042Y182055D01*
X417176Y177445D01*
X399601Y178575D02*
X404788Y184491D01*
X419575Y156865D02*
X419719Y165323D01*
X399365Y142180D02*
X419671Y162485D01*
X397820Y175770D02*
X419135Y154455D01*
X396545Y143536D02*
X419552Y166542D01*
X400426Y139066D02*
X419598Y158237D01*
X403940Y138403D02*
X418820Y153283D01*
X396198Y173216D02*
X418360Y151055D01*
X415684Y142004D02*
X417636Y147339D01*
X407421Y137708D02*
X417762Y148049D01*
X394811Y171033D02*
X410255Y186477D01*
X389596Y161642D02*
X412918Y184964D01*
X384681Y152551D02*
X414681Y182551D01*
X388831Y148350D02*
X417346Y176864D01*
X394576Y170662D02*
X417722Y147517D01*
X393071Y167991D02*
X416588Y144475D01*
X391176Y146519D02*
X418291Y173634D01*
X394265Y170173D02*
X399601Y178575D01*
X388946Y160454D02*
X394265Y170173D01*
X383051Y149532D02*
X388946Y160454D01*
X384252Y151756D02*
X387482Y148526D01*
X382869Y144416D02*
X384050Y146461D01*
X382711Y149120D02*
X384612Y147220D01*
X391271Y142438D02*
X419048Y170215D01*
X391594Y165293D02*
X415420Y141467D01*
X379186Y142879D02*
X416093Y179787D01*
X390117Y162594D02*
X414042Y138669D01*
X388643Y159892D02*
X412605Y135930D01*
X387179Y157180D02*
X405955Y138404D01*
X385716Y154468D02*
X396656Y143528D01*
X391761Y144247D02*
X393522Y142486D01*
X390029Y140282D02*
X391210Y142327D01*
X412996Y136545D02*
X415684Y142004D01*
X409018Y135130D02*
X415482Y141594D01*
X400423Y139760D02*
X402477Y137707D01*
X408960Y135399D02*
X410984Y133375D01*
X400189Y134416D02*
X401370Y136461D01*
X391515Y139424D02*
X392696Y141469D01*
X399446Y136562D02*
X400703Y135305D01*
X398703Y135274D02*
X399884Y137320D01*
X409440Y130942D02*
X412996Y136545D01*
X407349Y130282D02*
X408530Y132327D01*
X391615Y113551D02*
X410193Y132129D01*
X408284Y131900D02*
X409352Y130832D01*
X406637Y129371D02*
X407502Y128505D01*
X404909Y125244D02*
X409440Y130942D01*
X397714Y134118D02*
X399638Y132194D01*
X403614Y128218D02*
X405653Y126179D01*
X394395Y133261D02*
X403674Y123982D01*
X399297Y119507D02*
X404909Y125244D01*
X392653Y113917D02*
X399297Y119507D01*
X391613Y113550D02*
X392653Y113917D01*
X390586Y141246D02*
X391842Y139990D01*
X388745Y138911D02*
X391021Y136635D01*
X381150Y128140D02*
X391011Y138002D01*
X386865Y125504D02*
X394592Y133231D01*
X388675Y123138D02*
X400513Y134976D01*
X384017Y126832D02*
X391901Y134716D01*
X382035Y134051D02*
X385727Y138278D01*
X379417Y131535D02*
X384211Y126742D01*
X381491Y128010D02*
X387200Y125348D01*
X385482Y137998D02*
X401609Y121871D01*
X385482Y137998D02*
X401609Y121871D01*
X383536Y135768D02*
X399544Y119760D01*
X381559Y133569D02*
X397301Y117828D01*
X388589Y122363D02*
X395033Y115920D01*
X387642Y110026D02*
X391089Y113233D01*
X387273Y119504D02*
X392765Y114012D01*
X387439Y119806D02*
X388438Y121947D01*
X378330Y121230D02*
X384039Y118568D01*
X384027Y118574D02*
X390197Y112403D01*
X382843Y115582D02*
X388034Y110391D01*
X382432Y116896D02*
X384084Y118547D01*
X381338Y146318D02*
X383005Y144651D01*
X379880Y143600D02*
X382134Y141346D01*
X379880Y143600D02*
X382134Y141346D01*
X378527Y137216D02*
X382174Y141391D01*
X378140Y141164D02*
X380187Y139117D01*
X376208Y138248D02*
X377656Y140276D01*
X376488Y138640D02*
X378219Y136910D01*
X374484Y136468D02*
X376073Y134879D01*
X373083Y135040D02*
X376067Y138081D01*
X377194Y129582D02*
X378970Y127806D01*
X371683Y131202D02*
X382344Y141862D01*
X374890Y127710D02*
X377371Y125230D01*
X377092Y124631D02*
X378090Y126772D01*
X372504Y125921D02*
X379437Y118988D01*
X372298Y134479D02*
X373841Y132935D01*
X369795Y132806D02*
X371523Y131078D01*
X365953Y130239D02*
X372861Y134856D01*
X367292Y131133D02*
X369116Y129309D01*
X364579Y129670D02*
X366620Y127629D01*
X361569Y128504D02*
X364032Y126042D01*
X358559Y127339D02*
X361348Y124549D01*
X360324Y124018D02*
X367737Y131431D01*
X358059Y127145D02*
X365680Y130097D01*
X352881Y120751D02*
X360044Y127914D01*
X355202Y126519D02*
X358567Y123155D01*
X351759Y125787D02*
X355682Y121863D01*
X350157Y125446D02*
X357844Y127081D01*
X348124Y125246D02*
X352690Y120680D01*
X346717Y118763D02*
X354276Y126322D01*
X342890Y124755D02*
X349996Y125421D01*
X336893Y124704D02*
X342770Y124749D01*
X344306Y124888D02*
X349583Y119611D01*
X331423Y125081D02*
X336785Y124707D01*
X341280Y117501D02*
X349118Y125339D01*
X336334Y116732D02*
X344510Y124907D01*
X340288Y124730D02*
X346354Y118665D01*
X336086Y124756D02*
X342992Y117851D01*
X331757Y116330D02*
X340156Y124729D01*
X331598Y125069D02*
X339485Y117181D01*
X327470Y116219D02*
X336012Y124761D01*
X323294Y116219D02*
X332108Y125033D01*
X327765Y124725D02*
X335819Y116672D01*
X323959Y124356D02*
X331973Y116342D01*
X319118Y116219D02*
X327610Y124710D01*
X370034Y124215D02*
X376271Y117978D01*
X320153Y123986D02*
X327920Y116219D01*
X306591Y116219D02*
X313734Y123362D01*
X310767Y116219D02*
X318359Y123811D01*
X380179Y118818D02*
X381236Y119875D01*
X312541Y123246D02*
X319568Y116219D01*
X308735Y122876D02*
X315392Y116219D01*
X302415D02*
X309109Y122913D01*
X304929Y122507D02*
X311217Y116219D01*
X298239D02*
X304484Y122463D01*
X301123Y122137D02*
X307041Y116219D01*
X294063D02*
X299858Y122014D01*
X297317Y121767D02*
X302865Y116219D01*
X293511Y121397D02*
X298689Y116219D01*
X367480Y110295D02*
X378388Y121203D01*
X372510Y111149D02*
X375202Y113841D01*
X316347Y123616D02*
X323744Y116219D01*
X367478Y122596D02*
X375001Y115072D01*
X314943Y116219D02*
X322985Y124261D01*
X364834Y121063D02*
X374255Y111642D01*
X362099Y119622D02*
X370778Y110944D01*
X359271Y118275D02*
X367297Y110249D01*
X278287Y119918D02*
X281986Y116219D01*
X281536D02*
X285983Y120666D01*
X273184Y116219D02*
X276732Y119767D01*
X277360Y116219D02*
X281357Y120216D01*
X270675Y119178D02*
X273634Y116219D01*
X274481Y119548D02*
X277810Y116219D01*
X257992D02*
X327750D01*
X266869Y118809D02*
X269458Y116219D01*
X269008D02*
X272107Y119317D01*
X264833Y116219D02*
X267482Y118868D01*
X260657Y116219D02*
X262856Y118419D01*
X263063Y118439D02*
X265283Y116219D01*
X259257Y118069D02*
X261107Y116219D01*
X289705Y121027D02*
X294513Y116219D01*
X289888D02*
X295233Y121564D01*
X285712Y116219D02*
X290608Y121115D01*
X285899Y120658D02*
X290337Y116219D01*
X282093Y120288D02*
X286162Y116219D01*
X257992Y111495D02*
X327747D01*
X256436Y116174D02*
X258231Y117969D01*
X255451Y117699D02*
X256951Y116199D01*
X251645Y117329D02*
X253184Y115790D01*
X251524Y115438D02*
X253606Y117520D01*
X247839Y116960D02*
X249833Y114965D01*
X244600Y112690D02*
X248981Y117070D01*
X244033Y116590D02*
X246811Y113812D01*
X379223Y109510D02*
X400120Y130407D01*
X381834Y112415D02*
X386247Y108002D01*
X378928Y111145D02*
X384656Y105417D01*
X376419Y102530D02*
X402353Y128465D01*
X385092Y106263D02*
X387413Y109756D01*
X382394Y100893D02*
X385000Y106104D01*
X379307Y106591D02*
X383264Y102633D01*
X374272Y104244D02*
X375113Y103851D01*
X377321Y104400D02*
X381952Y99770D01*
X379527Y93491D02*
X382335Y100762D01*
X376610Y100935D02*
X380788Y96757D01*
X372778Y94714D02*
X386606Y108542D01*
X375345Y98025D02*
X379625Y93745D01*
X374359Y92118D02*
X381916Y99676D01*
X372754Y96440D02*
X378635Y90559D01*
X375324Y97980D02*
X376406Y100299D01*
X369931Y96042D02*
X370956Y97067D01*
X369452Y97768D02*
X371772Y96687D01*
X368159Y101321D02*
X369241Y103640D01*
X360928Y107919D02*
X376871Y123862D01*
X367081Y97368D02*
X368383Y98671D01*
X363363Y101655D02*
X368142Y96876D01*
X356344Y117026D02*
X364106Y109264D01*
X353313Y115881D02*
X361163Y108031D01*
X350172Y114846D02*
X358439Y106579D01*
X346915Y113927D02*
X355918Y104925D01*
X366267Y102927D02*
X368075Y101119D01*
X343532Y113135D02*
X353587Y103080D01*
X353083Y87546D02*
X369305Y103768D01*
X344383Y95549D02*
X387100Y138266D01*
X339699Y95042D02*
X366915Y122258D01*
X367182Y97324D02*
X372891Y94662D01*
X356171Y96320D02*
X375230Y77261D01*
X360727Y100116D02*
X364164Y96678D01*
X352747Y91386D02*
X362625Y101264D01*
X335123Y94641D02*
X358347Y117866D01*
X362783Y93945D02*
X363781Y96086D01*
X358335Y98332D02*
X362764Y93903D01*
X352625Y92775D02*
X356559Y96708D01*
X376563Y83709D02*
X379490Y93384D01*
X354083Y94232D02*
X374518Y73797D01*
X374010Y91008D02*
X377665Y87353D01*
X372533Y88309D02*
X376695Y84147D01*
X367958Y88708D02*
X375942Y80724D01*
X373130Y89120D02*
X374129Y91261D01*
X364020Y90544D02*
X369729Y87882D01*
X353419Y83706D02*
X362543Y92830D01*
X354091Y76026D02*
X367149Y89085D01*
X353755Y79866D02*
X364302Y90413D01*
X373193Y67355D02*
X376529Y83576D01*
X353547Y82240D02*
X372397Y63390D01*
X352746Y91393D02*
X373806Y70333D01*
X353147Y86817D02*
X373096Y66868D01*
X353947Y77664D02*
X371699Y59912D01*
X369928Y51092D02*
X373192Y67348D01*
X353696Y73739D02*
X371001Y56435D01*
X367518Y43360D02*
X369928Y51092D01*
X364148Y36006D02*
X367518Y43360D01*
X352625Y92775D02*
X354286Y73791D01*
X359498Y29139D02*
X364148Y36006D01*
X353239Y22856D02*
X359498Y29139D01*
X352167Y22163D02*
X353239Y22856D01*
X349856Y73404D02*
X370303Y52957D01*
X346017Y73068D02*
X369468Y49616D01*
X342177Y72732D02*
X368476Y46433D01*
X338441Y72291D02*
X367472Y43261D01*
X338632Y31337D02*
X372828Y65532D01*
X346236Y30589D02*
X370730Y55083D01*
X337104Y33984D02*
X373897Y70778D01*
X338566Y72416D02*
X354286Y73791D01*
X336353Y70203D02*
X366160Y40397D01*
X334265Y68115D02*
X364847Y37533D01*
X332177Y66027D02*
X363361Y34844D01*
X330089Y63940D02*
X361675Y32354D01*
X328002Y61852D02*
X359989Y29864D01*
X298883Y4116D02*
X376059Y81292D01*
X294089Y3497D02*
X377544Y86952D01*
X289296Y2880D02*
X379355Y92939D01*
X284502Y2262D02*
X370011Y87771D01*
X340161Y28690D02*
X371778Y60308D01*
X348440Y28618D02*
X369481Y49659D01*
X328206Y29263D02*
X374978Y76035D01*
X325914Y59764D02*
X358021Y27656D01*
X349969Y25970D02*
X367589Y43591D01*
X323826Y57676D02*
X355937Y25564D01*
X348075Y29251D02*
X353853Y23473D01*
X351497Y23323D02*
X364079Y35905D01*
X347730Y29849D02*
X352167Y22163D01*
X340011Y112480D02*
X351438Y101053D01*
X336339Y111976D02*
X349350Y98965D01*
X332498Y111641D02*
X347142Y96998D01*
X328465Y111498D02*
X344403Y95560D01*
X347650Y97265D02*
X351826Y101441D01*
X344159Y95432D02*
X347650Y97265D01*
X333897Y94534D02*
X344159Y95432D01*
X291442Y105246D02*
X297691Y111495D01*
X315941D02*
X333992Y93444D01*
X286692Y108847D02*
X289339Y111495D01*
X289864Y107844D02*
X293515Y111495D01*
X324293D02*
X340662Y95126D01*
X320117Y111495D02*
X336822Y94790D01*
X311765Y111495D02*
X334392Y88867D01*
X307589Y111495D02*
X334793Y84291D01*
X333897Y94534D02*
X335156Y80141D01*
X303414Y111495D02*
X335030Y79879D01*
X299238Y111495D02*
X333673Y77059D01*
X333607Y76922D02*
X335156Y80141D01*
X291531Y25381D02*
X338566Y72416D01*
X286798Y30113D02*
X333607Y76922D01*
X295062Y111495D02*
X331621Y74936D01*
X290886Y111495D02*
X329533Y72848D01*
X286710Y111495D02*
X327445Y70760D01*
X291258Y102771D02*
X325357Y68672D01*
X289379Y100474D02*
X323269Y66584D01*
X285673Y100004D02*
X321181Y64496D01*
X270007Y111495D02*
X319093Y62409D01*
X265831Y111495D02*
X317005Y60321D01*
X261655Y111495D02*
X314917Y58233D01*
X257485Y111489D02*
X312829Y56145D01*
X253715Y111083D02*
X310741Y54057D01*
X250437Y110185D02*
X308654Y51969D01*
X247536Y108911D02*
X306566Y49881D01*
X278359Y111495D02*
X283151Y106702D01*
X274183Y111495D02*
X282682Y102996D01*
X282534Y111495D02*
X285448Y108581D01*
X244952Y107319D02*
X304478Y47793D01*
X257533Y25403D02*
X345772Y113641D01*
X256958Y20651D02*
X351606Y115300D01*
X251043Y27264D02*
X335683Y111905D01*
X254288Y26333D02*
X340518Y112564D01*
X279708Y1644D02*
X351622Y73558D01*
X275252Y1364D02*
X347046Y73158D01*
X270896Y1183D02*
X342470Y72757D01*
X247797Y28195D02*
X331173Y111571D01*
X255279Y14797D02*
X333987Y93505D01*
X242656Y105439D02*
X302390Y45705D01*
X253600Y8942D02*
X334323Y89665D01*
X253948Y939D02*
X334995Y81985D01*
X249961Y1128D02*
X334659Y85825D01*
X321738Y55588D02*
X346772Y30554D01*
X326013Y27997D02*
X336924Y34296D01*
X317562Y51412D02*
X335500Y33474D01*
X319650Y53500D02*
X343818Y29331D01*
X339991Y28983D02*
X341171Y27803D01*
X340797Y27588D02*
X345671Y30401D01*
X336924Y34296D02*
X340797Y27588D01*
X315474Y49324D02*
X332853Y31945D01*
X313386Y47236D02*
X330205Y30417D01*
X311298Y45148D02*
X327558Y28889D01*
X309210Y43060D02*
X328389Y23882D01*
X326013Y27997D02*
X334836Y12716D01*
X307122Y40973D02*
X334093Y14002D01*
X325368Y9721D02*
X332466Y16820D01*
X319596Y8125D02*
X330938Y19467D01*
X305034Y38885D02*
X332276Y11643D01*
X314403Y7108D02*
X329410Y22114D01*
X332188Y11607D02*
X334836Y12716D01*
X331139Y11317D02*
X333995Y14172D01*
X319408Y8073D02*
X332188Y11607D01*
X302947Y36797D02*
X329014Y10729D01*
X300859Y34709D02*
X325743Y9825D01*
X298771Y32621D02*
X322472Y8920D01*
X309230Y6111D02*
X327881Y24762D01*
X304057Y5113D02*
X326353Y27409D01*
X298875Y4114D02*
X319408Y8073D01*
X296683Y30533D02*
X319186Y8030D01*
X294595Y28445D02*
X315685Y7355D01*
X292507Y26357D02*
X312184Y6680D01*
X291079Y23609D02*
X308683Y6005D01*
X288992Y21521D02*
X305182Y5330D01*
X284546Y21791D02*
X301681Y4655D01*
X246150Y28667D02*
X258260Y25194D01*
X252075Y3623D02*
X258260Y25194D01*
X243503Y19436D02*
X246150Y28667D01*
X257776Y23506D02*
X279646Y1636D01*
X246229Y1571D02*
X249126Y4468D01*
X242496Y2014D02*
X245881Y5399D01*
X266540Y1003D02*
X286617Y21080D01*
X262184Y823D02*
X283778Y22417D01*
X256845Y20260D02*
X275723Y1383D01*
X257942Y757D02*
X282489Y25304D01*
X278612Y1503D02*
X298875Y4114D01*
X259211Y699D02*
X278612Y1503D01*
X255915Y17015D02*
X271713Y1217D01*
X254984Y13770D02*
X267703Y1051D01*
X254054Y10525D02*
X263693Y885D01*
X253123Y7279D02*
X259683Y719D01*
X252193Y4034D02*
X255352Y875D01*
X250062Y1116D02*
X259211Y699D01*
X246962Y5089D02*
X250977Y1074D01*
X193627Y153473D02*
X194542Y152874D01*
X174046Y169873D02*
X197765Y146154D01*
X176876Y174068D02*
X177489Y173270D01*
X177561Y173184D02*
X184197Y165759D01*
X175729Y172366D02*
X190046Y158049D01*
X171439Y156451D02*
X182568Y167581D01*
X184197Y165759D02*
X193252Y153823D01*
X174862Y151523D02*
X186311Y162972D01*
X173895Y154732D02*
X184510Y165347D01*
X200510Y140597D02*
X202257Y134088D01*
X176609Y115687D02*
X200724Y139802D01*
X172364Y167379D02*
X201011Y138733D01*
X170682Y164885D02*
X202238Y133329D01*
X202119Y128603D02*
X202257Y134088D01*
X182656Y113384D02*
X202229Y132956D01*
X179965Y114868D02*
X201607Y136510D01*
X175204Y152012D02*
X200633Y126583D01*
X173484Y149556D02*
X198863Y124177D01*
X171765Y147100D02*
X197094Y121771D01*
X172493Y115748D02*
X199699Y142954D01*
X170045Y144644D02*
X195332Y119357D01*
X168982Y158171D02*
X180597Y169786D01*
X169000Y162392D02*
X202135Y129256D01*
X168943Y162307D02*
X178627Y171991D01*
X167060Y159517D02*
X176876Y174068D01*
X167060Y159517D02*
X176051Y153222D01*
X165108Y137594D02*
X188112Y160598D01*
X163180Y134839D02*
X176051Y153222D01*
X163629Y189283D02*
X169467Y183716D01*
X170896Y181856D01*
X162116Y190155D02*
X170703Y181568D01*
X167317Y159898D02*
X169190Y158026D01*
X153022Y155359D02*
X170896Y181856D01*
X140331Y154574D02*
X169470Y183713D01*
X168317Y115748D02*
X198052Y145482D01*
X168325Y142188D02*
X210119Y100394D01*
X159966Y115748D02*
X195127Y150909D01*
X164142Y115748D02*
X196731Y148338D01*
X164885Y137275D02*
X201035Y101126D01*
X166605Y139732D02*
X205904Y100433D01*
X163067Y134918D02*
X194353Y103632D01*
X153250Y121560D02*
X189914Y158223D01*
X155338Y119472D02*
X191715Y155849D01*
X140278Y153531D02*
X178446Y115363D01*
X157426Y117384D02*
X193570Y153528D01*
X139296Y150338D02*
X173885Y115748D01*
X137477Y147981D02*
X169710Y115748D01*
X240227Y116220D02*
X244067Y112380D01*
X238718Y116073D02*
X331423Y125081D01*
X236434Y115837D02*
X241573Y110698D01*
X237109Y106591D02*
X238772Y108254D01*
X240450Y103251D02*
X242113Y104914D01*
X232974Y115121D02*
X239314Y108781D01*
X236284Y115822D02*
X238718Y116073D01*
X229974Y114485D02*
X236284Y115822D01*
X221269Y111176D02*
X229974Y114485D01*
X229583Y114336D02*
X237218Y106701D01*
X216566Y108543D02*
X221269Y111176D01*
X226557Y113186D02*
X235000Y104744D01*
X211750Y105029D02*
X216566Y108543D01*
X229413Y101679D02*
X244356Y116621D01*
X224036Y100478D02*
X239730Y116172D01*
X223531Y112036D02*
X232480Y103087D01*
X219777Y100394D02*
X234914Y115532D01*
X220594Y110798D02*
X229631Y101760D01*
X217917Y109299D02*
X226393Y100823D01*
X215601Y100394D02*
X229519Y114312D01*
X211425Y100394D02*
X222782Y111751D01*
X215370Y107670D02*
X222641Y100399D01*
X212955Y105909D02*
X218471Y100394D01*
X207383Y95669D02*
X222144D01*
X195354Y119405D02*
X202119Y128603D01*
X195843Y117324D02*
X200033Y115165D01*
X184851Y111403D02*
X202121Y128672D01*
X189071Y107270D02*
X198008Y116208D01*
X200033Y115165D02*
X203680Y112321D01*
X209864Y105240D01*
X191411Y105435D02*
X200656Y114680D01*
X186939Y109315D02*
X195369Y117745D01*
X159467Y115748D02*
X175385D01*
X184127Y112127D02*
X187711Y108543D01*
X158416Y111024D02*
X175385D01*
X199916Y101413D02*
X207011Y108507D01*
X203364Y100684D02*
X208957Y106278D01*
X198982Y115707D02*
X214295Y100394D01*
X207249Y100394D02*
X212247Y105392D01*
X207380Y100394D02*
X222148D01*
X193983Y103832D02*
X203002Y112850D01*
X196808Y102480D02*
X205064Y110736D01*
X158073Y110681D02*
X174304Y94450D01*
X180786Y108787D02*
X184369Y105204D01*
X176014Y94214D02*
X185724Y103923D01*
X155985Y108593D02*
X172185Y92393D01*
X158639Y192161D02*
X163629Y189283D01*
X155193Y192902D02*
X169020Y179075D01*
X151297Y192622D02*
X167338Y176581D01*
X148426Y191317D02*
X165656Y174087D01*
X146162Y189406D02*
X163974Y171594D01*
X144177Y187214D02*
X162292Y169100D01*
X142044Y185172D02*
X160609Y166606D01*
X151149Y192603D02*
X154509Y193049D01*
X158639Y192161D01*
X148468Y191350D02*
X151149Y192603D01*
X146501Y189800D02*
X148468Y191350D01*
X144782Y187803D02*
X146501Y189800D01*
X139910Y183130D02*
X158927Y164113D01*
X127664Y171408D02*
X144682Y187698D01*
X137945Y160541D02*
X165194Y187790D01*
X139599Y158019D02*
X167332Y185752D01*
X132360Y163307D02*
X160272Y191219D01*
X135574Y162345D02*
X162920Y189691D01*
X153429Y153267D02*
X158369Y149933D01*
X152859Y142065D02*
X158369Y149933D01*
X134940Y146342D02*
X165534Y115748D01*
X137777Y181088D02*
X157245Y161619D01*
X135643Y179045D02*
X155563Y159125D01*
X133510Y177003D02*
X153881Y156632D01*
X131376Y174961D02*
X157559Y148777D01*
X139249Y158736D02*
X154120Y143865D01*
X129243Y172918D02*
X155840Y146321D01*
X126935Y171050D02*
X135715Y162270D01*
X127040Y162163D02*
X157321Y192444D01*
X125001Y168808D02*
X130510Y163299D01*
X122867Y166766D02*
X127317Y162317D01*
X114308Y158622D02*
X141509Y131421D01*
X120528Y164930D02*
X124960Y160498D01*
X118575Y162707D02*
X123321Y157961D01*
X116441Y160665D02*
X122614Y154491D01*
X112174Y156580D02*
X139421Y129333D01*
X110041Y154538D02*
X137333Y127245D01*
X62195Y101494D02*
X153634Y192933D01*
X50063Y93538D02*
X133950Y177424D01*
X107907Y152495D02*
X135245Y125157D01*
X103640Y148411D02*
X137333Y114718D01*
X101506Y146369D02*
X135245Y112630D01*
X64285Y99409D02*
X123803Y158926D01*
X64908Y95855D02*
X122659Y153606D01*
X52643Y99594D02*
X119924Y163998D01*
X105774Y150453D02*
X133157Y123069D01*
X70535Y93131D02*
X125425Y148021D01*
X67750Y94521D02*
X123621Y150392D01*
X152859Y142065D02*
X163180Y134839D01*
X149074Y125735D02*
X160238Y136899D01*
X146986Y127823D02*
X157782Y138619D01*
X131471Y145635D02*
X161358Y115748D01*
X151162Y123647D02*
X162694Y135179D01*
X158862Y115947D02*
X159467Y115748D01*
X142449Y132361D02*
X158862Y115947D01*
X142810Y131999D02*
X152869Y142058D01*
X144898Y129911D02*
X155326Y140339D01*
X132148Y122060D02*
X142449Y132361D01*
X132148Y122060D02*
X138412Y115797D01*
X137437Y114822D02*
X138412Y115797D01*
X137434Y114819D02*
X138412Y115797D01*
X134375Y111760D02*
X137434Y114819D01*
X143562Y108698D02*
X144536Y109672D01*
X150800Y103408D02*
X158416Y111024D01*
X134375Y111760D02*
X137434Y108702D01*
X143558Y108694D02*
X144536Y109672D01*
X140500Y105636D02*
X143558Y108694D01*
X144536Y109672D02*
X150800Y103408D01*
X137441Y108694D02*
X140500Y105636D01*
X118086Y94747D02*
X134737Y111398D01*
X113579Y94417D02*
X136686Y117523D01*
X111492Y96504D02*
X134598Y119611D01*
X121730Y94216D02*
X136825Y109310D01*
X115306Y92690D02*
X116280Y93665D01*
X109404Y98593D02*
X132510Y121699D01*
X80171Y125946D02*
X108102Y98014D01*
X78038Y123903D02*
X106015Y95926D01*
X62290Y101404D02*
X64411Y99282D01*
X56702Y103480D02*
X58509Y101674D01*
X56077Y99282D02*
X58198Y101404D01*
X54569Y101438D02*
X56400Y99606D01*
X52486Y99345D02*
X55322Y96509D01*
X50709Y96528D02*
X52643Y99594D01*
X84438Y130030D02*
X119540Y94929D01*
X109042Y98954D02*
X115306Y92690D01*
X75904Y121861D02*
X103927Y93839D01*
X82305Y127988D02*
X116459Y93834D01*
X64681Y95501D02*
X65881Y94302D01*
X62290Y93069D02*
X64411Y95190D01*
X56077D02*
X58198Y93069D01*
X62614Y93393D02*
X63572Y92435D01*
X50036Y93857D02*
X50709Y96528D01*
X237833Y80867D02*
X268460Y111495D01*
X238169Y77027D02*
X272636Y111495D01*
X234447Y85833D02*
X260108Y111495D01*
X237497Y84707D02*
X264284Y111495D01*
X229871Y85433D02*
X255828Y111390D01*
X238505Y73188D02*
X276812Y111495D01*
X225294Y85032D02*
X250453Y110191D01*
X226927Y96113D02*
X236985Y86055D01*
X223175Y95689D02*
X233145Y85719D01*
X214843Y95669D02*
X225465Y85047D01*
X220718Y84632D02*
X235411Y99325D01*
X236985Y86055D02*
X237417Y85624D01*
X219019Y95669D02*
X229305Y85383D01*
X218942Y84477D02*
X237376Y86089D01*
X240559Y103360D02*
X300302Y43617D01*
X236241Y20814D02*
X326922Y111495D01*
X217389Y10314D02*
X318570Y111495D01*
X220085Y8834D02*
X322746Y111495D01*
X238364Y101379D02*
X298214Y41529D01*
X235927Y99641D02*
X296126Y39441D01*
X233231Y98161D02*
X294038Y37354D01*
X238840Y69348D02*
X280987Y111495D01*
X239176Y65508D02*
X285163Y111495D01*
X230248Y96968D02*
X291950Y35266D01*
X237376Y86089D02*
X239332Y63734D01*
X237417Y85624D02*
X289862Y33178D01*
X218942Y84477D02*
X220898Y62121D01*
X206479Y95682D02*
X219063Y83098D01*
X201842Y96143D02*
X219463Y78522D01*
X196137Y97672D02*
X219864Y73946D01*
X185590Y104044D02*
X220264Y69370D01*
X210667Y95669D02*
X221625Y84711D01*
X195535Y76152D02*
X215052Y95669D01*
X194744Y71185D02*
X219228Y95669D01*
X187098Y84418D02*
X199353Y96674D01*
X189528Y82673D02*
X202842Y95986D01*
X184669Y86165D02*
X196165Y97662D01*
X192261Y81230D02*
X206707Y95676D01*
X194995Y79788D02*
X210876Y95669D01*
X189517Y82679D02*
X195072Y79747D01*
X212413Y13689D02*
X310218Y111495D01*
X214775Y11875D02*
X314394Y111495D01*
X207959Y17587D02*
X301867Y111495D01*
X210051Y15503D02*
X306042Y111495D01*
X204037Y22017D02*
X283495Y101475D01*
X205948Y19752D02*
X286093Y99897D01*
X202395Y24550D02*
X282491Y104647D01*
X174434Y111024D02*
X220664Y64793D01*
X170258Y111024D02*
X255214Y26068D01*
X166082Y111024D02*
X249359Y27747D01*
X194049Y66315D02*
X223435Y95701D01*
X193986Y62076D02*
X228327Y96417D01*
X193922Y57836D02*
X219073Y82986D01*
X238618Y71895D02*
X282938Y27574D01*
X239018Y67319D02*
X283208Y23128D01*
X237817Y81047D02*
X287774Y31090D01*
X238217Y76471D02*
X285027Y29662D01*
X240084Y20481D02*
X245298Y25695D01*
X237728Y21201D02*
X243503Y19436D01*
X220898Y62121D02*
X239332Y63734D01*
X222877Y7450D02*
X236100Y20673D01*
X225888Y6286D02*
X234104Y14501D01*
X209505Y15922D02*
X215348Y11435D01*
X221956Y7806D01*
X228900Y5122D02*
X232265Y8486D01*
X229249Y4987D02*
X231065Y4561D01*
X221956Y7806D02*
X229249Y4987D01*
X238500Y63661D02*
X298141Y4020D01*
X234660Y63325D02*
X294442Y3543D01*
X230820Y62989D02*
X290743Y3066D01*
X226980Y62653D02*
X287044Y2589D01*
X241447Y6670D02*
X252075Y3623D01*
X241359Y2149D02*
X250062Y1116D01*
X223140Y62317D02*
X283345Y2113D01*
X240152Y2433D02*
X241447Y6670D01*
X241390Y6485D02*
X246314Y1561D01*
X231065Y4561D02*
X235846Y20201D01*
X240774Y4468D02*
X242635Y6329D01*
X240413Y3287D02*
X241576Y2124D01*
X240152Y2433D02*
X241359Y2149D01*
X196126Y39161D02*
X220752Y63787D01*
X200753Y27084D02*
X237217Y63549D01*
X195281Y42492D02*
X220416Y67627D01*
X195705Y77224D02*
X245729Y27201D01*
X198147Y32830D02*
X228065Y62748D01*
X199401Y29908D02*
X232641Y63148D01*
X196972Y35831D02*
X223489Y62348D01*
X194058Y66881D02*
X195857Y78177D01*
X194280Y49842D02*
X219744Y75307D01*
X193865Y53603D02*
X219408Y79147D01*
X194946Y43815D02*
X197133Y35195D01*
X200337Y27726D01*
X194695Y46082D02*
X220080Y71467D01*
X195132Y73623D02*
X244799Y23955D01*
X194558Y70020D02*
X243868Y20710D01*
X194050Y66353D02*
X239850Y20552D01*
X193988Y62239D02*
X235909Y20318D01*
X193926Y58125D02*
X234910Y17140D01*
X194333Y49367D02*
X232955Y10744D01*
X193865Y54010D02*
X233933Y13942D01*
X198001Y33170D02*
X224254Y6917D01*
X196106Y39241D02*
X230701Y4647D01*
X194851Y44672D02*
X231978Y7546D01*
X204483Y21328D02*
X209505Y15922D01*
X202302Y24694D02*
X215820Y11176D01*
X200337Y27726D02*
X204483Y21328D01*
X178172Y92195D02*
X188026Y102050D01*
X180329Y90176D02*
X190526Y100374D01*
X153897Y106505D02*
X170132Y90271D01*
X151809Y104417D02*
X168079Y88148D01*
X182485Y88158D02*
X193233Y98905D01*
X176011Y94217D02*
X184433Y86335D01*
X164889Y84850D02*
X173899Y94165D01*
X143458Y108593D02*
X166026Y86025D01*
X124019Y83977D02*
X147125Y107083D01*
X123501Y91811D02*
X138913Y107222D01*
X121931Y86065D02*
X145037Y109171D01*
X98742Y88654D02*
X109042Y98954D01*
X161906Y111024D02*
X191072Y81858D01*
X121188Y56091D02*
X176088Y110991D01*
X113236Y56490D02*
X167769Y111024D01*
X117130Y56209D02*
X171945Y111024D01*
X143669Y66045D02*
X183599Y105974D01*
X131211Y57763D02*
X181511Y108062D01*
X125811Y56538D02*
X179248Y109975D01*
X99373Y144326D02*
X161782Y81917D01*
X106140Y57747D02*
X159417Y111024D01*
X97239Y142284D02*
X159634Y79890D01*
X141370Y106505D02*
X163930Y83945D01*
X126107Y81889D02*
X149213Y104995D01*
X109678Y57108D02*
X163593Y111024D01*
X71693Y90112D02*
X127947Y146367D01*
X72456Y74172D02*
X152794Y154510D01*
X67212Y77280D02*
X169049Y179117D01*
X69834Y75726D02*
X160392Y166284D01*
X95106Y140242D02*
X157486Y77862D01*
X92972Y138199D02*
X155338Y75834D01*
X64590Y78834D02*
X131392Y145636D01*
X73771Y119819D02*
X101839Y91751D01*
X71637Y117776D02*
X99751Y89663D01*
X50788Y90087D02*
X55986Y95285D01*
X50075Y93405D02*
X64726Y78753D01*
X50036Y93857D02*
X50236Y91508D01*
X90839Y136157D02*
X153089Y73907D01*
X77699Y71064D02*
X157294Y150659D01*
X72456Y74172D02*
X152794Y154510D01*
X75077Y72618D02*
X154801Y152341D01*
X88705Y134115D02*
X150825Y71995D01*
X86572Y132072D02*
X148561Y70083D01*
X69503Y115734D02*
X128243Y56995D01*
X67370Y113692D02*
X124637Y56425D01*
X65236Y111650D02*
X120801Y56085D01*
X63103Y109607D02*
X116479Y56231D01*
X58836Y105523D02*
X106739Y57619D01*
X60969Y107565D02*
X111793Y56741D01*
X50871Y96784D02*
X74979Y72676D01*
X184433Y86335D02*
X189517Y82679D01*
X155045Y75558D02*
X164889Y84850D01*
X123669Y90800D02*
X146296Y68172D01*
X122573Y87719D02*
X144003Y66290D01*
X144486Y66643D02*
X155045Y75558D01*
X126754Y79362D02*
X141593Y64523D01*
X124667Y77274D02*
X139184Y62757D01*
X98742Y88654D02*
X117394Y70002D01*
X121430Y86566D02*
X122405Y87540D01*
X121430Y86566D02*
X127694Y80302D01*
X117394Y70002D02*
X127694Y80302D01*
X122579Y75187D02*
X136774Y60991D01*
X193859Y53654D02*
X194058Y66881D01*
X120491Y73098D02*
X134365Y59225D01*
X118403Y71011D02*
X131535Y57878D01*
X133472Y58570D02*
X144486Y66643D01*
X193859Y53654D02*
X194946Y43815D01*
X130360Y57459D02*
X133472Y58570D01*
X102985Y58767D02*
X115807Y71589D01*
X106298Y57696D02*
X114299Y56305D01*
X99830Y59788D02*
X113719Y73677D01*
X126432Y56598D02*
X130360Y57459D01*
X121041Y56077D02*
X126432Y56598D01*
X114299Y56305D02*
X121041Y56077D01*
X59517Y92314D02*
X63224Y88607D01*
X59379Y81974D02*
X64349Y86945D01*
X61968Y80388D02*
X67368Y85788D01*
X56920Y83691D02*
X62959Y89730D01*
X52470Y87593D02*
X58072Y93195D01*
X54485Y85432D02*
X61625Y92572D01*
X50236Y91508D02*
X51022Y89482D01*
X53452Y86310D02*
X54752Y85204D01*
X59866Y81634D01*
X51022Y89482D02*
X53452Y86310D01*
X88285Y64946D02*
X105367Y82028D01*
X91098Y63583D02*
X107455Y79940D01*
X82943Y67956D02*
X101191Y86204D01*
X85565Y66402D02*
X103279Y84116D01*
X96724Y60858D02*
X111631Y75765D01*
X97126Y60663D02*
X106298Y57696D01*
X93911Y62221D02*
X109543Y77852D01*
X80321Y69510D02*
X99103Y88292D01*
X71451Y88731D02*
X100664Y59518D01*
X69585Y86422D02*
X93669Y62338D01*
X65757Y86074D02*
X85232Y66599D01*
X86843Y65644D02*
X97126Y60663D01*
X59866Y81634D02*
X86843Y65644D01*
D14*
X453740Y186024D02*
D03*
D15*
X249112Y16145D02*
D03*
D16*
X336094Y23134D02*
D03*
D17*
X22747Y143101D02*
D03*
D18*
X164455Y147643D02*
D03*
D19*
X113218Y84478D02*
D03*
X146625Y117884D02*
D03*
D20*
X229137Y74105D02*
D03*
X344092Y84162D02*
D03*
D40*
X375610Y107946D02*
G03*
X354193Y99075I0J-30289D01*
G01*
X347020Y91902D02*
G03*
X344092Y84831I7071J-7071D01*
G01*
X343039Y81622D02*
G03*
X344092Y84162I-2541J2541D01*
G01*
X347020Y91902D02*
X354193Y99075D01*
X344092Y84162D02*
Y84831D01*
X146624Y117884D02*
X146625D01*
X287008Y25591D02*
X343039Y81622D01*
D41*
X327759Y113857D02*
G03*
X380254Y135602I8J74218D01*
G01*
X257992Y113857D02*
G03*
X240442Y106584I0J-24811D01*
G01*
X222154Y98032D02*
G03*
X238779Y104921I0J23503D01*
G01*
X186049Y106864D02*
G03*
X207373Y98032I21324J21324D01*
G01*
X182457Y110457D02*
G03*
X175385Y113386I-7071J-7071D01*
G01*
X148194Y116315D02*
G03*
X155265Y113386I7071J7071D01*
G01*
X380254Y135602D02*
X387039Y143371D01*
X327750Y113857D02*
X327759Y113857D01*
X257992Y113857D02*
X327750D01*
X238779Y104921D02*
X240442Y106584D01*
X222148Y98032D02*
X222154Y98032D01*
X207380Y98032D02*
X222148D01*
X207373Y98032D02*
X207380Y98032D01*
X186041Y106873D02*
X186049Y106864D01*
X182457Y110457D02*
X186041Y106873D01*
X155265Y113386D02*
X175385D01*
X146625Y117884D02*
X148194Y116315D01*
D42*
X395699Y138372D02*
X398168Y142647D01*
X393231Y134096D02*
X395699Y138372D01*
X392447Y140250D02*
X395699Y138372D01*
X398952Y136494D01*
X372283Y100810D02*
X373787Y104035D01*
X372283Y100810D02*
X375508Y99306D01*
X370778Y97584D02*
X372283Y100810D01*
X369057Y102314D02*
X372283Y100810D01*
X60244Y97236D02*
X63072Y100065D01*
X57416D02*
X60244Y97236D01*
X57416Y94408D02*
X60244Y97236D01*
X63072Y94408D01*
D43*
X113218Y84478D02*
Y84478D01*
X119342Y90603D01*
X140500Y111760D02*
X146624Y117884D01*
D44*
X372283Y100810D02*
D03*
D45*
X378938Y115082D02*
D03*
X375610Y107946D02*
D03*
D46*
X368456Y92603D02*
D03*
X382765Y123289D02*
D03*
D47*
X119342Y90603D02*
D03*
D48*
X140500Y111760D02*
D03*
D49*
X287008Y25591D02*
D03*
Y104331D02*
D03*
D50*
X103210Y181462D02*
D03*
X104781Y183033D02*
D03*
X106370Y184622D02*
D03*
X107931Y186183D02*
D03*
X120353Y166495D02*
D03*
X122029Y168099D02*
D03*
X123705Y169704D02*
D03*
X125342Y171271D02*
D03*
X433517Y154312D02*
D03*
X432963Y152006D02*
D03*
X432399Y149661D02*
D03*
X431874Y147474D02*
D03*
X419330Y148195D02*
D03*
X419765Y150344D02*
D03*
X420212Y152547D02*
D03*
X420670Y154807D02*
D03*
X380852Y148628D02*
D03*
X379809Y146696D02*
D03*
X378703Y144647D02*
D03*
X377627Y142653D02*
D03*
X368066Y144479D02*
D03*
X369034Y146627D02*
D03*
X369949Y148659D02*
D03*
X370892Y150752D02*
D03*
X201220Y142346D02*
D03*
X211504Y153045D02*
D03*
X213203Y148863D02*
D03*
X212359Y150941D02*
D03*
X210937Y155211D02*
D03*
X210423Y157369D02*
D03*
X209903Y159555D02*
D03*
X200246Y144431D02*
D03*
X199318Y146418D02*
D03*
X198303Y148427D02*
D03*
X197166Y150290D02*
D03*
X195980Y152233D02*
D03*
D51*
X131473Y154493D02*
D03*
D52*
X387039Y143371D02*
D03*
X395699Y138372D02*
D03*
X404360Y133371D02*
D03*
D53*
X60244Y97236D02*
D03*
D54*
X67315Y90165D02*
D03*
D55*
X224803Y79134D02*
D03*
X234252Y68110D02*
D03*
X225590Y67716D02*
D03*
X232677Y80709D02*
D03*
M02*
