G04*
G04 #@! TF.GenerationSoftware,Altium Limited,Altium Designer,25.1.2 (22)*
G04*
G04 Layer_Color=65535*
%FSLAX25Y25*%
%MOIN*%
G70*
G04*
G04 #@! TF.SameCoordinates,B79DADAE-6871-4A3D-A662-253F8C0C8E9A*
G04*
G04*
G04 #@! TF.FilePolarity,Positive*
G04*
G01*
G75*
%ADD10C,0.00394*%
%ADD11C,0.00787*%
%ADD12C,0.00591*%
%ADD13C,0.00984*%
G36*
X397114Y162596D02*
X397348Y162617D01*
X397352Y162578D01*
X397469Y162588D01*
X397472Y162549D01*
X397589Y162559D01*
X397593Y162520D01*
X397710Y162531D01*
X397713Y162492D01*
X397791Y162498D01*
X397795Y162459D01*
X397834Y162463D01*
X397837Y162424D01*
X397915Y162431D01*
X397919Y162392D01*
X397958Y162395D01*
X397961Y162356D01*
X398039Y162363D01*
X398042Y162324D01*
X398081Y162327D01*
X398085Y162288D01*
X398124Y162292D01*
X398127Y162253D01*
X398166Y162256D01*
X398170Y162217D01*
X398209Y162220D01*
X398212Y162181D01*
X398251Y162185D01*
X398255Y162146D01*
X398294Y162149D01*
X398297Y162110D01*
X398301Y162071D01*
X398340Y162074D01*
X398343Y162036D01*
X398382Y162039D01*
X398385Y162000D01*
X398389Y161961D01*
X398428Y161964D01*
X398431Y161925D01*
X398470Y161929D01*
X398474Y161890D01*
X398477Y161851D01*
X398516Y161854D01*
X398519Y161815D01*
X398523Y161776D01*
X398526Y161737D01*
X398565Y161740D01*
X398569Y161701D01*
X398572Y161662D01*
X398576Y161623D01*
X398615Y161627D01*
X398618Y161588D01*
X398622Y161549D01*
X398625Y161510D01*
X398628Y161471D01*
X398667Y161474D01*
X398671Y161435D01*
X398674Y161396D01*
X398678Y161357D01*
X398681Y161318D01*
X398684Y161279D01*
X398723Y161282D01*
X398727Y161243D01*
X398730Y161204D01*
X398734Y161165D01*
X398737Y161126D01*
X398741Y161087D01*
X398744Y161048D01*
X398747Y161009D01*
X398751Y160970D01*
X398754Y160931D01*
X398758Y160892D01*
X398761Y160853D01*
X398764Y160814D01*
X398768Y160775D01*
X398771Y160736D01*
X398775Y160697D01*
X398778Y160658D01*
X398781Y160619D01*
X398785Y160580D01*
X398788Y160541D01*
X398792Y160502D01*
X398753Y160498D01*
X398756Y160459D01*
X398760Y160420D01*
X398763Y160381D01*
X398766Y160342D01*
X398770Y160303D01*
X398773Y160264D01*
X398777Y160225D01*
X398738Y160222D01*
X398741Y160183D01*
X398744Y160144D01*
X398748Y160105D01*
X398751Y160066D01*
X398755Y160027D01*
X398716Y160023D01*
X398719Y159984D01*
X398722Y159945D01*
X398726Y159906D01*
X398729Y159867D01*
X398733Y159828D01*
X398694Y159825D01*
X398697Y159786D01*
X398700Y159747D01*
X398704Y159708D01*
X398665Y159704D01*
X398668Y159665D01*
X398672Y159626D01*
X398675Y159587D01*
X398679Y159548D01*
X398639Y159545D01*
X398643Y159506D01*
X398646Y159467D01*
X398650Y159427D01*
X398611Y159424D01*
X398614Y159385D01*
X398618Y159346D01*
X398579Y159343D01*
X398582Y159304D01*
X398585Y159265D01*
X398589Y159226D01*
X398550Y159222D01*
X398553Y159183D01*
X398557Y159144D01*
X398518Y159141D01*
X398521Y159102D01*
X398524Y159063D01*
X398485Y159059D01*
X398489Y159020D01*
X398492Y158981D01*
X398453Y158978D01*
X398457Y158939D01*
X398417Y158935D01*
X398421Y158896D01*
X398424Y158857D01*
X398385Y158854D01*
X398389Y158815D01*
X398350Y158811D01*
X398353Y158772D01*
X398314Y158769D01*
X398318Y158730D01*
X398321Y158691D01*
X398282Y158687D01*
X398285Y158649D01*
X398246Y158645D01*
X398250Y158606D01*
X398211Y158603D01*
X398214Y158564D01*
X398175Y158560D01*
X398179Y158521D01*
X398140Y158518D01*
X398143Y158479D01*
X398065Y158472D01*
X398068Y158433D01*
X398029Y158429D01*
X398033Y158390D01*
X397955Y158384D01*
X397958Y158345D01*
X397919Y158341D01*
X397922Y158302D01*
X397844Y158295D01*
X397848Y158256D01*
X397731Y158246D01*
X397734Y158207D01*
X397617Y158197D01*
X397620Y158158D01*
X397503Y158148D01*
X397507Y158108D01*
X397273Y158088D01*
X397276Y158049D01*
X396573Y157987D01*
X396570Y158027D01*
X396219Y157996D01*
X396216Y158035D01*
X395942Y158011D01*
X395939Y158050D01*
X395744Y158033D01*
X395740Y158072D01*
X395545Y158055D01*
X395542Y158094D01*
X395347Y158077D01*
X395350Y158038D01*
X395354Y157999D01*
X395357Y157960D01*
X395360Y157921D01*
X395364Y157882D01*
X395367Y157843D01*
X395371Y157804D01*
X395332Y157800D01*
X395335Y157761D01*
X395338Y157722D01*
X395342Y157683D01*
X395345Y157644D01*
X395349Y157605D01*
X395352Y157566D01*
X395313Y157563D01*
X395316Y157524D01*
X395320Y157484D01*
X395323Y157446D01*
X395327Y157406D01*
X395330Y157368D01*
X395333Y157328D01*
X395294Y157325D01*
X395298Y157286D01*
X395301Y157247D01*
X395305Y157208D01*
X395308Y157169D01*
X395311Y157130D01*
X395315Y157091D01*
X395318Y157052D01*
X395279Y157048D01*
X395283Y157009D01*
X395286Y156970D01*
X395290Y156931D01*
X395293Y156892D01*
X395296Y156853D01*
X395300Y156814D01*
X395261Y156811D01*
X395264Y156772D01*
X395268Y156733D01*
X395271Y156694D01*
X395274Y156655D01*
X395278Y156616D01*
X395281Y156577D01*
X395242Y156573D01*
X395246Y156534D01*
X395249Y156495D01*
X395252Y156456D01*
X395256Y156417D01*
X395259Y156378D01*
X395263Y156339D01*
X395266Y156300D01*
X395227Y156297D01*
X395231Y156258D01*
X395234Y156219D01*
X395237Y156180D01*
X395241Y156140D01*
X395244Y156102D01*
X395248Y156062D01*
X395209Y156059D01*
X395212Y156020D01*
X395215Y155981D01*
X395219Y155942D01*
X395222Y155903D01*
X395226Y155864D01*
X395229Y155825D01*
X395190Y155822D01*
X395193Y155782D01*
X395197Y155744D01*
X395200Y155704D01*
X395204Y155665D01*
X395207Y155626D01*
X395211Y155587D01*
X395214Y155548D01*
X393380Y155388D01*
X393376Y155427D01*
X393415Y155430D01*
X393412Y155469D01*
X393408Y155508D01*
X393405Y155547D01*
X393402Y155586D01*
X393398Y155625D01*
X393437Y155629D01*
X393434Y155668D01*
X393430Y155707D01*
X393427Y155746D01*
X393424Y155785D01*
X393420Y155824D01*
X393417Y155863D01*
X393413Y155902D01*
X393452Y155905D01*
X393449Y155945D01*
X393445Y155983D01*
X393442Y156023D01*
X393439Y156061D01*
X393435Y156101D01*
X393432Y156140D01*
X393471Y156143D01*
X393467Y156182D01*
X393464Y156221D01*
X393461Y156260D01*
X393457Y156299D01*
X393454Y156338D01*
X393450Y156377D01*
X393489Y156381D01*
X393486Y156420D01*
X393483Y156459D01*
X393479Y156498D01*
X393476Y156537D01*
X393472Y156576D01*
X393469Y156615D01*
X393465Y156654D01*
X393505Y156657D01*
X393501Y156696D01*
X393498Y156735D01*
X393494Y156774D01*
X393491Y156813D01*
X393488Y156852D01*
X393484Y156891D01*
X393523Y156895D01*
X393520Y156934D01*
X393516Y156973D01*
X393513Y157012D01*
X393509Y157051D01*
X393506Y157090D01*
X393503Y157129D01*
X393542Y157132D01*
X393538Y157171D01*
X393535Y157210D01*
X393531Y157249D01*
X393528Y157289D01*
X393525Y157327D01*
X393521Y157367D01*
X393560Y157370D01*
X393557Y157409D01*
X393553Y157448D01*
X393550Y157487D01*
X393547Y157526D01*
X393543Y157565D01*
X393540Y157604D01*
X393536Y157643D01*
X393575Y157647D01*
X393572Y157686D01*
X393568Y157725D01*
X393565Y157764D01*
X393562Y157803D01*
X393558Y157842D01*
X393555Y157881D01*
X393594Y157884D01*
X393590Y157923D01*
X393587Y157962D01*
X393584Y158001D01*
X393580Y158040D01*
X393577Y158079D01*
X393573Y158118D01*
X393612Y158122D01*
X393609Y158161D01*
X393606Y158200D01*
X393602Y158239D01*
X393599Y158278D01*
X393595Y158317D01*
X393592Y158356D01*
X393631Y158359D01*
X393628Y158398D01*
X393624Y158437D01*
X393621Y158476D01*
X393617Y158515D01*
X393614Y158554D01*
X393610Y158593D01*
X393607Y158633D01*
X393646Y158636D01*
X393643Y158675D01*
X393639Y158714D01*
X393636Y158753D01*
X393632Y158792D01*
X393629Y158831D01*
X393626Y158870D01*
X393665Y158873D01*
X393661Y158912D01*
X393658Y158951D01*
X393654Y158991D01*
X393651Y159029D01*
X393648Y159069D01*
X393644Y159108D01*
X393683Y159111D01*
X393680Y159150D01*
X393676Y159189D01*
X393673Y159228D01*
X393670Y159267D01*
X393666Y159306D01*
X393663Y159345D01*
X393659Y159384D01*
X393698Y159388D01*
X393695Y159427D01*
X393691Y159466D01*
X393688Y159505D01*
X393685Y159544D01*
X393681Y159583D01*
X393678Y159622D01*
X393717Y159625D01*
X393713Y159664D01*
X393710Y159703D01*
X393707Y159742D01*
X393703Y159781D01*
X393700Y159820D01*
X393696Y159859D01*
X393735Y159863D01*
X393732Y159902D01*
X393728Y159941D01*
X393725Y159980D01*
X393722Y160019D01*
X393718Y160058D01*
X393715Y160097D01*
X393754Y160100D01*
X393751Y160139D01*
X393747Y160178D01*
X393744Y160217D01*
X393740Y160256D01*
X393737Y160295D01*
X393733Y160335D01*
X393730Y160373D01*
X393769Y160377D01*
X393766Y160416D01*
X393762Y160455D01*
X393759Y160494D01*
X393755Y160533D01*
X393752Y160572D01*
X393748Y160611D01*
X393788Y160615D01*
X393784Y160653D01*
X393781Y160693D01*
X393777Y160732D01*
X393774Y160771D01*
X393771Y160810D01*
X393767Y160849D01*
X393806Y160852D01*
X393803Y160891D01*
X393799Y160930D01*
X393796Y160969D01*
X393792Y161008D01*
X393789Y161047D01*
X393786Y161086D01*
X393782Y161125D01*
X393821Y161129D01*
X393818Y161168D01*
X393814Y161207D01*
X393811Y161246D01*
X393808Y161285D01*
X393804Y161324D01*
X393801Y161363D01*
X393840Y161366D01*
X393836Y161405D01*
X393833Y161444D01*
X393829Y161483D01*
X393826Y161522D01*
X393823Y161561D01*
X393819Y161600D01*
X393858Y161604D01*
X393855Y161643D01*
X393851Y161682D01*
X393848Y161721D01*
X393845Y161760D01*
X393841Y161799D01*
X393838Y161838D01*
X393834Y161877D01*
X393873Y161880D01*
X393870Y161919D01*
X393867Y161959D01*
X393863Y161997D01*
X393860Y162037D01*
X393856Y162076D01*
X393853Y162115D01*
X393892Y162118D01*
X393888Y162157D01*
X393885Y162196D01*
X393882Y162235D01*
X393878Y162274D01*
X393875Y162313D01*
X393871Y162352D01*
X397111Y162636D01*
X397114Y162596D01*
D02*
G37*
G36*
X401327Y163437D02*
X401331Y163398D01*
X401291Y163395D01*
X401295Y163356D01*
X401298Y163317D01*
X401302Y163277D01*
X401305Y163239D01*
X401308Y163199D01*
X401312Y163160D01*
X401273Y163157D01*
X401276Y163118D01*
X401280Y163079D01*
X401283Y163040D01*
X401287Y163001D01*
X401290Y162962D01*
X401293Y162923D01*
X401254Y162919D01*
X401258Y162880D01*
X401261Y162841D01*
X401265Y162802D01*
X401268Y162763D01*
X401271Y162724D01*
X401275Y162685D01*
X401278Y162646D01*
X401239Y162643D01*
X401243Y162604D01*
X401246Y162565D01*
X401250Y162526D01*
X401253Y162487D01*
X401256Y162448D01*
X401260Y162409D01*
X401221Y162405D01*
X401224Y162366D01*
X401228Y162327D01*
X401231Y162288D01*
X401234Y162249D01*
X401238Y162210D01*
X401241Y162171D01*
X401202Y162168D01*
X401205Y162129D01*
X401209Y162090D01*
X401212Y162051D01*
X401216Y162012D01*
X401219Y161973D01*
X401223Y161934D01*
X401226Y161895D01*
X401187Y161891D01*
X401190Y161852D01*
X401194Y161813D01*
X401197Y161774D01*
X401201Y161735D01*
X401204Y161696D01*
X401207Y161657D01*
X401168Y161653D01*
X401172Y161615D01*
X401175Y161575D01*
X401179Y161536D01*
X401182Y161497D01*
X401186Y161458D01*
X401189Y161419D01*
X401150Y161416D01*
X401153Y161377D01*
X401157Y161338D01*
X401160Y161299D01*
X401164Y161260D01*
X401167Y161221D01*
X401170Y161182D01*
X401131Y161178D01*
X401135Y161139D01*
X401138Y161100D01*
X401142Y161061D01*
X401145Y161022D01*
X401149Y160983D01*
X401152Y160944D01*
X401155Y160905D01*
X401116Y160902D01*
X401120Y160863D01*
X401123Y160824D01*
X401126Y160785D01*
X401130Y160746D01*
X401133Y160707D01*
X401137Y160668D01*
X401098Y160664D01*
X401101Y160625D01*
X401105Y160586D01*
X401183Y160593D01*
X401179Y160632D01*
X401218Y160635D01*
X401215Y160674D01*
X401254Y160678D01*
X401251Y160717D01*
X401329Y160724D01*
X401325Y160763D01*
X401364Y160766D01*
X401361Y160805D01*
X401400Y160809D01*
X401396Y160848D01*
X401474Y160854D01*
X401471Y160893D01*
X401549Y160900D01*
X401546Y160939D01*
X401585Y160943D01*
X401581Y160982D01*
X401659Y160989D01*
X401656Y161028D01*
X401773Y161038D01*
X401769Y161077D01*
X401848Y161084D01*
X401844Y161123D01*
X401961Y161133D01*
X401958Y161172D01*
X402153Y161189D01*
X402149Y161228D01*
X403008Y161303D01*
X403012Y161264D01*
X403168Y161278D01*
X403171Y161239D01*
X403288Y161249D01*
X403292Y161210D01*
X403370Y161217D01*
X403373Y161178D01*
X403412Y161181D01*
X403415Y161142D01*
X403493Y161149D01*
X403497Y161110D01*
X403536Y161113D01*
X403539Y161074D01*
X403578Y161078D01*
X403582Y161039D01*
X403621Y161042D01*
X403624Y161003D01*
X403663Y161007D01*
X403667Y160968D01*
X403670Y160929D01*
X403709Y160932D01*
X403713Y160893D01*
X403716Y160854D01*
X403755Y160857D01*
X403758Y160818D01*
X403762Y160779D01*
X403765Y160740D01*
X403804Y160744D01*
X403808Y160705D01*
X403811Y160666D01*
X403815Y160627D01*
X403818Y160588D01*
X403857Y160591D01*
X403860Y160552D01*
X403864Y160513D01*
X403867Y160474D01*
X403871Y160435D01*
X403874Y160396D01*
X403877Y160357D01*
X403881Y160318D01*
X403884Y160279D01*
X403888Y160240D01*
X403891Y160201D01*
X403895Y160162D01*
X403898Y160123D01*
X403901Y160084D01*
X403905Y160045D01*
X403908Y160006D01*
X403911Y159967D01*
X403915Y159927D01*
X403918Y159889D01*
X403879Y159885D01*
X403883Y159846D01*
X403886Y159807D01*
X403890Y159768D01*
X403893Y159729D01*
X403896Y159690D01*
X403900Y159651D01*
X403903Y159612D01*
X403864Y159608D01*
X403868Y159570D01*
X403871Y159530D01*
X403874Y159491D01*
X403878Y159452D01*
X403881Y159413D01*
X403885Y159374D01*
X403888Y159335D01*
X403849Y159332D01*
X403853Y159293D01*
X403856Y159254D01*
X403859Y159215D01*
X403863Y159176D01*
X403866Y159137D01*
X403870Y159098D01*
X403831Y159094D01*
X403834Y159055D01*
X403837Y159016D01*
X403841Y158977D01*
X403844Y158938D01*
X403848Y158899D01*
X403851Y158860D01*
X403812Y158857D01*
X403816Y158818D01*
X403819Y158779D01*
X403822Y158740D01*
X403826Y158701D01*
X403829Y158662D01*
X403832Y158623D01*
X403793Y158619D01*
X403797Y158580D01*
X403800Y158541D01*
X403804Y158502D01*
X403807Y158463D01*
X403811Y158424D01*
X403814Y158385D01*
X403817Y158346D01*
X403778Y158343D01*
X403782Y158303D01*
X403785Y158265D01*
X403789Y158226D01*
X403792Y158186D01*
X403795Y158147D01*
X403799Y158108D01*
X403760Y158105D01*
X403763Y158066D01*
X403767Y158027D01*
X403770Y157988D01*
X403773Y157949D01*
X403777Y157910D01*
X403780Y157871D01*
X403741Y157867D01*
X403745Y157828D01*
X403748Y157789D01*
X403752Y157750D01*
X403755Y157711D01*
X403758Y157672D01*
X403762Y157633D01*
X403765Y157594D01*
X403726Y157591D01*
X403730Y157552D01*
X403733Y157513D01*
X403736Y157474D01*
X403740Y157435D01*
X403743Y157396D01*
X403747Y157357D01*
X403708Y157353D01*
X403711Y157314D01*
X403714Y157275D01*
X403718Y157236D01*
X403721Y157197D01*
X403725Y157158D01*
X403728Y157119D01*
X403689Y157116D01*
X403692Y157077D01*
X403696Y157038D01*
X403699Y156999D01*
X403703Y156960D01*
X403706Y156921D01*
X403710Y156881D01*
X403671Y156878D01*
X403674Y156839D01*
X403677Y156800D01*
X403681Y156761D01*
X403684Y156722D01*
X403688Y156683D01*
X403691Y156644D01*
X403694Y156605D01*
X403655Y156602D01*
X403659Y156562D01*
X403662Y156523D01*
X403666Y156484D01*
X403669Y156445D01*
X403673Y156406D01*
X403676Y156367D01*
X403637Y156364D01*
X403640Y156325D01*
X403644Y156286D01*
X401848Y156129D01*
X401845Y156168D01*
X401842Y156207D01*
X401881Y156210D01*
X401877Y156249D01*
X401874Y156288D01*
X401870Y156327D01*
X401867Y156366D01*
X401864Y156405D01*
X401860Y156444D01*
X401899Y156448D01*
X401896Y156487D01*
X401892Y156526D01*
X401889Y156565D01*
X401886Y156604D01*
X401882Y156643D01*
X401879Y156682D01*
X401875Y156721D01*
X401914Y156724D01*
X401911Y156764D01*
X401907Y156802D01*
X401904Y156842D01*
X401901Y156880D01*
X401897Y156920D01*
X401894Y156959D01*
X401933Y156962D01*
X401930Y157001D01*
X401926Y157040D01*
X401923Y157079D01*
X401919Y157118D01*
X401916Y157157D01*
X401912Y157196D01*
X401951Y157200D01*
X401948Y157239D01*
X401945Y157278D01*
X401941Y157317D01*
X401938Y157356D01*
X401934Y157395D01*
X401931Y157434D01*
X401928Y157473D01*
X401966Y157476D01*
X401963Y157515D01*
X401960Y157554D01*
X401956Y157593D01*
X401953Y157632D01*
X401950Y157671D01*
X401946Y157710D01*
X401985Y157714D01*
X401982Y157753D01*
X401978Y157792D01*
X401975Y157831D01*
X401971Y157870D01*
X401968Y157909D01*
X401965Y157948D01*
X401961Y157987D01*
X402000Y157990D01*
X401997Y158029D01*
X401993Y158068D01*
X401990Y158107D01*
X401987Y158147D01*
X401983Y158186D01*
X401980Y158224D01*
X402019Y158228D01*
X402015Y158267D01*
X402012Y158306D01*
X402008Y158345D01*
X402005Y158384D01*
X402002Y158423D01*
X401998Y158462D01*
X402037Y158466D01*
X402034Y158504D01*
X402031Y158544D01*
X402027Y158583D01*
X402024Y158622D01*
X402020Y158661D01*
X402017Y158700D01*
X402056Y158703D01*
X402052Y158742D01*
X402049Y158781D01*
X402046Y158820D01*
X402042Y158859D01*
X402039Y158898D01*
X402035Y158937D01*
X402032Y158976D01*
X402071Y158980D01*
X402068Y159019D01*
X402064Y159058D01*
X402061Y159097D01*
X402057Y159136D01*
X402054Y159175D01*
X402050Y159214D01*
X402090Y159217D01*
X402086Y159256D01*
X402083Y159295D01*
X402079Y159334D01*
X402076Y159373D01*
X402072Y159412D01*
X402069Y159451D01*
X402066Y159490D01*
X402105Y159494D01*
X402101Y159533D01*
X402098Y159572D01*
X402094Y159611D01*
X402091Y159650D01*
X402088Y159689D01*
X402084Y159728D01*
X402045Y159725D01*
X402042Y159764D01*
X402038Y159803D01*
X401999Y159799D01*
X401996Y159838D01*
X401957Y159835D01*
X401953Y159874D01*
X401875Y159867D01*
X401872Y159906D01*
X401638Y159886D01*
X401641Y159847D01*
X401446Y159829D01*
X401449Y159791D01*
X401332Y159780D01*
X401336Y159741D01*
X401258Y159734D01*
X401261Y159695D01*
X401222Y159692D01*
X401226Y159653D01*
X401148Y159646D01*
X401151Y159607D01*
X401112Y159604D01*
X401115Y159565D01*
X401076Y159561D01*
X401080Y159522D01*
X401083Y159483D01*
X401044Y159480D01*
X401048Y159441D01*
X401051Y159402D01*
X401054Y159363D01*
X401015Y159359D01*
X401019Y159320D01*
X401022Y159281D01*
X401025Y159242D01*
X401029Y159203D01*
X401032Y159164D01*
X401036Y159125D01*
X400997Y159122D01*
X401000Y159083D01*
X401004Y159044D01*
X401007Y159005D01*
X401010Y158966D01*
X401014Y158926D01*
X401017Y158888D01*
X401021Y158849D01*
X400982Y158845D01*
X400985Y158806D01*
X400988Y158767D01*
X400992Y158728D01*
X400995Y158689D01*
X400999Y158650D01*
X401002Y158611D01*
X400963Y158607D01*
X400967Y158568D01*
X400970Y158529D01*
X400973Y158490D01*
X400977Y158451D01*
X400980Y158412D01*
X400984Y158373D01*
X400945Y158370D01*
X400948Y158331D01*
X400951Y158292D01*
X400955Y158253D01*
X400958Y158214D01*
X400962Y158175D01*
X400965Y158136D01*
X400926Y158132D01*
X400929Y158093D01*
X400933Y158054D01*
X400936Y158015D01*
X400940Y157976D01*
X400943Y157937D01*
X400947Y157898D01*
X400950Y157859D01*
X400911Y157856D01*
X400914Y157817D01*
X400918Y157778D01*
X400921Y157739D01*
X400924Y157700D01*
X400928Y157661D01*
X400931Y157622D01*
X400892Y157618D01*
X400896Y157579D01*
X400899Y157540D01*
X400903Y157501D01*
X400906Y157462D01*
X400909Y157423D01*
X400913Y157384D01*
X400874Y157381D01*
X400877Y157342D01*
X400881Y157302D01*
X400884Y157264D01*
X400887Y157225D01*
X400891Y157185D01*
X400894Y157146D01*
X400898Y157107D01*
X400859Y157104D01*
X400862Y157065D01*
X400866Y157026D01*
X400869Y156987D01*
X400872Y156948D01*
X400876Y156909D01*
X400879Y156870D01*
X400840Y156866D01*
X400843Y156827D01*
X400847Y156788D01*
X400850Y156749D01*
X400854Y156710D01*
X400857Y156671D01*
X400861Y156632D01*
X400822Y156629D01*
X400825Y156590D01*
X400828Y156551D01*
X400832Y156512D01*
X400835Y156473D01*
X400839Y156434D01*
X400842Y156395D01*
X400803Y156391D01*
X400807Y156352D01*
X400810Y156313D01*
X400813Y156274D01*
X400817Y156235D01*
X400820Y156196D01*
X400823Y156157D01*
X400827Y156118D01*
X400788Y156115D01*
X400791Y156076D01*
X400795Y156037D01*
X399000Y155879D01*
X398996Y155919D01*
X398993Y155958D01*
X399032Y155961D01*
X399028Y156000D01*
X399025Y156039D01*
X399022Y156078D01*
X399018Y156117D01*
X399015Y156156D01*
X399011Y156195D01*
X399008Y156234D01*
X399047Y156238D01*
X399043Y156277D01*
X399040Y156316D01*
X399037Y156355D01*
X399033Y156394D01*
X399030Y156433D01*
X399026Y156472D01*
X399065Y156475D01*
X399062Y156514D01*
X399059Y156553D01*
X399055Y156592D01*
X399052Y156631D01*
X399048Y156670D01*
X399045Y156709D01*
X399084Y156713D01*
X399080Y156752D01*
X399077Y156791D01*
X399074Y156830D01*
X399070Y156869D01*
X399067Y156908D01*
X399063Y156947D01*
X399060Y156986D01*
X399099Y156989D01*
X399096Y157028D01*
X399092Y157067D01*
X399089Y157106D01*
X399085Y157146D01*
X399082Y157185D01*
X399078Y157223D01*
X399118Y157227D01*
X399114Y157266D01*
X399111Y157305D01*
X399107Y157344D01*
X399104Y157383D01*
X399100Y157422D01*
X399097Y157461D01*
X399136Y157465D01*
X399133Y157503D01*
X399129Y157543D01*
X399126Y157582D01*
X399123Y157621D01*
X399119Y157660D01*
X399116Y157699D01*
X399155Y157702D01*
X399151Y157741D01*
X399148Y157780D01*
X399144Y157819D01*
X399141Y157858D01*
X399138Y157897D01*
X399134Y157936D01*
X399131Y157975D01*
X399170Y157979D01*
X399166Y158018D01*
X399163Y158057D01*
X399160Y158096D01*
X399156Y158135D01*
X399153Y158174D01*
X399149Y158213D01*
X399188Y158216D01*
X399185Y158255D01*
X399182Y158294D01*
X399178Y158333D01*
X399175Y158372D01*
X399171Y158411D01*
X399168Y158450D01*
X399207Y158454D01*
X399203Y158493D01*
X399200Y158532D01*
X399197Y158571D01*
X399193Y158610D01*
X399190Y158649D01*
X399186Y158688D01*
X399183Y158727D01*
X399222Y158730D01*
X399219Y158770D01*
X399215Y158809D01*
X399212Y158847D01*
X399208Y158887D01*
X399205Y158926D01*
X399201Y158965D01*
X399240Y158968D01*
X399237Y159007D01*
X399234Y159046D01*
X399230Y159085D01*
X399227Y159124D01*
X399223Y159163D01*
X399220Y159202D01*
X399259Y159206D01*
X399256Y159245D01*
X399252Y159284D01*
X399249Y159323D01*
X399245Y159362D01*
X399242Y159401D01*
X399239Y159440D01*
X399278Y159443D01*
X399274Y159482D01*
X399271Y159521D01*
X399267Y159560D01*
X399264Y159599D01*
X399260Y159638D01*
X399257Y159677D01*
X399254Y159716D01*
X399293Y159720D01*
X399289Y159759D01*
X399286Y159798D01*
X399283Y159837D01*
X399279Y159876D01*
X399276Y159915D01*
X399272Y159954D01*
X399311Y159957D01*
X399308Y159996D01*
X399304Y160035D01*
X399301Y160074D01*
X399298Y160113D01*
X399294Y160152D01*
X399291Y160192D01*
X399330Y160195D01*
X399326Y160234D01*
X399323Y160273D01*
X399320Y160312D01*
X399316Y160351D01*
X399313Y160390D01*
X399309Y160429D01*
X399348Y160433D01*
X399345Y160471D01*
X399342Y160511D01*
X399338Y160550D01*
X399335Y160589D01*
X399331Y160628D01*
X399328Y160667D01*
X399324Y160706D01*
X399363Y160709D01*
X399360Y160748D01*
X399357Y160787D01*
X399353Y160826D01*
X399350Y160865D01*
X399346Y160904D01*
X399343Y160943D01*
X399382Y160947D01*
X399379Y160986D01*
X399375Y161025D01*
X399372Y161064D01*
X399368Y161103D01*
X399365Y161142D01*
X399361Y161181D01*
X399401Y161184D01*
X399397Y161223D01*
X399394Y161262D01*
X399390Y161301D01*
X399387Y161340D01*
X399383Y161379D01*
X399380Y161418D01*
X399377Y161457D01*
X399416Y161461D01*
X399412Y161500D01*
X399409Y161539D01*
X399406Y161578D01*
X399402Y161617D01*
X399399Y161656D01*
X399395Y161695D01*
X399434Y161698D01*
X399431Y161737D01*
X399427Y161776D01*
X399424Y161816D01*
X399421Y161855D01*
X399417Y161894D01*
X399414Y161933D01*
X399453Y161936D01*
X399449Y161975D01*
X399446Y162014D01*
X399443Y162053D01*
X399439Y162092D01*
X399436Y162131D01*
X399432Y162170D01*
X399471Y162174D01*
X399468Y162213D01*
X399465Y162252D01*
X399461Y162291D01*
X399458Y162330D01*
X399454Y162369D01*
X399451Y162408D01*
X399447Y162447D01*
X399486Y162450D01*
X399483Y162489D01*
X399480Y162528D01*
X399476Y162567D01*
X399473Y162606D01*
X399469Y162645D01*
X399466Y162684D01*
X399505Y162688D01*
X399502Y162727D01*
X399498Y162766D01*
X399495Y162805D01*
X399491Y162844D01*
X399488Y162883D01*
X399484Y162922D01*
X399523Y162925D01*
X399520Y162964D01*
X399517Y163003D01*
X399513Y163042D01*
X399510Y163081D01*
X399506Y163120D01*
X399503Y163160D01*
X399500Y163198D01*
X399539Y163202D01*
X399535Y163241D01*
X399532Y163280D01*
X399528Y163319D01*
X401324Y163476D01*
X401327Y163437D01*
D02*
G37*
G36*
X409419Y161746D02*
X409422Y161707D01*
X409426Y161668D01*
X409429Y161629D01*
X409432Y161590D01*
X409436Y161551D01*
X409439Y161512D01*
X409443Y161473D01*
X409446Y161434D01*
X409449Y161395D01*
X409453Y161356D01*
X409456Y161317D01*
X409460Y161278D01*
X409463Y161239D01*
X409467Y161200D01*
X409470Y161161D01*
X409473Y161122D01*
X409477Y161083D01*
X409480Y161044D01*
X409484Y161005D01*
X409487Y160966D01*
X409448Y160962D01*
X409451Y160923D01*
X409455Y160884D01*
X409458Y160845D01*
X409462Y160806D01*
X409465Y160767D01*
X409426Y160764D01*
X409430Y160725D01*
X409433Y160686D01*
X409436Y160646D01*
X409440Y160608D01*
X409401Y160604D01*
X409404Y160565D01*
X409408Y160526D01*
X409411Y160487D01*
X409414Y160448D01*
X409375Y160445D01*
X409379Y160406D01*
X409382Y160366D01*
X409386Y160327D01*
X409346Y160324D01*
X409350Y160285D01*
X409353Y160246D01*
X409357Y160207D01*
X409318Y160204D01*
X409321Y160164D01*
X409325Y160126D01*
X409328Y160087D01*
X409289Y160083D01*
X409292Y160044D01*
X409296Y160005D01*
X409299Y159966D01*
X409260Y159963D01*
X409264Y159924D01*
X409267Y159885D01*
X409228Y159881D01*
X409231Y159842D01*
X409235Y159803D01*
X409196Y159800D01*
X409199Y159761D01*
X409203Y159722D01*
X409206Y159683D01*
X409167Y159679D01*
X409170Y159640D01*
X409174Y159601D01*
X409135Y159598D01*
X409138Y159559D01*
X409142Y159520D01*
X409145Y159481D01*
X409106Y159477D01*
X409109Y159438D01*
X409113Y159399D01*
X409074Y159396D01*
X409077Y159357D01*
X409081Y159318D01*
X409084Y159279D01*
X409045Y159275D01*
X409049Y159236D01*
X409052Y159197D01*
X409013Y159194D01*
X409016Y159155D01*
X409020Y159116D01*
X409023Y159077D01*
X408984Y159073D01*
X408988Y159034D01*
X408991Y158995D01*
X408952Y158992D01*
X408955Y158953D01*
X408959Y158914D01*
X408962Y158875D01*
X408923Y158871D01*
X408926Y158832D01*
X408930Y158793D01*
X408891Y158790D01*
X408894Y158751D01*
X408898Y158712D01*
X408901Y158673D01*
X408862Y158669D01*
X408865Y158630D01*
X408869Y158591D01*
X408830Y158588D01*
X408833Y158549D01*
X408837Y158510D01*
X408840Y158471D01*
X408801Y158467D01*
X408805Y158428D01*
X408808Y158389D01*
X408769Y158386D01*
X408772Y158347D01*
X408776Y158308D01*
X408779Y158269D01*
X408740Y158265D01*
X408743Y158226D01*
X408747Y158187D01*
X408708Y158184D01*
X408711Y158145D01*
X408715Y158106D01*
X408718Y158067D01*
X408679Y158063D01*
X408683Y158024D01*
X408686Y157985D01*
X408647Y157982D01*
X408650Y157943D01*
X408654Y157904D01*
X408657Y157865D01*
X408618Y157861D01*
X408622Y157823D01*
X408625Y157783D01*
X408586Y157780D01*
X408589Y157741D01*
X408593Y157702D01*
X408596Y157663D01*
X408557Y157659D01*
X408561Y157621D01*
X408564Y157581D01*
X408525Y157578D01*
X408528Y157539D01*
X408532Y157500D01*
X408535Y157461D01*
X408496Y157458D01*
X408500Y157419D01*
X408503Y157379D01*
X408464Y157376D01*
X408467Y157337D01*
X408471Y157298D01*
X408474Y157259D01*
X408435Y157256D01*
X408439Y157217D01*
X408442Y157178D01*
X408403Y157174D01*
X408406Y157135D01*
X408410Y157096D01*
X408413Y157057D01*
X408374Y157054D01*
X408378Y157015D01*
X408381Y156976D01*
X408342Y156972D01*
X408346Y156933D01*
X408349Y156894D01*
X408352Y156855D01*
X408313Y156852D01*
X408317Y156813D01*
X408320Y156774D01*
X408281Y156770D01*
X408285Y156731D01*
X408288Y156692D01*
X408291Y156653D01*
X408252Y156650D01*
X408256Y156611D01*
X408259Y156572D01*
X408220Y156568D01*
X408223Y156529D01*
X408227Y156490D01*
X408188Y156487D01*
X408191Y156448D01*
X408195Y156409D01*
X408156Y156405D01*
X408159Y156366D01*
X408162Y156327D01*
X408166Y156288D01*
X408127Y156285D01*
X408130Y156246D01*
X408091Y156242D01*
X408095Y156203D01*
X408098Y156164D01*
X408102Y156125D01*
X408063Y156122D01*
X408066Y156083D01*
X408027Y156079D01*
X408030Y156040D01*
X408034Y156001D01*
X407995Y155998D01*
X407998Y155959D01*
X408002Y155920D01*
X407963Y155917D01*
X407966Y155877D01*
X407969Y155838D01*
X407930Y155835D01*
X407934Y155796D01*
X407937Y155757D01*
X407898Y155754D01*
X407901Y155715D01*
X407863Y155711D01*
X407866Y155672D01*
X407869Y155633D01*
X407830Y155630D01*
X407834Y155591D01*
X407837Y155552D01*
X407798Y155548D01*
X407801Y155509D01*
X407762Y155506D01*
X407766Y155467D01*
X407727Y155463D01*
X407730Y155424D01*
X407734Y155385D01*
X407695Y155382D01*
X407698Y155343D01*
X407659Y155339D01*
X407662Y155300D01*
X407666Y155261D01*
X407627Y155258D01*
X407630Y155219D01*
X407591Y155216D01*
X407595Y155176D01*
X407556Y155173D01*
X407559Y155134D01*
X407562Y155095D01*
X407523Y155092D01*
X407527Y155052D01*
X407488Y155049D01*
X407491Y155010D01*
X407452Y155007D01*
X407456Y154968D01*
X407417Y154964D01*
X407420Y154925D01*
X407381Y154922D01*
X407384Y154883D01*
X407388Y154844D01*
X407349Y154840D01*
X407352Y154801D01*
X407313Y154798D01*
X407317Y154759D01*
X407278Y154755D01*
X407281Y154716D01*
X407242Y154713D01*
X407245Y154674D01*
X407206Y154671D01*
X407210Y154631D01*
X407171Y154628D01*
X407174Y154589D01*
X407135Y154586D01*
X407138Y154547D01*
X407060Y154540D01*
X407064Y154501D01*
X407025Y154497D01*
X407028Y154458D01*
X406989Y154455D01*
X406993Y154416D01*
X406954Y154412D01*
X406957Y154374D01*
X406918Y154370D01*
X406921Y154331D01*
X406843Y154324D01*
X406847Y154285D01*
X406808Y154282D01*
X406811Y154243D01*
X406733Y154236D01*
X406737Y154197D01*
X406698Y154193D01*
X406701Y154155D01*
X406623Y154148D01*
X406626Y154109D01*
X406587Y154105D01*
X406591Y154066D01*
X406513Y154059D01*
X406516Y154020D01*
X406438Y154014D01*
X406441Y153974D01*
X406363Y153968D01*
X406367Y153929D01*
X406289Y153922D01*
X406292Y153883D01*
X406214Y153876D01*
X406217Y153837D01*
X406100Y153827D01*
X406104Y153788D01*
X406026Y153781D01*
X406029Y153742D01*
X405912Y153732D01*
X405915Y153692D01*
X405759Y153679D01*
X405763Y153640D01*
X405607Y153626D01*
X405610Y153587D01*
X405376Y153567D01*
X405379Y153528D01*
X405106Y153504D01*
X405110Y153465D01*
X405071Y153461D01*
X405067Y153500D01*
X405064Y153539D01*
X405060Y153578D01*
X405057Y153617D01*
X405054Y153656D01*
X405050Y153695D01*
X405047Y153734D01*
X405043Y153773D01*
X405040Y153813D01*
X405036Y153851D01*
X405033Y153891D01*
X405030Y153930D01*
X405026Y153969D01*
X405023Y154008D01*
X405019Y154047D01*
X405016Y154086D01*
X405013Y154125D01*
X405009Y154164D01*
X405006Y154203D01*
X405002Y154242D01*
X404999Y154281D01*
X404995Y154320D01*
X404992Y154359D01*
X404989Y154398D01*
X404985Y154437D01*
X404982Y154476D01*
X404978Y154515D01*
X404975Y154554D01*
X404972Y154593D01*
X404968Y154632D01*
X404965Y154671D01*
X404961Y154710D01*
X404958Y154749D01*
X405036Y154756D01*
X405032Y154795D01*
X405111Y154802D01*
X405107Y154841D01*
X405185Y154848D01*
X405182Y154887D01*
X405260Y154894D01*
X405257Y154933D01*
X405335Y154939D01*
X405331Y154978D01*
X405409Y154985D01*
X405406Y155024D01*
X405445Y155028D01*
X405441Y155067D01*
X405519Y155074D01*
X405516Y155113D01*
X405555Y155116D01*
X405552Y155155D01*
X405630Y155162D01*
X405626Y155201D01*
X405665Y155204D01*
X405662Y155243D01*
X405701Y155247D01*
X405697Y155286D01*
X405775Y155293D01*
X405772Y155332D01*
X405811Y155335D01*
X405808Y155374D01*
X405847Y155377D01*
X405843Y155417D01*
X405882Y155420D01*
X405879Y155459D01*
X405918Y155462D01*
X405915Y155501D01*
X405954Y155505D01*
X405950Y155544D01*
X405989Y155547D01*
X405986Y155586D01*
X406025Y155590D01*
X406021Y155629D01*
X406060Y155632D01*
X406057Y155671D01*
X406096Y155675D01*
X406093Y155714D01*
X406132Y155717D01*
X406128Y155756D01*
X406167Y155759D01*
X406164Y155798D01*
X406160Y155838D01*
X406199Y155841D01*
X406196Y155880D01*
X406235Y155883D01*
X406232Y155922D01*
X406271Y155926D01*
X406267Y155965D01*
X406264Y156004D01*
X406303Y156007D01*
X406299Y156046D01*
X406339Y156050D01*
X406335Y156089D01*
X406332Y156128D01*
X406371Y156131D01*
X406367Y156170D01*
X406364Y156209D01*
X406403Y156213D01*
X406399Y156252D01*
X406438Y156255D01*
X406435Y156294D01*
X406432Y156333D01*
X406471Y156337D01*
X406467Y156376D01*
X406464Y156415D01*
X406503Y156418D01*
X406499Y156457D01*
X406496Y156496D01*
X406262Y156476D01*
X406258Y156515D01*
X405985Y156491D01*
X405982Y156530D01*
X405826Y156516D01*
X405822Y156555D01*
X405744Y156548D01*
X405741Y156587D01*
X405624Y156577D01*
X405620Y156616D01*
X405542Y156609D01*
X405539Y156648D01*
X405500Y156645D01*
X405497Y156684D01*
X405418Y156677D01*
X405415Y156716D01*
X405376Y156713D01*
X405373Y156752D01*
X405334Y156748D01*
X405330Y156787D01*
X405291Y156784D01*
X405288Y156823D01*
X405249Y156819D01*
X405245Y156859D01*
X405206Y156855D01*
X405203Y156894D01*
X405199Y156933D01*
X405160Y156930D01*
X405157Y156969D01*
X405118Y156965D01*
X405115Y157004D01*
X405111Y157043D01*
X405072Y157040D01*
X405069Y157079D01*
X405065Y157118D01*
X405026Y157115D01*
X405023Y157154D01*
X405019Y157193D01*
X404980Y157189D01*
X404977Y157228D01*
X404974Y157267D01*
X404970Y157306D01*
X404931Y157303D01*
X404928Y157342D01*
X404924Y157381D01*
X404921Y157420D01*
X404917Y157459D01*
X404878Y157456D01*
X404875Y157495D01*
X404872Y157534D01*
X404868Y157573D01*
X404865Y157612D01*
X404861Y157651D01*
X404858Y157690D01*
X404854Y157729D01*
X404815Y157725D01*
X404812Y157764D01*
X404809Y157803D01*
X404805Y157843D01*
X404802Y157881D01*
X404798Y157921D01*
X404795Y157960D01*
X404792Y157999D01*
X404788Y158038D01*
X404785Y158077D01*
X404781Y158116D01*
X404778Y158155D01*
X404775Y158194D01*
X404771Y158233D01*
X404768Y158272D01*
X404764Y158311D01*
X404725Y158307D01*
X404722Y158346D01*
X404718Y158385D01*
X404715Y158424D01*
X404712Y158464D01*
X404708Y158502D01*
X404705Y158542D01*
X404701Y158581D01*
X404698Y158620D01*
X404695Y158659D01*
X404691Y158698D01*
X404688Y158737D01*
X404684Y158776D01*
X404681Y158815D01*
X404677Y158854D01*
X404674Y158893D01*
X404635Y158889D01*
X404632Y158928D01*
X404628Y158967D01*
X404625Y159007D01*
X404621Y159046D01*
X404618Y159084D01*
X404614Y159124D01*
X404611Y159163D01*
X404608Y159202D01*
X404604Y159241D01*
X404601Y159280D01*
X404597Y159319D01*
X404594Y159358D01*
X404591Y159397D01*
X404587Y159436D01*
X404584Y159475D01*
X404580Y159514D01*
X404541Y159510D01*
X404538Y159549D01*
X404534Y159589D01*
X404531Y159627D01*
X404528Y159667D01*
X404524Y159705D01*
X404521Y159745D01*
X404518Y159784D01*
X404514Y159823D01*
X404511Y159862D01*
X404507Y159901D01*
X404504Y159940D01*
X404500Y159979D01*
X404497Y160018D01*
X404494Y160057D01*
X404490Y160096D01*
X404487Y160135D01*
X404448Y160132D01*
X404444Y160170D01*
X404441Y160210D01*
X404437Y160248D01*
X404434Y160287D01*
X404431Y160327D01*
X404427Y160366D01*
X404424Y160405D01*
X404420Y160444D01*
X404417Y160483D01*
X404414Y160522D01*
X404410Y160561D01*
X404407Y160600D01*
X404403Y160639D01*
X404400Y160678D01*
X404361Y160674D01*
X404357Y160713D01*
X404354Y160752D01*
X404351Y160792D01*
X404347Y160830D01*
X404344Y160870D01*
X404340Y160908D01*
X404337Y160948D01*
X404333Y160987D01*
X404330Y161026D01*
X404327Y161065D01*
X404323Y161104D01*
X404320Y161143D01*
X404317Y161182D01*
X404313Y161221D01*
X404310Y161260D01*
X404306Y161299D01*
X404267Y161295D01*
X404264Y161334D01*
X406137Y161498D01*
X406141Y161459D01*
X406144Y161420D01*
X406147Y161381D01*
X406151Y161342D01*
X406154Y161303D01*
X406157Y161264D01*
X406161Y161225D01*
X406164Y161186D01*
X406168Y161147D01*
X406171Y161108D01*
X406175Y161069D01*
X406178Y161030D01*
X406181Y160991D01*
X406185Y160952D01*
X406224Y160955D01*
X406227Y160916D01*
X406231Y160877D01*
X406234Y160838D01*
X406238Y160799D01*
X406241Y160760D01*
X406244Y160721D01*
X406248Y160682D01*
X406251Y160643D01*
X406255Y160604D01*
X406258Y160565D01*
X406261Y160526D01*
X406265Y160487D01*
X406268Y160448D01*
X406272Y160409D01*
X406275Y160370D01*
X406279Y160331D01*
X406282Y160292D01*
X406285Y160253D01*
X406289Y160214D01*
X406292Y160175D01*
X406296Y160136D01*
X406299Y160097D01*
X406302Y160058D01*
X406306Y160019D01*
X406309Y159980D01*
X406313Y159941D01*
X406316Y159902D01*
X406320Y159863D01*
X406323Y159824D01*
X406326Y159784D01*
X406330Y159746D01*
X406333Y159706D01*
X406337Y159668D01*
X406340Y159628D01*
X406343Y159589D01*
X406347Y159550D01*
X406350Y159511D01*
X406354Y159472D01*
X406357Y159433D01*
X406360Y159394D01*
X406364Y159355D01*
X406403Y159359D01*
X406406Y159320D01*
X406367Y159316D01*
X406371Y159277D01*
X406374Y159238D01*
X406413Y159242D01*
X406417Y159203D01*
X406420Y159164D01*
X406423Y159125D01*
X406427Y159086D01*
X406430Y159046D01*
X406434Y159007D01*
X406437Y158968D01*
X406440Y158929D01*
X406444Y158890D01*
X406447Y158851D01*
X406451Y158812D01*
X406454Y158773D01*
X406458Y158734D01*
X406461Y158695D01*
X406464Y158656D01*
X406468Y158617D01*
X406471Y158578D01*
X406475Y158539D01*
X406478Y158500D01*
X406482Y158461D01*
X406485Y158422D01*
X406488Y158383D01*
X406492Y158344D01*
X406495Y158305D01*
X406498Y158266D01*
X406502Y158227D01*
X406541Y158230D01*
X406544Y158191D01*
X406548Y158152D01*
X406551Y158113D01*
X406590Y158117D01*
X406594Y158078D01*
X406633Y158081D01*
X406636Y158042D01*
X406675Y158045D01*
X406678Y158006D01*
X406796Y158017D01*
X406799Y157978D01*
X406916Y157988D01*
X406913Y158027D01*
X406952Y158030D01*
X406948Y158069D01*
X406945Y158108D01*
X406942Y158147D01*
X406981Y158151D01*
X406977Y158190D01*
X406974Y158229D01*
X407013Y158232D01*
X407009Y158271D01*
X407006Y158310D01*
X407002Y158349D01*
X407042Y158353D01*
X407038Y158392D01*
X407035Y158431D01*
X407031Y158470D01*
X407070Y158473D01*
X407067Y158512D01*
X407063Y158551D01*
X407060Y158590D01*
X407099Y158594D01*
X407096Y158633D01*
X407092Y158672D01*
X407089Y158711D01*
X407128Y158714D01*
X407124Y158753D01*
X407121Y158792D01*
X407160Y158796D01*
X407157Y158835D01*
X407153Y158874D01*
X407150Y158913D01*
X407189Y158916D01*
X407185Y158955D01*
X407182Y158994D01*
X407179Y159033D01*
X407218Y159037D01*
X407214Y159076D01*
X407211Y159115D01*
X407207Y159154D01*
X407246Y159157D01*
X407243Y159196D01*
X407240Y159235D01*
X407279Y159239D01*
X407275Y159278D01*
X407272Y159317D01*
X407268Y159356D01*
X407307Y159359D01*
X407304Y159398D01*
X407301Y159437D01*
X407297Y159476D01*
X407336Y159480D01*
X407333Y159519D01*
X407329Y159558D01*
X407326Y159597D01*
X407365Y159600D01*
X407362Y159639D01*
X407358Y159678D01*
X407397Y159682D01*
X407394Y159721D01*
X407390Y159760D01*
X407387Y159799D01*
X407426Y159802D01*
X407422Y159841D01*
X407419Y159880D01*
X407416Y159919D01*
X407455Y159923D01*
X407451Y159962D01*
X407448Y160001D01*
X407444Y160040D01*
X407483Y160043D01*
X407480Y160082D01*
X407477Y160121D01*
X407516Y160125D01*
X407512Y160164D01*
X407509Y160203D01*
X407506Y160242D01*
X407545Y160245D01*
X407541Y160284D01*
X407538Y160323D01*
X407534Y160362D01*
X407573Y160366D01*
X407570Y160405D01*
X407566Y160444D01*
X407563Y160483D01*
X407602Y160486D01*
X407599Y160525D01*
X407595Y160564D01*
X407592Y160603D01*
X407588Y160642D01*
X407627Y160646D01*
X407624Y160685D01*
X407621Y160724D01*
X407617Y160763D01*
X407614Y160802D01*
X407653Y160805D01*
X407649Y160844D01*
X407646Y160883D01*
X407643Y160922D01*
X407639Y160961D01*
X407636Y161000D01*
X407675Y161004D01*
X407671Y161043D01*
X407668Y161082D01*
X407664Y161121D01*
X407661Y161160D01*
X407658Y161199D01*
X407654Y161238D01*
X407693Y161241D01*
X407690Y161280D01*
X407687Y161319D01*
X407683Y161358D01*
X407680Y161397D01*
X407676Y161436D01*
X407673Y161475D01*
X407669Y161514D01*
X407666Y161553D01*
X407662Y161592D01*
X407659Y161632D01*
X409415Y161785D01*
X409419Y161746D01*
D02*
G37*
G36*
X415429Y162272D02*
X415390Y162268D01*
X415393Y162230D01*
X415354Y162226D01*
X415358Y162187D01*
X415361Y162148D01*
X415322Y162145D01*
X415325Y162106D01*
X415286Y162102D01*
X415290Y162063D01*
X415251Y162060D01*
X415254Y162021D01*
X415258Y161982D01*
X415219Y161978D01*
X415222Y161939D01*
X415183Y161936D01*
X415186Y161897D01*
X415147Y161893D01*
X415151Y161854D01*
X415112Y161851D01*
X415115Y161812D01*
X415119Y161773D01*
X415080Y161769D01*
X415083Y161730D01*
X415044Y161727D01*
X415047Y161688D01*
X415008Y161685D01*
X415012Y161646D01*
X415015Y161607D01*
X414976Y161603D01*
X414980Y161564D01*
X414941Y161561D01*
X414944Y161522D01*
X414905Y161518D01*
X414908Y161479D01*
X414869Y161476D01*
X414873Y161437D01*
X414876Y161398D01*
X414837Y161394D01*
X414841Y161355D01*
X414802Y161352D01*
X414805Y161313D01*
X414766Y161309D01*
X414769Y161270D01*
X414773Y161231D01*
X414734Y161228D01*
X414737Y161189D01*
X414698Y161186D01*
X414702Y161146D01*
X414663Y161143D01*
X414666Y161104D01*
X414669Y161065D01*
X414630Y161062D01*
X414634Y161023D01*
X414595Y161019D01*
X414598Y160980D01*
X414559Y160977D01*
X414563Y160938D01*
X414523Y160934D01*
X414527Y160895D01*
X414530Y160856D01*
X414491Y160853D01*
X414495Y160814D01*
X414456Y160810D01*
X414459Y160771D01*
X414420Y160768D01*
X414423Y160729D01*
X414427Y160690D01*
X414388Y160687D01*
X414391Y160647D01*
X414352Y160644D01*
X414356Y160605D01*
X414317Y160602D01*
X414320Y160563D01*
X414323Y160523D01*
X414284Y160520D01*
X414288Y160481D01*
X414249Y160478D01*
X414252Y160439D01*
X414213Y160435D01*
X414217Y160396D01*
X414178Y160393D01*
X414181Y160354D01*
X414184Y160315D01*
X414145Y160311D01*
X414149Y160272D01*
X414110Y160269D01*
X414113Y160230D01*
X414074Y160227D01*
X414078Y160187D01*
X414081Y160148D01*
X414042Y160145D01*
X414045Y160106D01*
X414006Y160102D01*
X414010Y160064D01*
X413971Y160060D01*
X413974Y160021D01*
X413977Y159982D01*
X413939Y159979D01*
X413942Y159940D01*
X413903Y159936D01*
X413906Y159897D01*
X413867Y159894D01*
X413871Y159855D01*
X413832Y159851D01*
X413835Y159812D01*
X413838Y159773D01*
X413799Y159770D01*
X413803Y159731D01*
X413764Y159727D01*
X413767Y159688D01*
X413728Y159685D01*
X413732Y159646D01*
X413735Y159607D01*
X413696Y159604D01*
X413699Y159564D01*
X413660Y159561D01*
X413664Y159522D01*
X413625Y159519D01*
X413628Y159480D01*
X413589Y159476D01*
X413593Y159437D01*
X413596Y159398D01*
X413635Y159402D01*
X413638Y159362D01*
X413642Y159324D01*
X413681Y159327D01*
X413684Y159288D01*
X413688Y159249D01*
X413727Y159252D01*
X413730Y159213D01*
X413769Y159217D01*
X413773Y159178D01*
X413776Y159139D01*
X413815Y159142D01*
X413819Y159103D01*
X413822Y159064D01*
X413861Y159067D01*
X413864Y159028D01*
X413868Y158989D01*
X413907Y158993D01*
X413910Y158954D01*
X413914Y158915D01*
X413953Y158918D01*
X413956Y158879D01*
X413960Y158840D01*
X413999Y158844D01*
X414002Y158804D01*
X414005Y158765D01*
X414044Y158769D01*
X414048Y158730D01*
X414051Y158691D01*
X414090Y158694D01*
X414094Y158655D01*
X414097Y158616D01*
X414136Y158619D01*
X414140Y158581D01*
X414179Y158584D01*
X414182Y158545D01*
X414185Y158506D01*
X414224Y158509D01*
X414228Y158470D01*
X414231Y158431D01*
X414270Y158435D01*
X414274Y158396D01*
X414277Y158357D01*
X414316Y158360D01*
X414320Y158321D01*
X414323Y158282D01*
X414362Y158285D01*
X414365Y158246D01*
X414369Y158207D01*
X414408Y158211D01*
X414411Y158172D01*
X414415Y158133D01*
X414454Y158136D01*
X414457Y158097D01*
X414461Y158058D01*
X414500Y158061D01*
X414503Y158022D01*
X414542Y158026D01*
X414545Y157987D01*
X414549Y157948D01*
X414588Y157951D01*
X414591Y157912D01*
X414595Y157873D01*
X414634Y157877D01*
X414637Y157837D01*
X414641Y157799D01*
X414679Y157802D01*
X414683Y157763D01*
X414686Y157724D01*
X414725Y157727D01*
X414729Y157688D01*
X414732Y157649D01*
X414771Y157653D01*
X414775Y157614D01*
X414778Y157575D01*
X414817Y157578D01*
X414820Y157539D01*
X414824Y157500D01*
X414863Y157503D01*
X414866Y157464D01*
X414905Y157468D01*
X414909Y157429D01*
X414912Y157390D01*
X414951Y157393D01*
X414955Y157354D01*
X414958Y157315D01*
X414997Y157318D01*
X415000Y157279D01*
X412932Y157098D01*
X412929Y157138D01*
X412890Y157134D01*
X412886Y157173D01*
X412883Y157212D01*
X412879Y157251D01*
X412840Y157248D01*
X412837Y157287D01*
X412834Y157326D01*
X412830Y157365D01*
X412791Y157361D01*
X412788Y157401D01*
X412784Y157439D01*
X412745Y157436D01*
X412742Y157475D01*
X412738Y157514D01*
X412735Y157553D01*
X412696Y157550D01*
X412693Y157589D01*
X412689Y157628D01*
X412686Y157667D01*
X412647Y157663D01*
X412643Y157702D01*
X412640Y157741D01*
X412601Y157738D01*
X412597Y157777D01*
X412594Y157816D01*
X412591Y157855D01*
X412552Y157852D01*
X412548Y157891D01*
X412545Y157930D01*
X412541Y157969D01*
X412502Y157965D01*
X412499Y158004D01*
X412496Y158043D01*
X412492Y158082D01*
X412453Y158079D01*
X412450Y158118D01*
X412372Y158111D01*
X412375Y158072D01*
X412378Y158033D01*
X412339Y158030D01*
X412343Y157991D01*
X412304Y157987D01*
X412307Y157948D01*
X412311Y157909D01*
X412272Y157906D01*
X412275Y157867D01*
X412236Y157863D01*
X412239Y157824D01*
X412243Y157785D01*
X412204Y157782D01*
X412207Y157743D01*
X412168Y157739D01*
X412172Y157701D01*
X412175Y157661D01*
X412136Y157658D01*
X412139Y157619D01*
X412100Y157616D01*
X412104Y157577D01*
X412065Y157573D01*
X412068Y157534D01*
X412072Y157495D01*
X412033Y157492D01*
X412036Y157453D01*
X411997Y157449D01*
X412000Y157410D01*
X412004Y157371D01*
X411965Y157368D01*
X411968Y157329D01*
X411929Y157325D01*
X411933Y157286D01*
X411936Y157247D01*
X411897Y157244D01*
X411900Y157205D01*
X411861Y157201D01*
X411865Y157162D01*
X411868Y157123D01*
X411829Y157120D01*
X411833Y157081D01*
X411793Y157078D01*
X411797Y157038D01*
X411800Y157000D01*
X409615Y156808D01*
X409611Y156847D01*
X409650Y156851D01*
X409647Y156890D01*
X409686Y156893D01*
X409683Y156932D01*
X409722Y156936D01*
X409718Y156975D01*
X409757Y156978D01*
X409754Y157017D01*
X409750Y157056D01*
X409789Y157060D01*
X409786Y157098D01*
X409825Y157102D01*
X409822Y157141D01*
X409861Y157144D01*
X409857Y157183D01*
X409896Y157187D01*
X409893Y157226D01*
X409890Y157265D01*
X409929Y157268D01*
X409925Y157307D01*
X409964Y157311D01*
X409961Y157350D01*
X410000Y157353D01*
X409996Y157392D01*
X409993Y157431D01*
X410032Y157435D01*
X410029Y157474D01*
X410068Y157477D01*
X410064Y157516D01*
X410103Y157519D01*
X410100Y157559D01*
X410139Y157562D01*
X410135Y157601D01*
X410132Y157640D01*
X410171Y157643D01*
X410168Y157682D01*
X410207Y157686D01*
X410203Y157725D01*
X410242Y157728D01*
X410239Y157767D01*
X410278Y157771D01*
X410274Y157810D01*
X410271Y157849D01*
X410310Y157852D01*
X410307Y157891D01*
X410346Y157895D01*
X410342Y157934D01*
X410381Y157937D01*
X410378Y157976D01*
X410374Y158015D01*
X410413Y158019D01*
X410410Y158058D01*
X410449Y158061D01*
X410446Y158100D01*
X410485Y158103D01*
X410481Y158142D01*
X410520Y158146D01*
X410517Y158185D01*
X410513Y158224D01*
X410553Y158227D01*
X410549Y158266D01*
X410588Y158270D01*
X410585Y158309D01*
X410624Y158312D01*
X410620Y158351D01*
X410617Y158390D01*
X410656Y158394D01*
X410652Y158433D01*
X410691Y158436D01*
X410688Y158475D01*
X410727Y158479D01*
X410724Y158518D01*
X410763Y158521D01*
X410759Y158560D01*
X410756Y158599D01*
X410795Y158602D01*
X410791Y158642D01*
X410830Y158645D01*
X410827Y158684D01*
X410866Y158687D01*
X410863Y158726D01*
X410859Y158765D01*
X410898Y158769D01*
X410895Y158808D01*
X410934Y158811D01*
X410930Y158850D01*
X410970Y158854D01*
X410966Y158893D01*
X411005Y158896D01*
X411002Y158935D01*
X410998Y158974D01*
X411037Y158978D01*
X411034Y159017D01*
X411073Y159020D01*
X411069Y159059D01*
X411109Y159063D01*
X411105Y159101D01*
X411144Y159105D01*
X411141Y159144D01*
X411137Y159183D01*
X411176Y159186D01*
X411173Y159225D01*
X411212Y159229D01*
X411209Y159268D01*
X411248Y159271D01*
X411244Y159310D01*
X411241Y159349D01*
X411280Y159353D01*
X411276Y159392D01*
X411315Y159395D01*
X411312Y159434D01*
X411351Y159438D01*
X411348Y159477D01*
X411387Y159480D01*
X411383Y159519D01*
X411380Y159558D01*
X411419Y159562D01*
X411415Y159601D01*
X411412Y159640D01*
X411409Y159679D01*
X411370Y159675D01*
X411366Y159714D01*
X411327Y159711D01*
X411324Y159750D01*
X411320Y159789D01*
X411281Y159785D01*
X411278Y159825D01*
X411274Y159863D01*
X411235Y159860D01*
X411232Y159899D01*
X411229Y159938D01*
X411190Y159935D01*
X411186Y159974D01*
X411183Y160013D01*
X411144Y160009D01*
X411140Y160048D01*
X411137Y160087D01*
X411098Y160084D01*
X411095Y160123D01*
X411091Y160162D01*
X411052Y160159D01*
X411049Y160198D01*
X411010Y160194D01*
X411006Y160233D01*
X411003Y160272D01*
X410964Y160269D01*
X410960Y160308D01*
X410957Y160347D01*
X410918Y160344D01*
X410914Y160383D01*
X410911Y160422D01*
X410872Y160418D01*
X410869Y160457D01*
X410865Y160496D01*
X410826Y160493D01*
X410823Y160532D01*
X410819Y160571D01*
X410780Y160567D01*
X410777Y160607D01*
X410773Y160646D01*
X410734Y160642D01*
X410731Y160681D01*
X410692Y160678D01*
X410689Y160717D01*
X410685Y160756D01*
X410646Y160752D01*
X410643Y160791D01*
X410639Y160830D01*
X410600Y160827D01*
X410597Y160866D01*
X410593Y160905D01*
X410554Y160902D01*
X410551Y160941D01*
X410548Y160980D01*
X410509Y160976D01*
X410505Y161015D01*
X410502Y161054D01*
X410463Y161051D01*
X410459Y161090D01*
X410456Y161129D01*
X410417Y161126D01*
X410414Y161165D01*
X410410Y161204D01*
X410371Y161200D01*
X410368Y161239D01*
X410328Y161236D01*
X410325Y161275D01*
X410322Y161314D01*
X410283Y161311D01*
X410279Y161349D01*
X410276Y161389D01*
X410237Y161385D01*
X410233Y161424D01*
X410230Y161463D01*
X410191Y161460D01*
X410188Y161499D01*
X410184Y161538D01*
X410145Y161534D01*
X410142Y161573D01*
X410138Y161612D01*
X410099Y161609D01*
X410096Y161648D01*
X410092Y161687D01*
X410053Y161684D01*
X410050Y161723D01*
X410011Y161719D01*
X410008Y161758D01*
X410004Y161797D01*
X409965Y161794D01*
X409962Y161833D01*
X412108Y162021D01*
X412112Y161982D01*
X412151Y161985D01*
X412154Y161946D01*
X412157Y161907D01*
X412161Y161868D01*
X412200Y161872D01*
X412203Y161832D01*
X412207Y161793D01*
X412210Y161754D01*
X412249Y161758D01*
X412253Y161719D01*
X412256Y161680D01*
X412259Y161641D01*
X412298Y161644D01*
X412302Y161605D01*
X412305Y161566D01*
X412309Y161527D01*
X412348Y161530D01*
X412351Y161491D01*
X412355Y161452D01*
X412358Y161413D01*
X412397Y161417D01*
X412400Y161378D01*
X412404Y161339D01*
X412407Y161300D01*
X412446Y161303D01*
X412450Y161264D01*
X412453Y161225D01*
X412457Y161186D01*
X412496Y161189D01*
X412499Y161150D01*
X412502Y161111D01*
X412506Y161072D01*
X412545Y161076D01*
X412548Y161037D01*
X412552Y160998D01*
X412555Y160959D01*
X412558Y160920D01*
X412637Y160926D01*
X412633Y160966D01*
X412672Y160969D01*
X412669Y161008D01*
X412708Y161011D01*
X412704Y161050D01*
X412701Y161090D01*
X412740Y161093D01*
X412737Y161132D01*
X412776Y161135D01*
X412772Y161174D01*
X412769Y161213D01*
X412808Y161217D01*
X412804Y161256D01*
X412843Y161259D01*
X412840Y161298D01*
X412837Y161337D01*
X412876Y161341D01*
X412872Y161380D01*
X412911Y161383D01*
X412908Y161422D01*
X412904Y161461D01*
X412943Y161465D01*
X412940Y161504D01*
X412979Y161507D01*
X412976Y161546D01*
X412972Y161585D01*
X413011Y161589D01*
X413008Y161627D01*
X413047Y161631D01*
X413043Y161670D01*
X413040Y161709D01*
X413079Y161712D01*
X413076Y161751D01*
X413115Y161755D01*
X413111Y161794D01*
X413108Y161833D01*
X413147Y161836D01*
X413143Y161875D01*
X413182Y161879D01*
X413179Y161918D01*
X413176Y161957D01*
X413215Y161960D01*
X413211Y161999D01*
X413250Y162003D01*
X413247Y162042D01*
X413243Y162081D01*
X413282Y162084D01*
X413279Y162123D01*
X415425Y162311D01*
X415429Y162272D01*
D02*
G37*
G36*
X326704Y20217D02*
X327378Y20357D01*
X327516Y19695D01*
X328177Y19833D01*
X328319Y19152D01*
X328459Y18478D01*
X328599Y17804D01*
X328739Y17129D01*
X328880Y16455D01*
X329020Y15780D01*
X329156Y15125D01*
X328495Y14988D01*
X328634Y14320D01*
X323920Y13339D01*
X323780Y14007D01*
X323106Y13867D01*
X322970Y14522D01*
X322964Y14521D01*
X323100Y13866D01*
X323239Y13198D01*
X320554Y12639D01*
X320415Y13307D01*
X319741Y13167D01*
X319734Y13166D01*
X319873Y12498D01*
X315159Y11517D01*
X315020Y12185D01*
X314346Y12045D01*
X314210Y12700D01*
X314190Y12696D01*
X314327Y12041D01*
X313665Y11903D01*
X313804Y11235D01*
X309090Y10255D01*
X308951Y10923D01*
X308277Y10782D01*
X308140Y11437D01*
X308121Y11433D01*
X308257Y10778D01*
X308396Y10110D01*
X305712Y9552D01*
X305573Y10220D01*
X304892Y10078D01*
X305031Y9410D01*
X302346Y8852D01*
X302207Y9520D01*
X302188Y9516D01*
X302327Y8848D01*
X299642Y8290D01*
X299503Y8958D01*
X298823Y8816D01*
X298961Y8148D01*
X296277Y7590D01*
X296138Y8258D01*
X296119Y8253D01*
X296258Y7586D01*
X293573Y7027D01*
X293434Y7695D01*
X292753Y7553D01*
X292892Y6886D01*
X290208Y6327D01*
X290069Y6995D01*
X289394Y6855D01*
X289258Y7510D01*
X289118Y8184D01*
X288978Y8859D01*
X288837Y9533D01*
X288697Y10207D01*
X288690Y10206D01*
X288831Y9532D01*
X288971Y8857D01*
X289111Y8183D01*
X286407Y7621D01*
X286548Y6946D01*
X286684Y6291D01*
X286823Y5623D01*
X284138Y5065D01*
X283999Y5733D01*
X283325Y5592D01*
X283189Y6247D01*
X283048Y6922D01*
X282908Y7596D01*
X282768Y8271D01*
X282628Y8945D01*
X282487Y9619D01*
X282346Y10300D01*
X282208Y10962D01*
X282068Y11636D01*
X288131Y12897D01*
X288271Y12223D01*
X288278Y12224D01*
X288137Y12898D01*
X293526Y14019D01*
X293666Y13345D01*
X294340Y13485D01*
X294478Y12824D01*
X294484Y12825D01*
X294347Y13487D01*
X295021Y13627D01*
X294881Y14301D01*
X299595Y15282D01*
X299735Y14607D01*
X300410Y14748D01*
X300547Y14086D01*
X300554Y14087D01*
X300416Y14749D01*
X300276Y15423D01*
X302960Y15982D01*
X303101Y15307D01*
X303775Y15448D01*
X303635Y16122D01*
X306339Y16684D01*
X306479Y16010D01*
X306485Y16011D01*
X307160Y16152D01*
X307019Y16826D01*
X311734Y17807D01*
X311874Y17132D01*
X312548Y17272D01*
X312686Y16611D01*
X312692Y16612D01*
X312555Y17274D01*
X313229Y17414D01*
X313089Y18088D01*
X317803Y19069D01*
X317943Y18395D01*
X318618Y18535D01*
X318755Y17873D01*
X318762Y17875D01*
X318624Y18536D01*
X318484Y19210D01*
X321168Y19769D01*
X321309Y19095D01*
X321315Y19096D01*
X321989Y19236D01*
X321849Y19910D01*
X326563Y20891D01*
X326704Y20217D01*
D02*
G37*
G36*
X274351Y77933D02*
X274364Y77929D01*
X274383Y77928D01*
X274406Y77923D01*
X274455Y77911D01*
X274513Y77895D01*
X274571Y77869D01*
X274628Y77837D01*
X274682Y77791D01*
X274688Y77784D01*
X274704Y77767D01*
X274722Y77740D01*
X274746Y77702D01*
X274770Y77658D01*
X274787Y77605D01*
X274800Y77542D01*
X274804Y77476D01*
X274804Y77473D01*
X274803Y77466D01*
X274803Y77456D01*
X274799Y77443D01*
X274794Y77408D01*
X274781Y77362D01*
X274763Y77311D01*
X274733Y77256D01*
X274698Y77202D01*
X274649Y77152D01*
X274642Y77146D01*
X274622Y77134D01*
X274591Y77113D01*
X274551Y77092D01*
X274497Y77071D01*
X274434Y77052D01*
X274361Y77042D01*
X274282Y77039D01*
X274263Y77040D01*
X274247Y77045D01*
X274227Y77046D01*
X274207Y77050D01*
X274155Y77062D01*
X274101Y77082D01*
X274043Y77104D01*
X273985Y77140D01*
X273932Y77185D01*
X273926Y77192D01*
X273910Y77210D01*
X273892Y77240D01*
X273868Y77277D01*
X273844Y77328D01*
X273827Y77381D01*
X273814Y77444D01*
X273811Y77513D01*
X273811Y77517D01*
X273811Y77523D01*
X273812Y77533D01*
X273815Y77546D01*
X273820Y77579D01*
X273833Y77624D01*
X273851Y77672D01*
X273880Y77723D01*
X273916Y77777D01*
X273964Y77824D01*
X273971Y77830D01*
X273991Y77842D01*
X274022Y77861D01*
X274063Y77885D01*
X274116Y77905D01*
X274179Y77922D01*
X274249Y77931D01*
X274328Y77934D01*
X274351Y77933D01*
D02*
G37*
G36*
X281814Y77320D02*
X281621Y73517D01*
X280858Y73556D01*
X280874Y73874D01*
X280870Y73870D01*
X280860Y73858D01*
X280839Y73843D01*
X280815Y73821D01*
X280785Y73796D01*
X280744Y73769D01*
X280699Y73738D01*
X280645Y73708D01*
X280585Y73675D01*
X280521Y73649D01*
X280447Y73619D01*
X280370Y73597D01*
X280284Y73578D01*
X280195Y73567D01*
X280096Y73558D01*
X279994Y73560D01*
X279955Y73562D01*
X279929Y73567D01*
X279893Y73572D01*
X279854Y73577D01*
X279811Y73583D01*
X279760Y73595D01*
X279707Y73604D01*
X279652Y73620D01*
X279536Y73656D01*
X279475Y73679D01*
X279414Y73705D01*
X279353Y73734D01*
X279295Y73767D01*
X279292Y73770D01*
X279283Y73777D01*
X279267Y73788D01*
X279244Y73802D01*
X279219Y73820D01*
X279191Y73844D01*
X279156Y73872D01*
X279122Y73904D01*
X279084Y73938D01*
X279047Y73976D01*
X279006Y74021D01*
X278969Y74069D01*
X278929Y74117D01*
X278892Y74171D01*
X278859Y74229D01*
X278826Y74290D01*
X278823Y74293D01*
X278820Y74306D01*
X278811Y74323D01*
X278803Y74350D01*
X278791Y74380D01*
X278777Y74417D01*
X278762Y74460D01*
X278748Y74510D01*
X278735Y74564D01*
X278721Y74620D01*
X278711Y74683D01*
X278698Y74749D01*
X278692Y74822D01*
X278686Y74894D01*
X278686Y74970D01*
X278687Y75049D01*
X278688Y75055D01*
X278688Y75068D01*
X278689Y75091D01*
X278694Y75121D01*
X278699Y75157D01*
X278705Y75199D01*
X278714Y75248D01*
X278723Y75300D01*
X278736Y75358D01*
X278748Y75417D01*
X278788Y75540D01*
X278811Y75604D01*
X278837Y75665D01*
X278869Y75726D01*
X278902Y75787D01*
X278905Y75790D01*
X278912Y75799D01*
X278923Y75818D01*
X278937Y75837D01*
X278959Y75866D01*
X278980Y75894D01*
X279008Y75929D01*
X279042Y75963D01*
X279077Y76001D01*
X279115Y76042D01*
X279157Y76079D01*
X279205Y76119D01*
X279253Y76156D01*
X279307Y76193D01*
X279365Y76230D01*
X279422Y76259D01*
X279425Y76263D01*
X279435Y76265D01*
X279455Y76274D01*
X279479Y76283D01*
X279509Y76298D01*
X279546Y76309D01*
X279586Y76323D01*
X279633Y76337D01*
X279686Y76351D01*
X279739Y76365D01*
X279799Y76378D01*
X279862Y76388D01*
X279997Y76401D01*
X280066Y76401D01*
X280138Y76400D01*
X280161Y76399D01*
X280188Y76395D01*
X280227Y76389D01*
X280269Y76384D01*
X280321Y76375D01*
X280376Y76359D01*
X280438Y76342D01*
X280502Y76323D01*
X280567Y76297D01*
X280634Y76267D01*
X280701Y76231D01*
X280768Y76188D01*
X280832Y76142D01*
X280891Y76086D01*
X280947Y76024D01*
X281015Y77361D01*
X281814Y77320D01*
D02*
G37*
G36*
X289741Y75870D02*
X289722Y75506D01*
X289726Y75509D01*
X289729Y75516D01*
X289737Y75525D01*
X289750Y75538D01*
X289785Y75572D01*
X289830Y75612D01*
X289884Y75659D01*
X289956Y75708D01*
X290034Y75750D01*
X290121Y75788D01*
X290124Y75788D01*
X290131Y75791D01*
X290148Y75797D01*
X290164Y75802D01*
X290188Y75808D01*
X290218Y75816D01*
X290251Y75824D01*
X290287Y75832D01*
X290327Y75840D01*
X290370Y75848D01*
X290466Y75859D01*
X290575Y75867D01*
X290690Y75864D01*
X290652Y75124D01*
X290646Y75124D01*
X290633Y75128D01*
X290610Y75129D01*
X290580Y75134D01*
X290522Y75140D01*
X290440Y75145D01*
X290417Y75143D01*
X290387Y75141D01*
X290354Y75139D01*
X290318Y75134D01*
X290278Y75130D01*
X290188Y75111D01*
X290145Y75097D01*
X290098Y75080D01*
X290051Y75059D01*
X290007Y75038D01*
X289966Y75008D01*
X289925Y74977D01*
X289922Y74974D01*
X289915Y74968D01*
X289908Y74958D01*
X289894Y74942D01*
X289877Y74924D01*
X289859Y74898D01*
X289841Y74873D01*
X289823Y74838D01*
X289802Y74803D01*
X289783Y74761D01*
X289764Y74713D01*
X289745Y74661D01*
X289729Y74606D01*
X289720Y74544D01*
X289710Y74479D01*
X289703Y74410D01*
X289637Y73110D01*
X288834Y73150D01*
X288974Y75909D01*
X289741Y75870D01*
D02*
G37*
G36*
X271821Y76820D02*
X271897Y76819D01*
X271936Y76817D01*
X271965Y76812D01*
X272001Y76807D01*
X272044Y76802D01*
X272089Y76796D01*
X272141Y76784D01*
X272193Y76771D01*
X272252Y76758D01*
X272374Y76719D01*
X272436Y76697D01*
X272500Y76670D01*
X272561Y76641D01*
X272621Y76605D01*
X272624Y76602D01*
X272634Y76598D01*
X272653Y76584D01*
X272675Y76569D01*
X272701Y76552D01*
X272732Y76527D01*
X272764Y76499D01*
X272802Y76468D01*
X272843Y76433D01*
X272880Y76392D01*
X272920Y76350D01*
X272961Y76302D01*
X273001Y76251D01*
X273041Y76196D01*
X273077Y76139D01*
X273110Y76078D01*
X273113Y76074D01*
X273119Y76064D01*
X273125Y76044D01*
X273137Y76020D01*
X273148Y75987D01*
X273163Y75950D01*
X273180Y75907D01*
X273194Y75857D01*
X273208Y75803D01*
X273225Y75744D01*
X273238Y75680D01*
X273248Y75614D01*
X273257Y75545D01*
X273263Y75472D01*
X273263Y75393D01*
X273262Y75315D01*
X273262Y75308D01*
X273261Y75298D01*
X273257Y75282D01*
X273256Y75256D01*
X273251Y75236D01*
X273250Y75217D01*
X273246Y75194D01*
X273245Y75164D01*
X273240Y75135D01*
X273235Y75099D01*
X271145Y75205D01*
X271145Y75202D01*
X271147Y75195D01*
X271150Y75182D01*
X271156Y75162D01*
X271161Y75142D01*
X271170Y75116D01*
X271193Y75055D01*
X271226Y74988D01*
X271268Y74920D01*
X271324Y74852D01*
X271358Y74817D01*
X271393Y74786D01*
X271396Y74785D01*
X271402Y74778D01*
X271415Y74771D01*
X271431Y74761D01*
X271450Y74750D01*
X271472Y74736D01*
X271501Y74721D01*
X271533Y74706D01*
X271568Y74688D01*
X271607Y74673D01*
X271649Y74658D01*
X271697Y74645D01*
X271798Y74624D01*
X271850Y74618D01*
X271909Y74612D01*
X271945Y74610D01*
X271965Y74612D01*
X271985Y74611D01*
X272037Y74612D01*
X272097Y74618D01*
X272160Y74625D01*
X272226Y74638D01*
X272292Y74655D01*
X272296Y74654D01*
X272299Y74657D01*
X272309Y74660D01*
X272323Y74666D01*
X272353Y74681D01*
X272396Y74699D01*
X272447Y74726D01*
X272501Y74759D01*
X272556Y74796D01*
X272614Y74842D01*
X273016Y74358D01*
X273013Y74355D01*
X272996Y74340D01*
X272975Y74321D01*
X272941Y74293D01*
X272897Y74262D01*
X272845Y74226D01*
X272784Y74189D01*
X272717Y74153D01*
X272639Y74115D01*
X272552Y74080D01*
X272455Y74045D01*
X272352Y74018D01*
X272239Y73994D01*
X272120Y73980D01*
X271992Y73974D01*
X271854Y73974D01*
X271808Y73976D01*
X271775Y73981D01*
X271736Y73987D01*
X271687Y73992D01*
X271635Y74001D01*
X271577Y74011D01*
X271515Y74024D01*
X271450Y74037D01*
X271314Y74077D01*
X271243Y74103D01*
X271172Y74130D01*
X271105Y74160D01*
X271038Y74196D01*
X271034Y74199D01*
X271022Y74207D01*
X271006Y74217D01*
X270980Y74232D01*
X270952Y74253D01*
X270917Y74278D01*
X270882Y74306D01*
X270841Y74337D01*
X270800Y74372D01*
X270756Y74414D01*
X270712Y74456D01*
X270669Y74504D01*
X270626Y74555D01*
X270585Y74607D01*
X270546Y74664D01*
X270509Y74725D01*
X270506Y74729D01*
X270500Y74742D01*
X270495Y74759D01*
X270483Y74783D01*
X270468Y74816D01*
X270454Y74853D01*
X270439Y74896D01*
X270425Y74943D01*
X270408Y74997D01*
X270395Y75053D01*
X270381Y75116D01*
X270368Y75182D01*
X270359Y75249D01*
X270356Y75321D01*
X270353Y75397D01*
X270354Y75472D01*
X270354Y75476D01*
X270355Y75492D01*
X270356Y75512D01*
X270360Y75541D01*
X270366Y75577D01*
X270371Y75616D01*
X270380Y75661D01*
X270389Y75713D01*
X270402Y75769D01*
X270417Y75824D01*
X270437Y75885D01*
X270460Y75946D01*
X270483Y76008D01*
X270512Y76069D01*
X270545Y76129D01*
X270581Y76190D01*
X270584Y76193D01*
X270591Y76202D01*
X270602Y76222D01*
X270619Y76244D01*
X270640Y76269D01*
X270665Y76301D01*
X270696Y76332D01*
X270728Y76370D01*
X270766Y76407D01*
X270807Y76448D01*
X270852Y76488D01*
X270903Y76528D01*
X270954Y76568D01*
X271012Y76605D01*
X271070Y76641D01*
X271134Y76674D01*
X271137Y76677D01*
X271151Y76680D01*
X271167Y76689D01*
X271194Y76701D01*
X271228Y76712D01*
X271265Y76727D01*
X271311Y76741D01*
X271358Y76755D01*
X271415Y76768D01*
X271471Y76782D01*
X271534Y76795D01*
X271604Y76805D01*
X271673Y76814D01*
X271746Y76820D01*
X271821Y76820D01*
D02*
G37*
G36*
X283696Y76216D02*
X283771Y76216D01*
X283811Y76214D01*
X283840Y76209D01*
X283876Y76204D01*
X283918Y76199D01*
X283964Y76193D01*
X284016Y76180D01*
X284068Y76168D01*
X284126Y76155D01*
X284249Y76116D01*
X284310Y76093D01*
X284375Y76067D01*
X284436Y76038D01*
X284496Y76002D01*
X284499Y75998D01*
X284509Y75994D01*
X284528Y75980D01*
X284550Y75966D01*
X284576Y75948D01*
X284607Y75924D01*
X284639Y75896D01*
X284676Y75864D01*
X284717Y75829D01*
X284755Y75788D01*
X284795Y75747D01*
X284835Y75699D01*
X284875Y75647D01*
X284915Y75593D01*
X284952Y75535D01*
X284985Y75474D01*
X284988Y75471D01*
X284994Y75461D01*
X285000Y75441D01*
X285012Y75417D01*
X285023Y75384D01*
X285038Y75347D01*
X285055Y75303D01*
X285069Y75253D01*
X285083Y75200D01*
X285099Y75140D01*
X285113Y75077D01*
X285122Y75011D01*
X285132Y74941D01*
X285138Y74869D01*
X285137Y74790D01*
X285137Y74711D01*
X285136Y74705D01*
X285136Y74695D01*
X285132Y74679D01*
X285130Y74652D01*
X285126Y74633D01*
X285125Y74613D01*
X285121Y74590D01*
X285119Y74561D01*
X285114Y74532D01*
X285109Y74496D01*
X283019Y74602D01*
X283019Y74599D01*
X283022Y74592D01*
X283025Y74579D01*
X283030Y74559D01*
X283036Y74539D01*
X283044Y74512D01*
X283067Y74452D01*
X283100Y74384D01*
X283143Y74317D01*
X283198Y74248D01*
X283233Y74213D01*
X283267Y74182D01*
X283271Y74182D01*
X283277Y74175D01*
X283290Y74168D01*
X283306Y74157D01*
X283325Y74146D01*
X283347Y74132D01*
X283376Y74118D01*
X283408Y74103D01*
X283443Y74085D01*
X283482Y74069D01*
X283524Y74054D01*
X283572Y74042D01*
X283673Y74020D01*
X283725Y74014D01*
X283784Y74008D01*
X283820Y74006D01*
X283840Y74009D01*
X283859Y74008D01*
X283912Y74008D01*
X283972Y74015D01*
X284034Y74022D01*
X284101Y74035D01*
X284167Y74051D01*
X284170Y74051D01*
X284174Y74054D01*
X284184Y74057D01*
X284197Y74063D01*
X284228Y74078D01*
X284271Y74095D01*
X284322Y74122D01*
X284376Y74155D01*
X284430Y74192D01*
X284489Y74238D01*
X284891Y73755D01*
X284888Y73752D01*
X284870Y73736D01*
X284850Y73717D01*
X284816Y73690D01*
X284771Y73659D01*
X284720Y73622D01*
X284659Y73586D01*
X284592Y73550D01*
X284514Y73511D01*
X284427Y73476D01*
X284330Y73442D01*
X284227Y73414D01*
X284114Y73390D01*
X283995Y73377D01*
X283867Y73370D01*
X283729Y73371D01*
X283683Y73373D01*
X283650Y73378D01*
X283611Y73383D01*
X283562Y73389D01*
X283510Y73398D01*
X283451Y73408D01*
X283390Y73421D01*
X283325Y73434D01*
X283189Y73474D01*
X283118Y73500D01*
X283047Y73527D01*
X282979Y73556D01*
X282912Y73593D01*
X282909Y73596D01*
X282896Y73603D01*
X282880Y73614D01*
X282855Y73628D01*
X282826Y73650D01*
X282792Y73674D01*
X282757Y73702D01*
X282716Y73734D01*
X282675Y73769D01*
X282631Y73811D01*
X282587Y73852D01*
X282544Y73900D01*
X282500Y73952D01*
X282460Y74003D01*
X282420Y74061D01*
X282384Y74122D01*
X282381Y74125D01*
X282375Y74139D01*
X282369Y74156D01*
X282357Y74179D01*
X282343Y74213D01*
X282328Y74250D01*
X282314Y74293D01*
X282300Y74340D01*
X282283Y74393D01*
X282269Y74450D01*
X282256Y74513D01*
X282243Y74579D01*
X282233Y74645D01*
X282230Y74718D01*
X282228Y74793D01*
X282228Y74869D01*
X282228Y74872D01*
X282229Y74888D01*
X282230Y74908D01*
X282235Y74937D01*
X282240Y74973D01*
X282245Y75012D01*
X282254Y75058D01*
X282263Y75110D01*
X282276Y75165D01*
X282292Y75220D01*
X282312Y75282D01*
X282334Y75343D01*
X282357Y75404D01*
X282387Y75465D01*
X282419Y75526D01*
X282455Y75586D01*
X282459Y75590D01*
X282466Y75599D01*
X282476Y75618D01*
X282494Y75640D01*
X282515Y75665D01*
X282540Y75697D01*
X282571Y75728D01*
X282602Y75766D01*
X282640Y75804D01*
X282682Y75844D01*
X282727Y75885D01*
X282778Y75925D01*
X282829Y75965D01*
X282887Y76001D01*
X282944Y76038D01*
X283009Y76071D01*
X283012Y76074D01*
X283025Y76076D01*
X283042Y76085D01*
X283069Y76097D01*
X283102Y76109D01*
X283139Y76123D01*
X283186Y76137D01*
X283233Y76151D01*
X283289Y76165D01*
X283346Y76178D01*
X283409Y76192D01*
X283478Y76201D01*
X283548Y76211D01*
X283620Y76217D01*
X283696Y76216D01*
D02*
G37*
G36*
X286932Y76052D02*
X287008Y76051D01*
X287047Y76049D01*
X287076Y76045D01*
X287112Y76039D01*
X287155Y76034D01*
X287200Y76028D01*
X287252Y76016D01*
X287304Y76003D01*
X287363Y75991D01*
X287486Y75951D01*
X287547Y75929D01*
X287611Y75902D01*
X287672Y75873D01*
X287733Y75837D01*
X287736Y75834D01*
X287745Y75830D01*
X287764Y75816D01*
X287787Y75802D01*
X287812Y75784D01*
X287844Y75759D01*
X287875Y75731D01*
X287913Y75700D01*
X287954Y75665D01*
X287991Y75624D01*
X288032Y75582D01*
X288072Y75534D01*
X288112Y75483D01*
X288152Y75428D01*
X288188Y75371D01*
X288221Y75310D01*
X288225Y75306D01*
X288231Y75296D01*
X288236Y75276D01*
X288248Y75253D01*
X288260Y75219D01*
X288274Y75182D01*
X288292Y75139D01*
X288305Y75089D01*
X288319Y75036D01*
X288336Y74976D01*
X288349Y74913D01*
X288359Y74846D01*
X288368Y74777D01*
X288375Y74704D01*
X288374Y74625D01*
X288373Y74547D01*
X288373Y74540D01*
X288372Y74530D01*
X288368Y74514D01*
X288367Y74488D01*
X288363Y74468D01*
X288362Y74449D01*
X288357Y74426D01*
X288356Y74397D01*
X288351Y74367D01*
X288346Y74331D01*
X286256Y74438D01*
X286256Y74434D01*
X286259Y74428D01*
X286261Y74414D01*
X286267Y74394D01*
X286272Y74374D01*
X286281Y74348D01*
X286304Y74287D01*
X286337Y74220D01*
X286379Y74152D01*
X286435Y74084D01*
X286469Y74049D01*
X286504Y74018D01*
X286507Y74018D01*
X286513Y74011D01*
X286526Y74003D01*
X286542Y73993D01*
X286561Y73982D01*
X286583Y73968D01*
X286612Y73953D01*
X286644Y73938D01*
X286680Y73920D01*
X286718Y73905D01*
X286760Y73890D01*
X286809Y73877D01*
X286909Y73856D01*
X286962Y73850D01*
X287020Y73844D01*
X287056Y73842D01*
X287076Y73844D01*
X287096Y73843D01*
X287148Y73844D01*
X287208Y73851D01*
X287271Y73857D01*
X287337Y73870D01*
X287404Y73887D01*
X287407Y73887D01*
X287410Y73890D01*
X287420Y73892D01*
X287434Y73898D01*
X287464Y73913D01*
X287508Y73931D01*
X287558Y73958D01*
X287613Y73991D01*
X287667Y74028D01*
X287725Y74074D01*
X288127Y73590D01*
X288124Y73587D01*
X288107Y73572D01*
X288086Y73553D01*
X288052Y73525D01*
X288008Y73495D01*
X287957Y73458D01*
X287896Y73422D01*
X287828Y73386D01*
X287751Y73347D01*
X287663Y73312D01*
X287566Y73277D01*
X287463Y73250D01*
X287350Y73226D01*
X287231Y73212D01*
X287103Y73206D01*
X286965Y73206D01*
X286919Y73208D01*
X286887Y73213D01*
X286847Y73219D01*
X286799Y73224D01*
X286746Y73234D01*
X286688Y73243D01*
X286626Y73256D01*
X286561Y73269D01*
X286425Y73309D01*
X286354Y73336D01*
X286283Y73362D01*
X286216Y73392D01*
X286149Y73428D01*
X286146Y73432D01*
X286133Y73439D01*
X286117Y73449D01*
X286091Y73464D01*
X286063Y73485D01*
X286028Y73510D01*
X285993Y73538D01*
X285952Y73570D01*
X285911Y73605D01*
X285868Y73646D01*
X285824Y73688D01*
X285780Y73736D01*
X285737Y73787D01*
X285697Y73839D01*
X285657Y73897D01*
X285621Y73958D01*
X285617Y73961D01*
X285612Y73974D01*
X285606Y73991D01*
X285594Y74015D01*
X285579Y74048D01*
X285565Y74085D01*
X285550Y74129D01*
X285536Y74175D01*
X285519Y74229D01*
X285506Y74285D01*
X285493Y74348D01*
X285480Y74415D01*
X285470Y74481D01*
X285467Y74553D01*
X285464Y74629D01*
X285465Y74704D01*
X285465Y74708D01*
X285466Y74724D01*
X285467Y74744D01*
X285472Y74773D01*
X285477Y74809D01*
X285482Y74848D01*
X285491Y74894D01*
X285500Y74946D01*
X285513Y75001D01*
X285529Y75056D01*
X285548Y75117D01*
X285571Y75178D01*
X285594Y75240D01*
X285623Y75301D01*
X285656Y75361D01*
X285692Y75422D01*
X285695Y75425D01*
X285702Y75435D01*
X285713Y75454D01*
X285731Y75476D01*
X285752Y75501D01*
X285776Y75533D01*
X285807Y75564D01*
X285839Y75602D01*
X285877Y75639D01*
X285918Y75680D01*
X285963Y75720D01*
X286014Y75760D01*
X286066Y75800D01*
X286123Y75837D01*
X286181Y75873D01*
X286245Y75906D01*
X286248Y75909D01*
X286262Y75912D01*
X286279Y75921D01*
X286305Y75933D01*
X286339Y75944D01*
X286376Y75959D01*
X286422Y75973D01*
X286469Y75987D01*
X286526Y76000D01*
X286582Y76014D01*
X286645Y76027D01*
X286715Y76037D01*
X286784Y76046D01*
X286857Y76052D01*
X286932Y76052D01*
D02*
G37*
G36*
X268556Y77780D02*
X268592Y77775D01*
X268631Y77773D01*
X268680Y77764D01*
X268732Y77758D01*
X268791Y77749D01*
X268856Y77736D01*
X268921Y77723D01*
X269057Y77686D01*
X269128Y77666D01*
X269196Y77640D01*
X269267Y77613D01*
X269331Y77580D01*
X269334Y77577D01*
X269347Y77573D01*
X269363Y77562D01*
X269388Y77548D01*
X269417Y77530D01*
X269449Y77508D01*
X269484Y77484D01*
X269525Y77455D01*
X269566Y77424D01*
X269607Y77385D01*
X269651Y77347D01*
X269695Y77306D01*
X269735Y77258D01*
X269775Y77210D01*
X269815Y77155D01*
X269848Y77101D01*
X269852Y77097D01*
X269858Y77087D01*
X269863Y77070D01*
X269875Y77047D01*
X269887Y77020D01*
X269902Y76983D01*
X269919Y76946D01*
X269934Y76899D01*
X269948Y76853D01*
X269964Y76796D01*
X269978Y76739D01*
X269988Y76676D01*
X269998Y76613D01*
X270004Y76544D01*
X270004Y76475D01*
X270003Y76400D01*
X270003Y76397D01*
X270003Y76383D01*
X270001Y76360D01*
X269997Y76334D01*
X269992Y76299D01*
X269986Y76259D01*
X269977Y76214D01*
X269968Y76165D01*
X269956Y76113D01*
X269940Y76058D01*
X269921Y76000D01*
X269898Y75945D01*
X269872Y75888D01*
X269846Y75830D01*
X269811Y75772D01*
X269775Y75718D01*
X269772Y75715D01*
X269764Y75706D01*
X269754Y75693D01*
X269737Y75674D01*
X269716Y75649D01*
X269691Y75624D01*
X269660Y75593D01*
X269629Y75562D01*
X269588Y75528D01*
X269547Y75494D01*
X269499Y75460D01*
X269451Y75426D01*
X269394Y75393D01*
X269336Y75360D01*
X269276Y75330D01*
X269209Y75304D01*
X269953Y74110D01*
X269062Y74155D01*
X268421Y75190D01*
X267655Y75228D01*
X267604Y74229D01*
X266772Y74272D01*
X266954Y77862D01*
X268556Y77780D01*
D02*
G37*
G36*
X274666Y76636D02*
X274526Y73878D01*
X273723Y73918D01*
X273863Y76677D01*
X274666Y76636D01*
D02*
G37*
G36*
X297602Y75510D02*
X297677Y75509D01*
X297716Y75507D01*
X297746Y75502D01*
X297781Y75497D01*
X297824Y75492D01*
X297870Y75486D01*
X297921Y75474D01*
X297973Y75461D01*
X298032Y75449D01*
X298155Y75409D01*
X298216Y75387D01*
X298280Y75360D01*
X298341Y75331D01*
X298402Y75295D01*
X298405Y75292D01*
X298415Y75288D01*
X298433Y75274D01*
X298456Y75259D01*
X298481Y75242D01*
X298513Y75217D01*
X298544Y75189D01*
X298582Y75158D01*
X298623Y75123D01*
X298660Y75082D01*
X298701Y75040D01*
X298741Y74992D01*
X298781Y74941D01*
X298821Y74886D01*
X298858Y74828D01*
X298891Y74768D01*
X298894Y74764D01*
X298900Y74754D01*
X298905Y74734D01*
X298917Y74711D01*
X298929Y74677D01*
X298943Y74640D01*
X298961Y74597D01*
X298975Y74547D01*
X298988Y74493D01*
X299005Y74433D01*
X299018Y74370D01*
X299028Y74304D01*
X299038Y74235D01*
X299044Y74162D01*
X299043Y74083D01*
X299042Y74005D01*
X299042Y73998D01*
X299042Y73988D01*
X299037Y73972D01*
X299036Y73946D01*
X299032Y73926D01*
X299031Y73907D01*
X299026Y73884D01*
X299025Y73854D01*
X299020Y73825D01*
X299015Y73789D01*
X296925Y73896D01*
X296925Y73892D01*
X296928Y73886D01*
X296930Y73872D01*
X296936Y73852D01*
X296941Y73832D01*
X296950Y73805D01*
X296973Y73745D01*
X297006Y73678D01*
X297048Y73610D01*
X297104Y73541D01*
X297139Y73507D01*
X297173Y73476D01*
X297176Y73475D01*
X297182Y73469D01*
X297195Y73461D01*
X297211Y73451D01*
X297230Y73440D01*
X297253Y73426D01*
X297281Y73411D01*
X297313Y73396D01*
X297349Y73378D01*
X297387Y73363D01*
X297429Y73348D01*
X297478Y73335D01*
X297579Y73314D01*
X297631Y73308D01*
X297690Y73302D01*
X297726Y73300D01*
X297745Y73302D01*
X297765Y73301D01*
X297818Y73302D01*
X297877Y73308D01*
X297940Y73315D01*
X298006Y73328D01*
X298073Y73344D01*
X298076Y73344D01*
X298079Y73347D01*
X298090Y73350D01*
X298103Y73356D01*
X298133Y73371D01*
X298177Y73388D01*
X298227Y73415D01*
X298282Y73449D01*
X298336Y73485D01*
X298394Y73532D01*
X298797Y73048D01*
X298793Y73045D01*
X298776Y73030D01*
X298755Y73011D01*
X298721Y72983D01*
X298677Y72953D01*
X298626Y72916D01*
X298565Y72879D01*
X298497Y72843D01*
X298420Y72805D01*
X298333Y72770D01*
X298236Y72735D01*
X298132Y72708D01*
X298020Y72684D01*
X297901Y72670D01*
X297772Y72663D01*
X297634Y72664D01*
X297588Y72666D01*
X297556Y72671D01*
X297517Y72676D01*
X297468Y72682D01*
X297416Y72692D01*
X297357Y72701D01*
X297295Y72714D01*
X297230Y72727D01*
X297094Y72767D01*
X297023Y72794D01*
X296953Y72820D01*
X296885Y72850D01*
X296818Y72886D01*
X296815Y72890D01*
X296802Y72897D01*
X296786Y72907D01*
X296761Y72922D01*
X296732Y72943D01*
X296697Y72968D01*
X296662Y72996D01*
X296621Y73027D01*
X296581Y73062D01*
X296537Y73104D01*
X296493Y73146D01*
X296449Y73194D01*
X296406Y73245D01*
X296366Y73297D01*
X296326Y73354D01*
X296290Y73415D01*
X296287Y73419D01*
X296281Y73432D01*
X296275Y73449D01*
X296263Y73473D01*
X296248Y73506D01*
X296234Y73543D01*
X296220Y73586D01*
X296206Y73633D01*
X296189Y73686D01*
X296175Y73743D01*
X296162Y73806D01*
X296149Y73873D01*
X296139Y73939D01*
X296136Y74011D01*
X296133Y74087D01*
X296134Y74162D01*
X296134Y74165D01*
X296135Y74182D01*
X296136Y74202D01*
X296141Y74231D01*
X296146Y74267D01*
X296151Y74306D01*
X296160Y74351D01*
X296169Y74404D01*
X296182Y74459D01*
X296198Y74514D01*
X296217Y74575D01*
X296240Y74636D01*
X296263Y74698D01*
X296292Y74758D01*
X296325Y74819D01*
X296361Y74880D01*
X296364Y74883D01*
X296371Y74892D01*
X296382Y74912D01*
X296400Y74934D01*
X296421Y74959D01*
X296445Y74990D01*
X296477Y75022D01*
X296508Y75060D01*
X296546Y75097D01*
X296587Y75138D01*
X296632Y75178D01*
X296684Y75218D01*
X296735Y75258D01*
X296793Y75295D01*
X296850Y75331D01*
X296914Y75364D01*
X296918Y75367D01*
X296931Y75370D01*
X296948Y75379D01*
X296975Y75390D01*
X297008Y75402D01*
X297045Y75416D01*
X297092Y75431D01*
X297138Y75445D01*
X297195Y75458D01*
X297251Y75472D01*
X297315Y75485D01*
X297384Y75494D01*
X297453Y75504D01*
X297526Y75510D01*
X297602Y75510D01*
D02*
G37*
G36*
X276173Y76559D02*
X276156Y76235D01*
X276160Y76238D01*
X276163Y76241D01*
X276173Y76250D01*
X276187Y76263D01*
X276222Y76294D01*
X276269Y76331D01*
X276327Y76371D01*
X276398Y76413D01*
X276476Y76452D01*
X276563Y76487D01*
X276566Y76487D01*
X276573Y76490D01*
X276587Y76495D01*
X276606Y76501D01*
X276626Y76507D01*
X276653Y76512D01*
X276686Y76520D01*
X276719Y76528D01*
X276756Y76533D01*
X276796Y76541D01*
X276885Y76553D01*
X276984Y76557D01*
X277085Y76556D01*
X277108Y76554D01*
X277134Y76550D01*
X277170Y76548D01*
X277213Y76539D01*
X277265Y76530D01*
X277320Y76517D01*
X277382Y76501D01*
X277443Y76481D01*
X277511Y76458D01*
X277578Y76429D01*
X277645Y76396D01*
X277713Y76359D01*
X277779Y76313D01*
X277839Y76264D01*
X277899Y76205D01*
X277902Y76202D01*
X277911Y76192D01*
X277926Y76171D01*
X277945Y76144D01*
X277970Y76113D01*
X277994Y76073D01*
X278017Y76022D01*
X278047Y75968D01*
X278074Y75904D01*
X278097Y75837D01*
X278122Y75761D01*
X278141Y75678D01*
X278156Y75585D01*
X278168Y75489D01*
X278172Y75387D01*
X278170Y75275D01*
X278090Y73697D01*
X277287Y73737D01*
X277361Y75192D01*
X277361Y75195D01*
X277362Y75205D01*
X277363Y75225D01*
X277360Y75244D01*
X277362Y75274D01*
X277360Y75303D01*
X277355Y75340D01*
X277354Y75376D01*
X277338Y75456D01*
X277316Y75539D01*
X277288Y75619D01*
X277266Y75653D01*
X277242Y75687D01*
X277242Y75690D01*
X277236Y75694D01*
X277217Y75715D01*
X277185Y75743D01*
X277141Y75774D01*
X277084Y75807D01*
X277016Y75836D01*
X276932Y75861D01*
X276886Y75866D01*
X276837Y75872D01*
X276808Y75873D01*
X276788Y75871D01*
X276762Y75869D01*
X276732Y75867D01*
X276699Y75862D01*
X276662Y75858D01*
X276583Y75839D01*
X276543Y75828D01*
X276499Y75810D01*
X276459Y75789D01*
X276418Y75768D01*
X276381Y75741D01*
X276343Y75710D01*
X276340Y75707D01*
X276336Y75700D01*
X276326Y75691D01*
X276315Y75675D01*
X276301Y75656D01*
X276283Y75634D01*
X276265Y75605D01*
X276247Y75573D01*
X276229Y75538D01*
X276211Y75497D01*
X276195Y75455D01*
X276176Y75403D01*
X276164Y75351D01*
X276151Y75293D01*
X276145Y75230D01*
X276138Y75162D01*
X276068Y73799D01*
X275266Y73840D01*
X275406Y76598D01*
X276173Y76559D01*
D02*
G37*
G36*
X294337Y76471D02*
X294372Y76465D01*
X294412Y76463D01*
X294461Y76454D01*
X294513Y76448D01*
X294571Y76439D01*
X294636Y76426D01*
X294701Y76412D01*
X294837Y76376D01*
X294909Y76356D01*
X294976Y76330D01*
X295047Y76303D01*
X295111Y76270D01*
X295114Y76267D01*
X295127Y76263D01*
X295143Y76252D01*
X295169Y76238D01*
X295197Y76220D01*
X295229Y76199D01*
X295264Y76174D01*
X295305Y76145D01*
X295346Y76114D01*
X295387Y76076D01*
X295431Y76037D01*
X295475Y75995D01*
X295515Y75947D01*
X295555Y75899D01*
X295595Y75845D01*
X295629Y75791D01*
X295632Y75787D01*
X295638Y75777D01*
X295644Y75760D01*
X295656Y75737D01*
X295667Y75710D01*
X295682Y75673D01*
X295700Y75636D01*
X295714Y75589D01*
X295728Y75543D01*
X295745Y75486D01*
X295758Y75429D01*
X295768Y75366D01*
X295778Y75304D01*
X295784Y75234D01*
X295784Y75165D01*
X295784Y75090D01*
X295783Y75086D01*
X295783Y75073D01*
X295782Y75050D01*
X295777Y75024D01*
X295772Y74989D01*
X295767Y74949D01*
X295758Y74904D01*
X295749Y74855D01*
X295736Y74803D01*
X295720Y74748D01*
X295701Y74690D01*
X295678Y74635D01*
X295653Y74577D01*
X295627Y74520D01*
X295591Y74462D01*
X295555Y74408D01*
X295552Y74405D01*
X295545Y74396D01*
X295534Y74383D01*
X295517Y74364D01*
X295496Y74339D01*
X295472Y74314D01*
X295441Y74283D01*
X295409Y74252D01*
X295368Y74218D01*
X295327Y74184D01*
X295279Y74150D01*
X295232Y74116D01*
X295174Y74083D01*
X295117Y74050D01*
X295056Y74020D01*
X294989Y73994D01*
X295733Y72800D01*
X294842Y72845D01*
X294202Y73879D01*
X293435Y73918D01*
X293384Y72919D01*
X292552Y72962D01*
X292735Y76552D01*
X294337Y76471D01*
D02*
G37*
G36*
X300060Y75345D02*
X300728Y73430D01*
X301616Y75266D01*
X302385Y75227D01*
X301079Y72528D01*
X300254Y72570D01*
X299237Y75387D01*
X300060Y75345D01*
D02*
G37*
G36*
X302942Y73389D02*
X302958Y73385D01*
X302975Y73384D01*
X302998Y73380D01*
X303046Y73368D01*
X303101Y73348D01*
X303159Y73319D01*
X303216Y73283D01*
X303269Y73235D01*
X303273Y73235D01*
X303276Y73228D01*
X303291Y73211D01*
X303312Y73177D01*
X303337Y73136D01*
X303360Y73082D01*
X303380Y73022D01*
X303393Y72949D01*
X303397Y72910D01*
X303395Y72870D01*
X303395Y72867D01*
X303395Y72861D01*
X303394Y72851D01*
X303390Y72834D01*
X303390Y72818D01*
X303385Y72795D01*
X303373Y72747D01*
X303350Y72692D01*
X303321Y72634D01*
X303285Y72574D01*
X303261Y72549D01*
X303233Y72521D01*
X303226Y72514D01*
X303206Y72499D01*
X303175Y72478D01*
X303131Y72457D01*
X303078Y72433D01*
X303017Y72413D01*
X302948Y72400D01*
X302912Y72399D01*
X302872Y72398D01*
X302853Y72399D01*
X302836Y72403D01*
X302820Y72404D01*
X302797Y72408D01*
X302748Y72421D01*
X302694Y72443D01*
X302636Y72469D01*
X302576Y72508D01*
X302550Y72529D01*
X302522Y72557D01*
X302522Y72560D01*
X302516Y72564D01*
X302501Y72584D01*
X302479Y72615D01*
X302459Y72659D01*
X302435Y72712D01*
X302415Y72776D01*
X302402Y72845D01*
X302401Y72882D01*
X302400Y72921D01*
X302400Y72924D01*
X302400Y72931D01*
X302401Y72944D01*
X302405Y72957D01*
X302406Y72976D01*
X302410Y72999D01*
X302422Y73048D01*
X302445Y73106D01*
X302471Y73164D01*
X302510Y73221D01*
X302531Y73246D01*
X302559Y73271D01*
X302562Y73274D01*
X302566Y73277D01*
X302586Y73292D01*
X302616Y73311D01*
X302660Y73335D01*
X302714Y73358D01*
X302777Y73375D01*
X302847Y73388D01*
X302923Y73390D01*
X302942Y73389D01*
D02*
G37*
G36*
X305467Y75964D02*
X305510Y75962D01*
X305542Y75957D01*
X305582Y75952D01*
X305627Y75943D01*
X305679Y75933D01*
X305735Y75924D01*
X305793Y75908D01*
X305858Y75892D01*
X305922Y75869D01*
X305987Y75846D01*
X306054Y75816D01*
X306121Y75783D01*
X306189Y75747D01*
X306252Y75704D01*
X306255Y75701D01*
X306268Y75693D01*
X306284Y75679D01*
X306309Y75662D01*
X306337Y75637D01*
X306369Y75606D01*
X306406Y75571D01*
X306444Y75533D01*
X306484Y75489D01*
X306528Y75437D01*
X306571Y75382D01*
X306614Y75324D01*
X306653Y75260D01*
X306696Y75189D01*
X306731Y75115D01*
X306767Y75037D01*
X306770Y75034D01*
X306776Y75017D01*
X306784Y74994D01*
X306792Y74961D01*
X306807Y74920D01*
X306821Y74874D01*
X306834Y74817D01*
X306851Y74751D01*
X306867Y74681D01*
X306879Y74605D01*
X306892Y74522D01*
X306904Y74433D01*
X306909Y74341D01*
X306913Y74242D01*
X306915Y74140D01*
X306913Y74032D01*
X306912Y74025D01*
X306911Y74005D01*
X306910Y73976D01*
X306904Y73934D01*
X306899Y73885D01*
X306892Y73826D01*
X306883Y73761D01*
X306873Y73692D01*
X306855Y73614D01*
X306838Y73536D01*
X306821Y73452D01*
X306797Y73371D01*
X306770Y73287D01*
X306739Y73203D01*
X306706Y73123D01*
X306665Y73043D01*
X306662Y73039D01*
X306655Y73023D01*
X306644Y73004D01*
X306626Y72976D01*
X306604Y72940D01*
X306576Y72903D01*
X306548Y72858D01*
X306513Y72814D01*
X306471Y72763D01*
X306429Y72713D01*
X306380Y72663D01*
X306328Y72613D01*
X306273Y72563D01*
X306215Y72517D01*
X306154Y72471D01*
X306086Y72431D01*
X306082Y72428D01*
X306069Y72423D01*
X306049Y72414D01*
X306022Y72402D01*
X305988Y72387D01*
X305948Y72370D01*
X305901Y72352D01*
X305851Y72335D01*
X305794Y72318D01*
X305731Y72302D01*
X305665Y72285D01*
X305595Y72273D01*
X305519Y72263D01*
X305443Y72257D01*
X305361Y72255D01*
X305279Y72256D01*
X305236Y72258D01*
X305204Y72263D01*
X305165Y72268D01*
X305119Y72277D01*
X305070Y72286D01*
X305015Y72295D01*
X304953Y72312D01*
X304892Y72328D01*
X304827Y72348D01*
X304759Y72374D01*
X304692Y72401D01*
X304625Y72434D01*
X304557Y72470D01*
X304494Y72512D01*
X304491Y72516D01*
X304478Y72523D01*
X304462Y72537D01*
X304440Y72558D01*
X304412Y72579D01*
X304377Y72610D01*
X304343Y72645D01*
X304306Y72686D01*
X304262Y72731D01*
X304222Y72779D01*
X304179Y72834D01*
X304136Y72895D01*
X304096Y72960D01*
X304054Y73027D01*
X304018Y73102D01*
X303982Y73179D01*
X303980Y73186D01*
X303974Y73199D01*
X303965Y73222D01*
X303957Y73256D01*
X303942Y73296D01*
X303929Y73346D01*
X303915Y73402D01*
X303899Y73466D01*
X303882Y73535D01*
X303870Y73615D01*
X303858Y73698D01*
X303846Y73787D01*
X303841Y73879D01*
X303836Y73978D01*
X303835Y74080D01*
X303837Y74188D01*
X303837Y74191D01*
X303837Y74195D01*
X303838Y74214D01*
X303840Y74244D01*
X303845Y74286D01*
X303851Y74335D01*
X303857Y74394D01*
X303867Y74459D01*
X303880Y74527D01*
X303894Y74605D01*
X303911Y74683D01*
X303932Y74764D01*
X303952Y74849D01*
X303980Y74933D01*
X304010Y75017D01*
X304044Y75097D01*
X304084Y75174D01*
X304087Y75177D01*
X304095Y75193D01*
X304106Y75212D01*
X304123Y75241D01*
X304145Y75276D01*
X304173Y75314D01*
X304202Y75358D01*
X304237Y75402D01*
X304275Y75453D01*
X304321Y75503D01*
X304369Y75553D01*
X304418Y75603D01*
X304473Y75653D01*
X304531Y75700D01*
X304596Y75745D01*
X304660Y75785D01*
X304664Y75788D01*
X304677Y75794D01*
X304697Y75803D01*
X304724Y75818D01*
X304758Y75832D01*
X304798Y75847D01*
X304845Y75864D01*
X304898Y75884D01*
X304955Y75901D01*
X305015Y75918D01*
X305081Y75931D01*
X305154Y75947D01*
X305227Y75956D01*
X305306Y75962D01*
X305385Y75965D01*
X305467Y75964D01*
D02*
G37*
G36*
X308792Y75736D02*
X308610Y72146D01*
X307781Y72188D01*
X307930Y75110D01*
X307209Y75146D01*
X307243Y75815D01*
X308792Y75736D01*
D02*
G37*
G36*
X272608Y9313D02*
X273285D01*
Y8642D01*
Y7954D01*
Y7260D01*
Y6572D01*
Y5884D01*
Y5196D01*
Y4508D01*
Y3837D01*
Y3154D01*
X270544D01*
Y3837D01*
X269851D01*
Y3154D01*
X267110D01*
X264369D01*
Y3837D01*
X264358D01*
D01*
Y3154D01*
X261617D01*
Y3837D01*
X260924D01*
Y3154D01*
X258183D01*
Y3837D01*
X257495D01*
Y4508D01*
Y5196D01*
Y5884D01*
Y6572D01*
Y7260D01*
Y7954D01*
Y8642D01*
Y9313D01*
Y10007D01*
X260236D01*
Y9313D01*
X260924D01*
Y10007D01*
X263681D01*
X266422D01*
X269163D01*
Y9313D01*
X269851D01*
Y10007D01*
X272608D01*
Y9313D01*
D02*
G37*
%LPC*%
G36*
X396658Y161062D02*
X395566Y160967D01*
X395569Y160928D01*
X395572Y160889D01*
X395576Y160850D01*
X395579Y160811D01*
X395583Y160772D01*
X395544Y160768D01*
X395547Y160729D01*
X395551Y160690D01*
X395554Y160651D01*
X395557Y160612D01*
X395561Y160573D01*
X395564Y160534D01*
X395525Y160531D01*
X395529Y160492D01*
X395532Y160452D01*
X395535Y160414D01*
X395539Y160374D01*
X395542Y160335D01*
X395546Y160296D01*
X395507Y160293D01*
X395510Y160254D01*
X395514Y160215D01*
X395517Y160176D01*
X395520Y160137D01*
X395524Y160098D01*
X395527Y160059D01*
X395488Y160055D01*
X395492Y160016D01*
X395495Y159977D01*
X395498Y159938D01*
X395502Y159899D01*
X395505Y159860D01*
X395509Y159821D01*
X395512Y159782D01*
X395473Y159779D01*
X395476Y159740D01*
X395480Y159701D01*
X395483Y159662D01*
X395487Y159623D01*
X395490Y159584D01*
X395494Y159545D01*
X395455Y159541D01*
X395458Y159502D01*
X395461Y159463D01*
X395465Y159424D01*
X396440Y159510D01*
X396437Y159549D01*
X396593Y159562D01*
X396590Y159601D01*
X396668Y159608D01*
X396664Y159647D01*
X396703Y159651D01*
X396700Y159689D01*
X396739Y159693D01*
X396736Y159732D01*
X396775Y159735D01*
X396771Y159774D01*
X396810Y159778D01*
X396807Y159817D01*
X396803Y159856D01*
X396842Y159859D01*
X396839Y159898D01*
X396835Y159937D01*
X396875Y159941D01*
X396871Y159980D01*
X396868Y160019D01*
X396907Y160022D01*
X396903Y160061D01*
X396900Y160100D01*
X396897Y160139D01*
X396893Y160178D01*
X396932Y160182D01*
X396929Y160221D01*
X396925Y160260D01*
X396922Y160299D01*
X396918Y160338D01*
X396915Y160377D01*
X396954Y160380D01*
X396951Y160419D01*
X396947Y160458D01*
X396944Y160497D01*
X396940Y160536D01*
X396937Y160575D01*
X396934Y160615D01*
X396930Y160653D01*
X396927Y160693D01*
X396923Y160732D01*
X396920Y160771D01*
X396917Y160810D01*
X396878Y160806D01*
X396874Y160845D01*
X396871Y160884D01*
X396832Y160881D01*
X396828Y160920D01*
X396825Y160959D01*
X396786Y160956D01*
X396782Y160995D01*
X396743Y160991D01*
X396740Y161030D01*
X396662Y161023D01*
X396658Y161062D01*
D02*
G37*
G36*
X326029Y20076D02*
X322664Y19376D01*
X322801Y18715D01*
X322127Y18575D01*
X322269Y17894D01*
X322409Y17220D01*
X323083Y17360D01*
X323223Y16685D01*
X325915Y17245D01*
X326055Y16571D01*
X326195Y15896D01*
X324178Y15477D01*
X324038Y16151D01*
X322689Y15871D01*
X322830Y15196D01*
X323504Y15337D01*
X323644Y14662D01*
X327010Y15362D01*
X326869Y16037D01*
X327544Y16177D01*
X327403Y16851D01*
X327263Y17526D01*
X326589Y17385D01*
X326449Y18060D01*
X323758Y17500D01*
X323617Y18174D01*
X323476Y18855D01*
X325492Y19275D01*
X325634Y18594D01*
X326983Y18874D01*
X326841Y19555D01*
X326167Y19415D01*
X326029Y20076D01*
D02*
G37*
G36*
X311199Y16992D02*
X307834Y16292D01*
X307972Y15630D01*
X307297Y15490D01*
X307439Y14809D01*
X307579Y14135D01*
X307719Y13461D01*
X307860Y12786D01*
X308000Y12112D01*
X308674Y12252D01*
X308815Y11578D01*
X312180Y12278D01*
X312040Y12952D01*
X312714Y13092D01*
X312574Y13767D01*
X311225Y13486D01*
X311365Y12812D01*
X309349Y12392D01*
X309208Y13067D01*
X309068Y13741D01*
X308928Y14415D01*
X308788Y15090D01*
X308646Y15771D01*
X310663Y16190D01*
X310804Y15509D01*
X312153Y15790D01*
X312012Y16471D01*
X311337Y16330D01*
X311199Y16992D01*
D02*
G37*
G36*
X320647Y18957D02*
X319298Y18676D01*
X319436Y18015D01*
X319578Y17334D01*
X319718Y16660D01*
X319858Y15985D01*
X319998Y15311D01*
X320139Y14637D01*
X320279Y13962D01*
X321628Y14243D01*
X321487Y14917D01*
X321347Y15592D01*
X321207Y16266D01*
X321066Y16940D01*
X320926Y17615D01*
X320785Y18295D01*
X320647Y18957D01*
D02*
G37*
G36*
X313114Y14583D02*
X313108Y14581D01*
X313248Y13907D01*
X313255Y13908D01*
X313114Y14583D01*
D02*
G37*
G36*
X305805Y15870D02*
X304456Y15589D01*
X304593Y14928D01*
X304735Y14247D01*
X304875Y13573D01*
X304194Y13431D01*
X304054Y14105D01*
X303380Y13965D01*
X303238Y14646D01*
X302577Y14508D01*
X302439Y15170D01*
X301090Y14889D01*
X301228Y14228D01*
X301370Y13547D01*
X301510Y12873D01*
X301650Y12198D01*
X301790Y11524D01*
X301931Y10849D01*
X302071Y10175D01*
X303420Y10456D01*
X303279Y11130D01*
X303139Y11804D01*
X302999Y12479D01*
X302859Y13153D01*
X303520Y13291D01*
X303660Y12616D01*
X304335Y12756D01*
X304475Y12082D01*
X305156Y12224D01*
X305296Y11549D01*
X305436Y10875D01*
X306785Y11156D01*
X306645Y11830D01*
X306505Y12504D01*
X306364Y13179D01*
X306224Y13853D01*
X306084Y14527D01*
X305942Y15208D01*
X305805Y15870D01*
D02*
G37*
G36*
X317269Y18254D02*
X313903Y17554D01*
X314041Y16893D01*
X313367Y16752D01*
X313508Y16072D01*
X313649Y15397D01*
X313789Y14723D01*
X313929Y14049D01*
X314069Y13374D01*
X314744Y13514D01*
X314884Y12840D01*
X318249Y13540D01*
X318109Y14214D01*
X318783Y14355D01*
X318643Y15029D01*
X318503Y15703D01*
X318363Y16378D01*
X318222Y17052D01*
X318081Y17733D01*
X317406Y17593D01*
X317269Y18254D01*
D02*
G37*
G36*
X299061Y14467D02*
X295695Y13767D01*
X295833Y13105D01*
X295159Y12965D01*
X295300Y12284D01*
X295441Y11610D01*
X295581Y10936D01*
X295721Y10261D01*
X295861Y9587D01*
X296002Y8913D01*
X297350Y9193D01*
X297210Y9867D01*
X297070Y10542D01*
X299086Y10961D01*
X299227Y10287D01*
X299367Y9613D01*
X300716Y9893D01*
X300576Y10567D01*
X300435Y11242D01*
X300295Y11916D01*
X300155Y12591D01*
X300014Y13265D01*
X299873Y13946D01*
X299199Y13805D01*
X299061Y14467D01*
D02*
G37*
G36*
X292992Y13205D02*
X288952Y12364D01*
X289089Y11703D01*
X289231Y11022D01*
X289371Y10348D01*
X289512Y9673D01*
X289652Y8999D01*
X289792Y8325D01*
X289932Y7650D01*
X291281Y7931D01*
X291141Y8605D01*
X291001Y9279D01*
X290860Y9954D01*
X292877Y10373D01*
X293017Y9699D01*
X293158Y9025D01*
X293298Y8350D01*
X294647Y8631D01*
X294506Y9305D01*
X294366Y9979D01*
X294226Y10654D01*
X293551Y10514D01*
X293411Y11188D01*
X294085Y11328D01*
X293945Y12003D01*
X293804Y12683D01*
X293129Y12543D01*
X292992Y13205D01*
D02*
G37*
G36*
X287597Y12083D02*
X282882Y11102D01*
X283020Y10440D01*
X283162Y9760D01*
X283302Y9085D01*
X283442Y8411D01*
X283582Y7737D01*
X283723Y7062D01*
X283863Y6388D01*
X285212Y6668D01*
X285071Y7343D01*
X284931Y8017D01*
X284791Y8691D01*
X287482Y9251D01*
X287342Y9926D01*
X284651Y9366D01*
X284510Y10040D01*
X284369Y10721D01*
X287734Y11421D01*
X287597Y12083D01*
D02*
G37*
%LPD*%
G36*
X316874Y16772D02*
X317014Y16097D01*
X317154Y15423D01*
X317295Y14749D01*
X317435Y14074D01*
X315418Y13655D01*
X315278Y14329D01*
X315138Y15003D01*
X314997Y15678D01*
X314857Y16352D01*
X314715Y17033D01*
X316732Y17452D01*
X316874Y16772D01*
D02*
G37*
G36*
X298666Y12984D02*
X298806Y12310D01*
X298946Y11636D01*
X296930Y11216D01*
X296789Y11891D01*
X296649Y12565D01*
X296508Y13246D01*
X298524Y13665D01*
X298666Y12984D01*
D02*
G37*
G36*
X292596Y11722D02*
X292737Y11048D01*
X290720Y10628D01*
X290580Y11303D01*
X290438Y11983D01*
X292455Y12403D01*
X292596Y11722D01*
D02*
G37*
%LPC*%
G36*
X280213Y75736D02*
X280190Y75734D01*
X280164Y75732D01*
X280134Y75731D01*
X280101Y75726D01*
X280061Y75718D01*
X279981Y75696D01*
X279938Y75682D01*
X279894Y75664D01*
X279850Y75643D01*
X279806Y75616D01*
X279765Y75585D01*
X279724Y75551D01*
X279721Y75548D01*
X279714Y75542D01*
X279704Y75533D01*
X279693Y75517D01*
X279675Y75494D01*
X279658Y75472D01*
X279637Y75444D01*
X279619Y75409D01*
X279597Y75374D01*
X279575Y75332D01*
X279556Y75287D01*
X279541Y75239D01*
X279525Y75187D01*
X279512Y75132D01*
X279503Y75070D01*
X279496Y75008D01*
X279496Y75004D01*
X279495Y74991D01*
X279495Y74975D01*
X279497Y74949D01*
X279498Y74919D01*
X279500Y74886D01*
X279504Y74846D01*
X279512Y74806D01*
X279531Y74714D01*
X279545Y74667D01*
X279562Y74620D01*
X279583Y74573D01*
X279606Y74526D01*
X279634Y74479D01*
X279668Y74437D01*
X279671Y74434D01*
X279677Y74427D01*
X279686Y74417D01*
X279702Y74403D01*
X279721Y74385D01*
X279743Y74368D01*
X279771Y74347D01*
X279800Y74329D01*
X279835Y74307D01*
X279873Y74286D01*
X279912Y74267D01*
X279957Y74249D01*
X280005Y74233D01*
X280054Y74221D01*
X280109Y74211D01*
X280165Y74205D01*
X280194Y74204D01*
X280218Y74206D01*
X280241Y74208D01*
X280274Y74209D01*
X280307Y74214D01*
X280343Y74222D01*
X280423Y74241D01*
X280467Y74259D01*
X280510Y74276D01*
X280554Y74297D01*
X280598Y74321D01*
X280639Y74352D01*
X280680Y74386D01*
X280683Y74389D01*
X280690Y74395D01*
X280701Y74408D01*
X280715Y74424D01*
X280729Y74443D01*
X280746Y74468D01*
X280768Y74496D01*
X280789Y74528D01*
X280807Y74567D01*
X280829Y74608D01*
X280848Y74653D01*
X280867Y74702D01*
X280879Y74757D01*
X280892Y74812D01*
X280902Y74871D01*
X280908Y74936D01*
X280908Y74939D01*
X280909Y74952D01*
X280910Y74969D01*
X280908Y74995D01*
X280906Y75025D01*
X280905Y75058D01*
X280900Y75094D01*
X280892Y75137D01*
X280874Y75227D01*
X280860Y75273D01*
X280842Y75320D01*
X280822Y75367D01*
X280798Y75415D01*
X280770Y75459D01*
X280736Y75500D01*
X280733Y75503D01*
X280727Y75510D01*
X280718Y75520D01*
X280702Y75534D01*
X280683Y75552D01*
X280661Y75569D01*
X280633Y75590D01*
X280604Y75612D01*
X280569Y75633D01*
X280534Y75655D01*
X280492Y75673D01*
X280447Y75692D01*
X280402Y75707D01*
X280350Y75720D01*
X280298Y75729D01*
X280243Y75735D01*
X280213Y75736D01*
D02*
G37*
G36*
X271846Y76214D02*
X271826Y76212D01*
X271803Y76213D01*
X271777Y76211D01*
X271711Y76201D01*
X271638Y76189D01*
X271561Y76163D01*
X271481Y76131D01*
X271443Y76107D01*
X271406Y76082D01*
X271403Y76079D01*
X271399Y76076D01*
X271389Y76067D01*
X271375Y76054D01*
X271361Y76042D01*
X271344Y76023D01*
X271302Y75976D01*
X271263Y75919D01*
X271220Y75849D01*
X271186Y75765D01*
X271171Y75720D01*
X271159Y75671D01*
X272518Y75602D01*
X272518Y75605D01*
X272515Y75615D01*
X272516Y75628D01*
X272510Y75645D01*
X272508Y75668D01*
X272500Y75695D01*
X272483Y75755D01*
X272457Y75822D01*
X272421Y75896D01*
X272372Y75967D01*
X272344Y76002D01*
X272313Y76033D01*
X272310Y76036D01*
X272304Y76040D01*
X272294Y76047D01*
X272282Y76061D01*
X272266Y76071D01*
X272244Y76086D01*
X272218Y76103D01*
X272193Y76118D01*
X272129Y76151D01*
X272055Y76181D01*
X271967Y76201D01*
X271921Y76207D01*
X271872Y76213D01*
X271846Y76214D01*
D02*
G37*
G36*
X283721Y75611D02*
X283701Y75608D01*
X283678Y75610D01*
X283652Y75608D01*
X283586Y75598D01*
X283513Y75585D01*
X283436Y75560D01*
X283355Y75528D01*
X283318Y75503D01*
X283281Y75479D01*
X283277Y75476D01*
X283274Y75473D01*
X283263Y75463D01*
X283250Y75451D01*
X283236Y75438D01*
X283219Y75420D01*
X283177Y75372D01*
X283138Y75315D01*
X283095Y75245D01*
X283061Y75161D01*
X283046Y75116D01*
X283033Y75068D01*
X284393Y74999D01*
X284393Y75002D01*
X284390Y75012D01*
X284391Y75025D01*
X284385Y75042D01*
X284383Y75065D01*
X284374Y75091D01*
X284358Y75151D01*
X284331Y75218D01*
X284296Y75293D01*
X284247Y75364D01*
X284219Y75398D01*
X284188Y75429D01*
X284185Y75433D01*
X284178Y75437D01*
X284169Y75444D01*
X284156Y75457D01*
X284141Y75468D01*
X284118Y75482D01*
X284093Y75500D01*
X284067Y75514D01*
X284003Y75547D01*
X283929Y75577D01*
X283842Y75598D01*
X283796Y75604D01*
X283747Y75609D01*
X283721Y75611D01*
D02*
G37*
G36*
X286957Y75446D02*
X286937Y75444D01*
X286915Y75445D01*
X286888Y75443D01*
X286822Y75433D01*
X286749Y75421D01*
X286672Y75395D01*
X286592Y75363D01*
X286555Y75339D01*
X286517Y75314D01*
X286514Y75311D01*
X286510Y75308D01*
X286500Y75299D01*
X286486Y75286D01*
X286472Y75274D01*
X286455Y75255D01*
X286413Y75208D01*
X286374Y75151D01*
X286331Y75081D01*
X286297Y74997D01*
X286282Y74952D01*
X286270Y74903D01*
X287629Y74834D01*
X287629Y74837D01*
X287627Y74847D01*
X287627Y74861D01*
X287621Y74877D01*
X287619Y74900D01*
X287611Y74927D01*
X287594Y74987D01*
X287568Y75054D01*
X287532Y75128D01*
X287483Y75200D01*
X287456Y75234D01*
X287424Y75265D01*
X287421Y75268D01*
X287415Y75272D01*
X287405Y75279D01*
X287393Y75293D01*
X287377Y75304D01*
X287355Y75318D01*
X287329Y75336D01*
X287304Y75350D01*
X287240Y75383D01*
X287166Y75413D01*
X287078Y75434D01*
X287033Y75439D01*
X286984Y75445D01*
X286957Y75446D01*
D02*
G37*
G36*
X267752Y77141D02*
X267688Y75890D01*
X268402Y75854D01*
X268429Y75856D01*
X268459Y75858D01*
X268495Y75859D01*
X268534Y75860D01*
X268577Y75865D01*
X268670Y75880D01*
X268766Y75904D01*
X268813Y75922D01*
X268860Y75942D01*
X268901Y75963D01*
X268941Y75991D01*
X268945Y75994D01*
X268952Y75997D01*
X268962Y76006D01*
X268972Y76019D01*
X268990Y76034D01*
X269007Y76056D01*
X269025Y76078D01*
X269046Y76104D01*
X269067Y76135D01*
X269085Y76167D01*
X269103Y76206D01*
X269122Y76248D01*
X269134Y76290D01*
X269146Y76338D01*
X269155Y76387D01*
X269162Y76443D01*
X269162Y76446D01*
X269162Y76456D01*
X269163Y76472D01*
X269161Y76492D01*
X269159Y76518D01*
X269157Y76548D01*
X269147Y76614D01*
X269125Y76691D01*
X269114Y76731D01*
X269096Y76768D01*
X269075Y76808D01*
X269051Y76846D01*
X269023Y76880D01*
X268988Y76914D01*
X268985Y76918D01*
X268979Y76921D01*
X268970Y76932D01*
X268954Y76942D01*
X268935Y76957D01*
X268909Y76971D01*
X268880Y76986D01*
X268848Y77004D01*
X268813Y77022D01*
X268771Y77037D01*
X268726Y77053D01*
X268674Y77068D01*
X268619Y77081D01*
X268561Y77094D01*
X268499Y77100D01*
X268430Y77107D01*
X267752Y77141D01*
D02*
G37*
G36*
X297626Y74904D02*
X297607Y74902D01*
X297584Y74903D01*
X297557Y74901D01*
X297491Y74891D01*
X297418Y74879D01*
X297341Y74853D01*
X297261Y74821D01*
X297224Y74797D01*
X297186Y74772D01*
X297183Y74769D01*
X297179Y74766D01*
X297169Y74757D01*
X297155Y74744D01*
X297142Y74732D01*
X297124Y74713D01*
X297082Y74666D01*
X297043Y74609D01*
X297000Y74539D01*
X296967Y74455D01*
X296951Y74410D01*
X296939Y74361D01*
X298298Y74292D01*
X298298Y74295D01*
X298296Y74305D01*
X298296Y74318D01*
X298291Y74335D01*
X298288Y74358D01*
X298280Y74385D01*
X298263Y74445D01*
X298237Y74512D01*
X298201Y74586D01*
X298153Y74657D01*
X298125Y74692D01*
X298094Y74723D01*
X298090Y74726D01*
X298084Y74730D01*
X298075Y74737D01*
X298062Y74751D01*
X298046Y74761D01*
X298024Y74776D01*
X297999Y74793D01*
X297973Y74808D01*
X297909Y74841D01*
X297835Y74871D01*
X297747Y74892D01*
X297702Y74897D01*
X297653Y74903D01*
X297626Y74904D01*
D02*
G37*
G36*
X293532Y75832D02*
X293469Y74580D01*
X294183Y74544D01*
X294209Y74546D01*
X294239Y74548D01*
X294275Y74549D01*
X294315Y74550D01*
X294357Y74555D01*
X294450Y74570D01*
X294547Y74594D01*
X294594Y74612D01*
X294640Y74632D01*
X294681Y74653D01*
X294722Y74681D01*
X294725Y74684D01*
X294732Y74687D01*
X294742Y74696D01*
X294753Y74709D01*
X294770Y74724D01*
X294788Y74746D01*
X294805Y74768D01*
X294826Y74794D01*
X294847Y74825D01*
X294865Y74857D01*
X294884Y74896D01*
X294902Y74937D01*
X294914Y74980D01*
X294927Y75028D01*
X294936Y75077D01*
X294942Y75133D01*
X294942Y75136D01*
X294942Y75146D01*
X294943Y75162D01*
X294941Y75182D01*
X294939Y75208D01*
X294937Y75238D01*
X294928Y75304D01*
X294905Y75381D01*
X294894Y75421D01*
X294876Y75458D01*
X294855Y75498D01*
X294831Y75536D01*
X294803Y75570D01*
X294769Y75604D01*
X294766Y75608D01*
X294759Y75612D01*
X294750Y75622D01*
X294734Y75633D01*
X294715Y75647D01*
X294689Y75661D01*
X294661Y75676D01*
X294629Y75694D01*
X294594Y75712D01*
X294552Y75727D01*
X294506Y75743D01*
X294455Y75758D01*
X294399Y75771D01*
X294341Y75784D01*
X294279Y75790D01*
X294210Y75797D01*
X293532Y75832D01*
D02*
G37*
G36*
X305419Y75264D02*
X305402Y75261D01*
X305379Y75262D01*
X305353Y75257D01*
X305319Y75252D01*
X305283Y75248D01*
X305246Y75236D01*
X305206Y75225D01*
X305163Y75208D01*
X305119Y75187D01*
X305075Y75163D01*
X305031Y75132D01*
X304986Y75095D01*
X304945Y75055D01*
X304906Y75007D01*
X304903Y75004D01*
X304899Y74994D01*
X304889Y74979D01*
X304874Y74956D01*
X304860Y74928D01*
X304841Y74889D01*
X304823Y74847D01*
X304804Y74799D01*
X304781Y74741D01*
X304762Y74676D01*
X304741Y74605D01*
X304725Y74530D01*
X304707Y74443D01*
X304692Y74351D01*
X304684Y74253D01*
X304675Y74145D01*
X304675Y74139D01*
X304674Y74119D01*
X304673Y74090D01*
X304674Y74050D01*
X304675Y74001D01*
X304675Y73942D01*
X304678Y73882D01*
X304681Y73813D01*
X304688Y73744D01*
X304697Y73671D01*
X304710Y73598D01*
X304722Y73522D01*
X304742Y73452D01*
X304761Y73382D01*
X304788Y73319D01*
X304818Y73261D01*
X304821Y73258D01*
X304827Y73248D01*
X304836Y73234D01*
X304852Y73217D01*
X304867Y73193D01*
X304892Y73169D01*
X304917Y73141D01*
X304945Y73114D01*
X304979Y73085D01*
X305017Y73057D01*
X305056Y73032D01*
X305100Y73007D01*
X305149Y72988D01*
X305200Y72973D01*
X305256Y72960D01*
X305314Y72953D01*
X305327Y72953D01*
X305347Y72955D01*
X305370Y72954D01*
X305397Y72959D01*
X305430Y72964D01*
X305466Y72969D01*
X305506Y72980D01*
X305546Y72991D01*
X305590Y73009D01*
X305633Y73029D01*
X305677Y73053D01*
X305722Y73084D01*
X305766Y73121D01*
X305808Y73162D01*
X305846Y73209D01*
X305850Y73212D01*
X305853Y73222D01*
X305864Y73238D01*
X305878Y73260D01*
X305893Y73292D01*
X305911Y73327D01*
X305930Y73369D01*
X305952Y73420D01*
X305972Y73478D01*
X305991Y73540D01*
X306011Y73611D01*
X306028Y73689D01*
X306046Y73777D01*
X306060Y73868D01*
X306069Y73966D01*
X306077Y74074D01*
X306078Y74077D01*
X306078Y74081D01*
X306079Y74100D01*
X306080Y74130D01*
X306079Y74173D01*
X306078Y74219D01*
X306078Y74278D01*
X306074Y74337D01*
X306071Y74406D01*
X306065Y74475D01*
X306055Y74548D01*
X306046Y74621D01*
X306030Y74694D01*
X306011Y74767D01*
X305991Y74834D01*
X305965Y74898D01*
X305935Y74955D01*
X305932Y74958D01*
X305926Y74968D01*
X305917Y74982D01*
X305904Y74999D01*
X305886Y75023D01*
X305864Y75047D01*
X305836Y75075D01*
X305808Y75103D01*
X305773Y75131D01*
X305735Y75159D01*
X305694Y75184D01*
X305649Y75209D01*
X305601Y75228D01*
X305549Y75244D01*
X305490Y75257D01*
X305432Y75263D01*
X305419Y75264D01*
D02*
G37*
G36*
X271920Y9313D02*
X270544D01*
Y8642D01*
X269851D01*
Y7954D01*
X269163D01*
Y8642D01*
X268486D01*
Y9313D01*
X267110D01*
Y8642D01*
Y7954D01*
Y7260D01*
Y6572D01*
Y5884D01*
Y5196D01*
Y4508D01*
X268486D01*
Y5196D01*
Y5884D01*
Y6572D01*
Y7260D01*
X269163D01*
Y6572D01*
X269851D01*
Y7260D01*
X270544D01*
Y6572D01*
Y5884D01*
Y5196D01*
Y4508D01*
X271920D01*
Y5196D01*
Y5884D01*
Y6572D01*
Y7260D01*
Y7954D01*
Y8642D01*
Y9313D01*
D02*
G37*
G36*
X262993D02*
X261617D01*
Y8642D01*
Y7954D01*
Y7260D01*
Y6572D01*
X260924D01*
Y7260D01*
X260236D01*
Y6572D01*
X259559D01*
Y7260D01*
Y7954D01*
Y8642D01*
Y9313D01*
X258183D01*
Y8642D01*
Y7954D01*
Y7260D01*
Y6572D01*
Y5884D01*
Y5196D01*
Y4508D01*
X259559D01*
Y5196D01*
X260236D01*
Y5884D01*
X260924D01*
Y5196D01*
X261617D01*
Y4508D01*
X262993D01*
Y5196D01*
Y5884D01*
Y6572D01*
Y7260D01*
Y7954D01*
Y8642D01*
Y9313D01*
D02*
G37*
G36*
X265745D02*
X264369D01*
Y8642D01*
Y7954D01*
Y7260D01*
Y6572D01*
Y5884D01*
Y5196D01*
Y4508D01*
X265745D01*
Y5196D01*
Y5884D01*
Y6572D01*
Y7260D01*
Y7954D01*
Y8642D01*
Y9313D01*
D02*
G37*
%LPD*%
D10*
X161331Y101181D02*
G03*
X161331Y101181I-787J0D01*
G01*
X28060Y140033D02*
X33514Y136883D01*
X340969Y25947D02*
X346425Y29096D01*
X237287Y19760D02*
X243311Y17919D01*
X154271Y154517D02*
X159492Y150993D01*
X346425Y29096D02*
X351654Y20038D01*
X340969Y25947D02*
X346356Y16617D01*
X238240Y1334D02*
X243311Y17919D01*
X232094Y2773D02*
X237287Y19760D01*
X466042Y185813D02*
Y211054D01*
X459742Y185813D02*
X459742Y211054D01*
X159492Y150993D02*
X176797Y176645D01*
X154271Y154517D02*
X172752Y181913D01*
X22714Y118177D02*
X33514Y136883D01*
X17258Y121322D02*
X28060Y140033D01*
X109397Y187648D02*
X158440Y236689D01*
X160090Y238791D01*
X51467Y100555D02*
X118882Y165087D01*
X101532Y179784D02*
X118882Y165087D01*
X31893Y110145D02*
X101532Y179784D01*
X109397Y187648D02*
X126622Y172496D01*
X143640Y188786D01*
X401470Y20882D02*
X431514Y145975D01*
X419051Y146821D02*
X431514Y145975D01*
X421082Y156839D02*
X433849Y155698D01*
X447777Y213688D01*
X371223Y152486D02*
X372376Y158528D01*
X371223Y152486D02*
X381725Y150247D01*
X387622Y161173D01*
X209318Y166140D02*
X209774Y161007D01*
X201181Y156299D02*
X209774Y161007D01*
X197638Y154331D02*
X201181Y156299D01*
X195669Y153937D02*
X197638Y154331D01*
X194453Y154734D02*
X195669Y153937D01*
X143640Y188786D02*
X145453Y190893D01*
X512530Y2096D02*
X515526Y3301D01*
X134186Y57225D02*
X145418Y65459D01*
X156050Y74434D01*
X130776Y56007D02*
X134186Y57225D01*
X49695Y88737D02*
X52354Y85266D01*
X48753Y91165D02*
X49695Y88737D01*
X48513Y93981D02*
X48753Y91165D01*
X126666Y55107D02*
X130776Y56007D01*
X48513Y93981D02*
X49307Y97129D01*
X51467Y100555D01*
X52354Y85266D02*
X53831Y84010D01*
X121088Y54567D02*
X126666Y55107D01*
X82449Y289978D02*
X82450D01*
X136171Y258961D02*
Y258962D01*
Y258961D02*
X138274Y260610D01*
X140671Y261708D02*
X146016Y262280D01*
X138274Y260610D02*
X140671Y261708D01*
X51433Y174226D02*
X136171Y258962D01*
X51433Y174226D02*
X82450Y289978D01*
X82578Y295248D02*
X82826Y292623D01*
X70643Y306768D02*
X76295Y304184D01*
X80401Y300163D01*
X82578Y295248D01*
X82449Y289978D02*
X82826Y292623D01*
X53019Y300608D02*
X54545Y302758D01*
X64455Y307355D02*
X70643Y306768D01*
X22714Y118177D02*
X25442Y116600D01*
X54545Y302758D02*
X58889Y305926D01*
X64455Y307355D01*
X52024Y298128D02*
X53019Y300608D01*
X52015Y298080D02*
X52024Y298128D01*
X53831Y84010D02*
X59050Y80366D01*
X86129Y64316D01*
X96563Y59262D01*
X105935Y56229D01*
X114144Y54803D01*
X121088Y54567D01*
X14531Y122900D02*
X17258Y121323D01*
X25442Y116600D02*
X31893Y110145D01*
X5708Y125263D02*
X14531Y122900D01*
X5708Y125263D02*
X52015Y298080D01*
X515526Y3301D02*
X518183Y4982D01*
X522288Y9468D01*
X145453Y190893D02*
X147672Y192641D01*
X368928Y42820D02*
X371390Y50719D01*
X374669Y67051D02*
X378005Y83273D01*
X371390Y50719D02*
X374669Y67051D01*
X365465Y35265D02*
X368928Y42820D01*
X421082Y156839D02*
X421227Y165413D01*
X411547Y187792D02*
X413995Y186047D01*
X416347Y182824D01*
X418591Y177977D01*
X420312Y172093D01*
X459742Y185813D02*
X466042D01*
X420312Y172093D02*
X421227Y165413D01*
X456592Y211054D02*
X459742D01*
X372117Y163025D02*
X372376Y158528D01*
X371189Y167252D02*
X372117Y163025D01*
X368202Y174886D02*
X371189Y167252D01*
X365081Y180688D02*
X368202Y174886D01*
X331766Y176102D02*
X334176Y176652D01*
X338847Y178928D01*
X353929Y187571D02*
X356419Y187305D01*
X361248Y185079D02*
X363321Y183225D01*
X356419Y187305D02*
X361248Y185079D01*
X345055Y183330D02*
X351449Y186935D01*
X338847Y178928D02*
X345055Y183330D01*
X363321Y183225D02*
X365081Y180688D01*
X351449Y186935D02*
X353929Y187571D01*
X360666Y28176D02*
X365465Y35265D01*
X343237Y14603D02*
X346356Y16617D01*
X354192Y21678D02*
X360666Y28176D01*
X351654Y20038D02*
X354192Y21678D01*
X431878Y11732D02*
X431880D01*
X430882Y8966D02*
X431878Y11732D01*
X429355Y6568D02*
X430882Y8966D01*
X401078Y17880D02*
X401325Y14952D01*
X403502Y9468D01*
X401078Y17880D02*
X401456Y20831D01*
X401470Y20882D01*
X332682Y10180D02*
X343237Y14603D01*
X417071Y141410D02*
X419051Y146821D01*
X414312Y135807D02*
X417071Y141410D01*
X410669Y130067D02*
X414312Y135807D01*
X406040Y124246D02*
X410669Y130067D01*
X398391Y179481D02*
X403780Y185627D01*
X409020Y188206D02*
X411547Y187792D01*
X400323Y118401D02*
X406040Y124246D01*
X403780Y185627D02*
X406426Y187436D01*
X431880Y11732D02*
X462895Y140874D01*
X447777Y213688D02*
X456592Y211054D01*
X406426Y187436D02*
X409020Y188206D01*
X383741Y100219D02*
X386348Y105429D01*
X393413Y112588D02*
X400323Y118401D01*
X387622Y161173D02*
X392967Y170939D01*
X392115Y112129D02*
X393413Y112588D01*
X392967Y170939D02*
X398391Y179481D01*
X386348Y105429D02*
X388668Y108922D01*
X392115Y112129D01*
X378005Y83273D02*
X380932Y92948D01*
X383741Y100219D01*
X466042Y211054D02*
X469191D01*
X478013Y213688D01*
X524320Y20882D01*
X462895Y140874D02*
X493910Y11732D01*
X522288Y9468D02*
X524465Y14952D01*
X493912Y11732D02*
X494908Y8966D01*
X524334Y20831D02*
X524712Y17880D01*
X524320Y20882D02*
X524334Y20831D01*
X493910Y11732D02*
X493912D01*
X494908Y8966D02*
X496434Y6568D01*
X524465Y14952D02*
X524712Y17880D01*
X168144Y224604D02*
X170106Y226438D01*
X160075Y218589D02*
X168144Y224604D01*
X175098Y229874D02*
X178623Y231564D01*
X182777Y232901D01*
X178566Y212201D02*
X185015Y214018D01*
X172983Y209143D02*
X178566Y212201D01*
X170106Y226438D02*
X175098Y229874D01*
X227051Y245624D02*
X227738Y248880D01*
X229123Y252049D01*
X227051Y245624D02*
X227476Y238986D01*
X229805Y232396D01*
X233443Y226118D02*
X237795Y220416D01*
X229123Y252049D02*
X237953Y269214D01*
X229805Y232396D02*
X233443Y226118D01*
X324576Y249175D02*
X327337Y246662D01*
X323034Y249491D02*
X324576Y249175D01*
X322749Y224232D02*
X323608Y217752D01*
X319880Y236751D02*
X322749Y224232D01*
X321519Y248776D02*
X323034Y249491D01*
X320123Y246379D02*
X321519Y248776D01*
X323606Y211085D02*
X323608Y217752D01*
X319433Y243298D02*
X319880Y236751D01*
X319433Y243298D02*
X320123Y246379D01*
X213206Y258142D02*
X214359Y260140D01*
X199884Y272779D02*
X208330Y260269D01*
X209960Y258198D01*
X211782Y256725D01*
X213206Y258142D01*
X214359Y260140D02*
X219813Y273317D01*
X347612Y235253D02*
X352920Y244328D01*
X338622Y226152D02*
X341486Y227718D01*
X329787Y242312D02*
X331743Y237339D01*
X341486Y227718D02*
X344695Y231179D01*
X327337Y246662D02*
X329787Y242312D01*
X331743Y237339D02*
X333632Y232276D01*
X335880Y227656D01*
X337163Y226358D01*
X338622Y226152D01*
X344695Y231179D02*
X347612Y235253D01*
X352920Y244328D02*
X354860Y250084D01*
X178924Y299326D02*
X181764Y299616D01*
X184565Y298591D01*
X187084Y296418D01*
X174911Y276090D02*
X178301Y267707D01*
X173746Y280711D02*
X174911Y276090D01*
X173141Y285621D02*
X173746Y280711D01*
X189795Y291701D02*
X192146Y286440D01*
X199884Y272779D01*
X193429Y246550D02*
X193857Y245960D01*
X185334Y256144D02*
X193429Y246550D01*
X178301Y267707D02*
X185334Y256144D01*
X173695Y292340D02*
X174724Y295284D01*
X176286Y297558D01*
X173141Y285621D02*
X173695Y292340D01*
X187084Y296418D02*
X189795Y291701D01*
X176286Y297558D02*
X178924Y299326D01*
X194869Y243879D02*
X196469Y239372D01*
X203703Y215268D02*
X207246Y213610D01*
X213756Y209319D01*
X192561Y215115D02*
X196307Y216285D01*
X193857Y245960D02*
X194869Y243879D01*
X182777Y232901D02*
X187517Y233632D01*
X192800Y233507D01*
X195250Y233766D01*
X196498Y235047D01*
X196815Y237024D01*
X196469Y239372D02*
X196815Y237024D01*
X196307Y216285D02*
X200038Y216248D01*
X185015Y214018D02*
X192561Y215115D01*
X200038Y216248D02*
X203703Y215268D01*
X160216Y252067D02*
X161761Y246532D01*
X155141Y213637D02*
X160075Y218589D01*
X161189Y241187D02*
X161761Y246532D01*
X160090Y238791D02*
X161189Y241187D01*
X153547Y210029D02*
X155141Y213637D01*
X156612Y257132D02*
X160216Y252067D01*
X371211Y233977D02*
X372358Y235657D01*
X370853Y231640D02*
X371282Y229871D01*
X372157Y228685D01*
X357797Y212563D02*
X360380Y212488D01*
X355227Y212028D02*
X357797Y212563D01*
X351186Y209645D02*
X355227Y212028D01*
X372157Y228685D02*
X374434Y227732D01*
X370853Y231640D02*
X371211Y233977D01*
X360380Y212488D02*
X365497Y211174D01*
X242906Y287758D02*
X242928Y284776D01*
X237953Y269214D02*
X242197Y280777D01*
X242928Y284776D01*
X242262Y289850D02*
X242906Y287758D01*
X239638Y291874D02*
X241129Y291179D01*
X230188Y289694D02*
X234325Y291428D01*
X237919Y292062D01*
X239638Y291874D01*
X222636Y279771D02*
X226061Y285429D01*
X241129Y291179D02*
X242262Y289850D01*
X219813Y273317D02*
X222636Y279771D01*
X226061Y285429D02*
X230188Y289694D01*
X359393Y286101D02*
X361873Y279650D01*
X349498Y296160D02*
X351330Y295835D01*
X353054Y294839D01*
X361873Y279650D02*
X363641Y273043D01*
X345888Y280828D02*
X348263Y275153D01*
X345599Y293480D02*
X347395Y295466D01*
X344261Y287103D02*
X345888Y280828D01*
X344443Y290570D02*
X345599Y293480D01*
X344261Y287103D02*
X344443Y290570D01*
X356144Y291589D02*
X359393Y286101D01*
X347395Y295466D02*
X349498Y296160D01*
X353054Y294839D02*
X356144Y291589D01*
X367585Y263557D02*
X368872Y262833D01*
X365599Y266589D02*
X367585Y263557D01*
X370260Y262839D02*
X372889Y263888D01*
X354860Y250084D02*
X354884Y256611D01*
X353727Y261659D02*
X354884Y256611D01*
X352089Y266330D02*
X353727Y261659D01*
X348263Y275153D02*
X352089Y266330D01*
X368872Y262833D02*
X370260Y262839D01*
X363641Y273043D02*
X365599Y266589D01*
X264940Y219472D02*
X266609Y224815D01*
X255084Y226325D02*
X257076Y230212D01*
X259497Y233414D01*
X261444Y234623D01*
X263548Y234609D01*
X265426Y233302D01*
X266697Y230631D01*
X266987Y227677D01*
X242266Y215553D02*
X249187Y209397D01*
X248761Y210825D02*
X249187Y209397D01*
X248761Y210825D02*
X249638Y212878D01*
X252059Y217449D01*
X262103Y208757D02*
X264940Y219472D01*
X252059Y217449D02*
X255084Y226325D01*
X237795Y220416D02*
X242266Y215553D01*
X266609Y224815D02*
X266987Y227677D01*
X506342Y1441D02*
X509395Y1468D01*
X498415Y4578D02*
X500777Y3035D01*
X496434Y6568D02*
X498415Y4578D01*
X425012Y3035D02*
X427374Y4578D01*
X509395Y1468D02*
X512530Y2096D01*
X500777Y3035D02*
X506342Y1441D01*
X413260Y2096D02*
X416394Y1468D01*
X419448Y1441D02*
X425012Y3035D01*
X427374Y4578D02*
X429355Y6568D01*
X407607Y4982D02*
X410264Y3301D01*
X403502Y9468D02*
X407607Y4982D01*
X410264Y3301D02*
X413260Y2096D01*
X147672Y192641D02*
X150722Y194066D01*
X154571Y194577D01*
X159187Y193584D01*
X164538Y190498D01*
X170591Y184727D01*
X153547Y210029D02*
X153772Y208687D01*
X154557Y207631D01*
X169962Y207483D02*
X172983Y209143D01*
X165875Y206369D02*
X169962Y207483D01*
X161455Y205933D02*
X165875Y206369D01*
X157438Y206310D02*
X161455Y205933D01*
X151548Y260735D02*
X156612Y257132D01*
X154557Y207631D02*
X157438Y206310D01*
X146016Y262280D02*
X151548Y260735D01*
X319752Y6605D02*
X332682Y10180D01*
X299115Y2626D02*
X319752Y6605D01*
X259208Y-809D02*
X278740Y0D01*
X299115Y2626D01*
X228804Y3544D02*
X232094Y2773D01*
X241097Y663D02*
X249939Y-387D01*
X238240Y1334D02*
X241097Y663D01*
X174982Y93117D02*
X183474Y85168D01*
X188722Y81395D01*
X165948Y83778D02*
X174982Y93117D01*
X192351Y53582D02*
X192553Y67011D01*
X194369Y78414D01*
X188722Y81395D02*
X194369Y78414D01*
X156050Y74434D02*
X165948Y83778D01*
X221319Y6437D02*
X228804Y3544D01*
X176797Y176645D02*
X178684Y174188D01*
X170591Y184727D02*
X172752Y181913D01*
X249939Y-387D02*
X259208Y-809D01*
X203290Y20399D02*
X208487Y14804D01*
X193459Y43546D02*
X195701Y34710D01*
X199003Y27014D01*
X203290Y20399D01*
X208487Y14804D02*
X214522Y10170D01*
X221319Y6437D01*
X192351Y53582D02*
X193459Y43546D01*
X397846Y306089D02*
X400422Y307094D01*
X403095Y306640D01*
X393409Y301250D02*
X395473Y304012D01*
X397846Y306089D01*
X403095Y306640D02*
X405091Y305206D01*
X406875Y303104D01*
X389628Y294120D02*
X393409Y301250D01*
X386477Y286211D02*
X389628Y294120D01*
X406875Y303104D02*
X408268Y300385D01*
X416394Y1468D02*
X419448Y1441D01*
X409091Y297103D02*
X409188Y291670D01*
X408262Y286403D02*
X409188Y291670D01*
X408268Y300385D02*
X409091Y297103D01*
X306308Y197871D02*
X306468Y196564D01*
X304004Y198156D02*
X305661Y198475D01*
X306308Y197871D01*
X301834Y180089D02*
X303929Y181345D01*
X304103Y188362D02*
X306468Y196564D01*
X311907Y189575D02*
X319287Y199121D01*
X303929Y181345D02*
X311907Y189575D01*
X301834Y180089D02*
X304103Y188362D01*
X210344Y175041D02*
X211665Y179049D01*
X273031Y173025D02*
X275287Y173093D01*
X267634Y179032D02*
X273031Y173025D01*
X271871Y179994D02*
X275287Y173093D01*
X211665Y179049D02*
X213480Y182525D01*
X216875Y186710D01*
X236245Y186275D02*
X242377Y179017D01*
X232845Y188971D02*
X236245Y186275D01*
X242377Y179017D02*
X244791Y175707D01*
X251320Y175293D02*
X255737Y169525D01*
X244791Y175707D02*
X247518Y173207D01*
X255737Y169525D01*
X242813Y185204D02*
X251320Y175293D01*
X220759Y189610D02*
X224932Y190997D01*
X216875Y186710D02*
X220759Y189610D01*
X233923Y194185D02*
X242813Y185204D01*
X232429Y195103D02*
X233923Y194185D01*
X224932Y190997D02*
X229195Y190647D01*
X232845Y188971D01*
X209318Y166140D02*
X210344Y175041D01*
X185361Y166718D02*
X194453Y154734D01*
X178684Y174188D02*
X185361Y166718D01*
X270732Y191718D02*
X273944Y189931D01*
X278366Y185692D01*
X282284Y180332D01*
X260743Y197331D02*
X261170Y191485D01*
X267905Y186089D02*
X271871Y179994D01*
X282284Y180332D02*
X283613Y188401D01*
X260743Y197331D02*
X262103Y208757D01*
X266773Y190045D02*
X266789Y188626D01*
X266773Y190045D02*
X267425Y191195D01*
X269056Y191884D01*
X270732Y191718D01*
X266789Y188626D02*
X267905Y186089D01*
X261170Y191485D02*
X262894Y186317D01*
X267634Y179032D01*
X219140Y205488D02*
X226047Y200598D01*
X232429Y195103D01*
X295102Y201946D02*
X295734Y199607D01*
X293572Y202618D02*
X295102Y201946D01*
X291467Y201774D02*
X293572Y202618D01*
X286334Y195438D02*
X289574Y200115D01*
X291467Y201774D01*
X213756Y209319D02*
X219140Y205488D01*
X301138Y195993D02*
X304004Y198156D01*
X383352Y278267D02*
X386477Y286211D01*
X387090Y206256D02*
X394913Y207906D01*
X374434Y227732D02*
X393791Y233171D01*
X379651Y271032D02*
X383352Y278267D01*
X378563Y240799D02*
X385704Y246793D01*
X375364Y265680D02*
X379651Y271032D01*
X381603Y205908D02*
X387090Y206256D01*
X385704Y246793D02*
X392324Y254161D01*
X319272Y178422D02*
X324288Y177160D01*
X329324Y176158D01*
X319272Y178422D02*
X347435Y206185D01*
X322117Y204504D02*
X323606Y211085D01*
X319287Y199121D02*
X322117Y204504D01*
X329324Y176158D02*
X331766Y176102D01*
X347435Y206185D02*
X351186Y209645D01*
X294047Y185878D02*
X294855Y192757D01*
X284761Y192129D02*
X286334Y195438D01*
X283613Y188401D02*
X284761Y192129D01*
X294047Y185878D02*
X298501Y193148D01*
X294855Y192757D02*
X295734Y199607D01*
X298501Y193148D02*
X301138Y195993D01*
X376183Y207063D02*
X381603Y205908D01*
X365497Y211174D02*
X376183Y207063D01*
X372358Y235657D02*
X378563Y240799D01*
X372889Y263888D02*
X375364Y265680D01*
X397085Y261375D02*
X401380Y269343D01*
X400458Y211812D02*
X402352Y213880D01*
X396328Y208496D02*
X400458Y211812D01*
X404793Y224258D02*
X404843Y220301D01*
X393791Y233171D02*
X398084Y232919D01*
X400170Y232188D01*
X402114Y230729D01*
X403851Y227930D01*
X404793Y224258D01*
X403899Y216643D02*
X404843Y220301D01*
X402352Y213880D02*
X403899Y216643D01*
X392324Y254161D02*
X397085Y261375D01*
X401380Y269343D02*
X405194Y277488D01*
X394913Y207906D02*
X396328Y208496D01*
X405194Y277488D02*
X408262Y286403D01*
D11*
X157480Y101181D02*
G03*
X157480Y101181I-27559J0D01*
G01*
X330315Y76772D02*
G03*
X330315Y76772I-43307J0D01*
G01*
X262811Y45336D02*
G03*
X315924Y49983I23803J33798D01*
G01*
X310417Y112932D02*
G03*
X257304Y108285I-23803J-33798D01*
G01*
X331107Y56006D02*
G03*
X331107Y56006I-3937J0D01*
G01*
X249995Y102262D02*
G03*
X249995Y102262I-3937J0D01*
G01*
X391901Y147383D02*
G03*
X405403Y139588I3798J-9012D01*
G01*
X73622Y93701D02*
G03*
X73622Y93701I-9843J0D01*
G01*
X383555Y104024D02*
X390692Y100696D01*
X387364Y93560D02*
X390692Y100696D01*
X380228Y96888D02*
X387364Y93560D01*
X360427Y96347D02*
X374736Y127033D01*
X377769Y125618D01*
X360427Y96347D02*
X363460Y94932D01*
X373451Y90274D02*
X376484Y88859D01*
X390793Y119545D01*
X387760Y120960D02*
X390793Y119545D01*
X272244Y24606D02*
X283071D01*
X290945D02*
X301772D01*
X272244D02*
Y36417D01*
X301772Y24606D02*
Y36417D01*
X330957Y69181D02*
X343704Y70296D01*
X330957Y69181D02*
X332502Y51532D01*
X246217Y43983D02*
X332502Y51532D01*
X244673Y61632D02*
X246217Y43983D01*
X231926Y60517D02*
X244673Y61632D01*
X328555Y96635D02*
X341302Y97751D01*
X240727Y106736D02*
X242271Y89087D01*
X229524Y87971D02*
X242271Y89087D01*
X327355Y110363D02*
X328555Y96635D01*
X323089Y113941D02*
X327355Y110363D01*
X240727Y106736D02*
X323089Y113941D01*
X326998Y57967D02*
X327342Y54045D01*
X325209Y55834D02*
X329131Y56177D01*
X245887Y104223D02*
X246230Y100301D01*
X391901Y147383D02*
X405403Y139588D01*
D12*
X122405Y75291D02*
X129921Y67774D01*
X163328Y101181D01*
X155811Y108698D02*
X163328Y101181D01*
X104867Y109532D02*
X107650Y106749D01*
X124354Y123452D01*
X121570Y126236D02*
X124354Y123452D01*
X96515Y101181D02*
X104031Y93665D01*
X96515Y101181D02*
X129921Y134587D01*
X137437Y127071D01*
D13*
X63768Y100073D02*
X65623Y101928D01*
X63768D02*
X65623Y100073D01*
M02*
